<svg width="225" height="64" viewBox="0 0 225 64" fill="none" xmlns="http://www.w3.org/2000/svg">
<path d="M220.967 1.64045C220.769 0.553874 219.727 -0.16599 218.64 0.0325849L200.934 3.26856C199.847 3.46713 199.127 4.50895 199.326 5.59553C199.524 6.6821 200.566 7.40196 201.653 7.20339L217.392 4.32697L220.269 20.0663C220.467 21.1529 221.509 21.8727 222.596 21.6742C223.682 21.4756 224.402 20.4338 224.203 19.3472L220.967 1.64045ZM0.563367 29.117C1.67323 29.8561 2.81858 30.5988 3.99794 31.3434L6.13336 27.9611C4.98083 27.2335 3.8627 26.5083 2.78038 25.7876L0.563367 29.117ZM11.0584 35.5828C13.3674 36.9024 15.7751 38.2169 18.2736 39.5157L20.1185 35.9666C17.6668 34.6921 15.3057 33.4031 13.0432 32.11L11.0584 35.5828ZM25.6535 43.1751C28.0839 44.3238 30.5837 45.4512 33.1469 46.5491L34.7218 42.8722C32.2044 41.7939 29.7493 40.6867 27.3627 39.5587L25.6535 43.1751ZM40.7515 49.6429C43.2758 50.6163 45.8513 51.5566 48.4728 52.4572L49.7724 48.6742C47.1987 47.7901 44.6697 46.8667 42.1906 45.9107L40.7515 49.6429ZM56.2992 54.9812C58.903 55.7663 61.545 56.5084 64.2207 57.2015L65.2237 53.3293C62.6003 52.6497 60.0088 51.9218 57.4539 51.1515L56.2992 54.9812ZM72.2279 59.1027C74.8958 59.6782 77.5915 60.2015 80.3109 60.6669L80.9856 56.7242C78.3244 56.2688 75.6849 55.7565 73.0714 55.1927L72.2279 59.1027ZM88.4549 61.8736C91.1693 62.2128 93.9026 62.4907 96.6508 62.7019L96.9573 58.7136C94.2743 58.5075 91.6042 58.2361 88.9509 57.9045L88.4549 61.8736ZM104.883 63.1283C107.623 63.2006 110.374 63.2024 113.132 63.1287L113.025 59.1301C110.34 59.2019 107.66 59.2001 104.989 59.1297L104.883 63.1283ZM121.375 62.6793C124.109 62.4526 126.846 62.1471 129.583 61.7575L129.019 57.7974C126.362 58.1757 123.703 58.4726 121.044 58.6929L121.375 62.6793ZM137.725 60.3439C140.412 59.7915 143.094 59.153 145.768 58.4234L144.715 54.5645C142.125 55.2713 139.525 55.8902 136.92 56.4259L137.725 60.3439ZM153.673 55.9869C156.261 55.0948 158.839 54.1116 161.401 53.0329L159.849 49.3463C157.37 50.39 154.875 51.3416 152.369 52.2051L153.673 55.9869ZM168.915 49.5681C171.354 48.3421 173.777 47.0232 176.178 45.6077L174.147 42.1617C171.823 43.5317 169.479 44.8078 167.119 45.994L168.915 49.5681ZM183.162 41.1748C185.41 39.6414 187.637 38.017 189.84 36.298L187.379 33.1446C185.244 34.811 183.086 36.385 180.908 37.8699L183.162 41.1748ZM196.197 31.0103C198.23 29.2098 200.24 27.3224 202.223 25.3453L199.399 22.5125C197.471 24.4344 195.519 26.2677 193.545 28.0152L196.197 31.0103ZM207.918 19.3363C209.716 17.329 211.49 15.2417 213.238 13.0719L210.122 10.5631C208.418 12.6788 206.69 14.7126 204.939 16.6668L207.918 19.3363ZM218.231 6.54365C219.042 5.42752 219.847 4.29202 220.645 3.13693L217.355 0.86307C216.574 1.99218 215.788 3.10168 214.996 4.19184L218.231 6.54365Z" fill="#828282"/>
</svg>
