<svg width="48" height="48" viewBox="0 0 48 48" fill="none" xmlns="http://www.w3.org/2000/svg">
<g clip-path="url(#clip0_11_679)">
<path d="M12.6407 30.2881H14.8765C15.3788 30.2881 15.8206 30.5445 16.0809 30.9311H19.5146C20.2285 30.9311 20.9359 31.0392 21.617 31.253C21.6171 31.253 21.6171 31.253 21.6171 31.253L32.6105 34.7001L12.6407 30.2881ZM12.6407 30.2881C12.5332 29.5793 11.9201 29.0352 11.1819 29.0352H8.21073H1.89212C1.63826 29.0352 1.43527 29.153 1.28406 29.3168C1.13713 29.476 1.03253 29.6843 0.957251 29.8959C0.806484 30.3196 0.75 30.8235 0.75 31.1811V44.1697C0.75 44.5273 0.806491 45.0284 0.957459 45.4494C1.03286 45.6596 1.13764 45.8665 1.28483 46.0246C1.43637 46.1873 1.63917 46.3035 1.89212 46.3035H11.1822C11.9202 46.3035 12.5332 45.7593 12.6407 45.0506H14.8765C15.3377 45.0506 15.7486 44.8347 16.0143 44.4999C17.7483 45.4357 20.0265 46.088 22.28 46.5436C24.6274 47.0182 26.9683 47.2832 28.6802 47.4284C29.0174 47.4571 29.3556 47.4713 29.6934 47.4713C31.1397 47.4713 32.5829 47.2111 33.9195 46.7045L33.8309 46.4708L33.9195 46.7045C39.4911 44.5927 44.214 40.2436 46.5265 37.8496C47.865 36.4642 47.9418 34.3052 46.7046 32.8288L12.6407 30.2881ZM45.363 36.726L45.1832 36.5523C45.8567 35.8552 45.8952 34.7705 45.2729 34.0284L45.2728 34.0283C44.7487 33.4026 43.8873 33.1853 43.1287 33.4869L45.363 36.726ZM45.363 36.726L45.1832 36.5523C42.9637 38.8499 38.4739 42.9809 33.2577 44.9581C31.8698 45.4841 30.3418 45.6952 28.8383 45.5676C21.0427 44.9061 17.6372 43.3517 16.3285 42.5159V32.7986M45.363 36.726L16.3285 32.7986M16.3285 32.7986H19.5146C20.0389 32.7986 20.558 32.8784 21.0583 33.0353L21.0584 33.0353L32.0451 36.48L32.0471 36.4807L32.0682 36.4875L32.0682 36.4875L32.0713 36.4885C32.7173 36.6879 33.1105 37.3274 32.9966 37.9683L32.9806 38.0582C32.9806 38.0582 32.9806 38.0583 32.9806 38.0583C32.8628 38.7185 32.2449 39.1878 31.5771 39.126L22.4876 38.2719C22.4876 38.2719 22.4875 38.2719 22.4875 38.2719L22.4871 38.2719L22.4637 38.5208M16.3285 32.7986L21.4703 39.1142L21.7192 39.1378C21.7544 38.7615 22.0895 38.4848 22.4637 38.5208M22.4637 38.5208L31.554 39.3749L22.4637 38.5208ZM42.4383 31.7513C43.947 31.151 45.6619 31.584 46.7046 32.8288L42.4383 31.7513ZM42.4383 31.7513L35.2809 34.5989M42.4383 31.7513L35.2809 34.5989M35.2809 34.5989C35.2809 34.5989 35.2809 34.5989 35.2808 34.5989M35.2809 34.5989L35.2808 34.5989M35.2808 34.5989C34.4317 34.9365 33.4831 34.9724 32.6108 34.7001L35.2808 34.5989ZM7.31477 29.7054C7.29028 29.7889 7.27714 29.8773 7.27714 29.9688C7.27714 30.0363 7.28431 30.1022 7.29794 30.1657C6.96151 30.1134 6.63755 30.0548 6.38276 29.9922C6.32957 29.9791 6.28072 29.9662 6.23639 29.9535C6.24887 29.9493 6.26177 29.9452 6.27508 29.941C6.51889 29.8639 6.84784 29.7925 7.17535 29.731C7.22216 29.7222 7.26872 29.7137 7.31477 29.7054ZM9.00031 30.9027C9.0005 30.9027 9.0007 30.9027 9.00089 30.9027H10.7895V44.436H3.25V30.9027H8.21073H9H9.00031ZM35.9713 36.3341L43.1286 33.4869L21.4703 39.1145C21.4218 39.6281 21.7993 40.0831 22.3125 40.1312L31.4027 40.9853C31.5008 40.9946 31.5984 40.9992 31.6957 40.9992C33.2085 40.9992 34.5497 39.901 34.8194 38.3855L34.5732 38.3417L34.8194 38.3855L34.8354 38.2954L34.8354 38.2953C34.9345 37.7373 34.8782 37.1833 34.6963 36.6795C35.1306 36.6131 35.5587 36.4983 35.9712 36.3342C35.9713 36.3342 35.9713 36.3342 35.9713 36.3341Z" fill="#1EAB5F" stroke="#1EAB5F" stroke-width="0.5"/>
<path d="M30.4242 17.3281C28.8317 17.2753 27.5312 16.4523 27.5312 15.6031C27.5312 15.1519 27.9297 14.4886 28.4338 14.4886C28.9908 14.4886 29.4421 15.2715 30.4242 15.444V13.2939C29.2034 12.8298 27.7705 12.2589 27.7705 10.5606C27.7705 8.87508 29.0175 8.06598 30.4242 7.86678V7.49507C30.4242 7.30922 30.6368 7.13672 30.9289 7.13672C31.181 7.13672 31.4331 7.30922 31.4331 7.49507V7.82672C32.2561 7.85342 33.8086 8.06598 33.8086 8.98135C33.8086 9.33971 33.5693 10.0692 32.9856 10.0692C32.5477 10.0692 32.2956 9.64519 31.4331 9.57843V11.516C32.6406 11.9673 34.0468 12.5905 34.0468 14.3823C34.0468 16.0277 32.9856 17.0232 31.4331 17.2753V17.6598C31.4331 17.8456 31.1805 18.0181 30.9284 18.0181C30.6368 18.0181 30.4242 17.8456 30.4242 17.6598V17.3281ZM30.5567 11.1972V9.61848C29.9596 9.73758 29.7075 10.0431 29.7075 10.3614C29.7075 10.7464 30.0525 10.9851 30.5567 11.1972ZM31.3001 13.6522V15.4306C31.7514 15.3244 32.1097 15.0723 32.1097 14.5948C32.1097 14.1564 31.7775 13.8781 31.3001 13.6522Z" fill="#1EAB5F"/>
<path d="M27.0238 1.59285L27.0238 1.59283L27.0208 1.59381C27.0006 1.60035 26.9762 1.60843 26.9504 1.61842L26.1434 1.92296L26.1424 1.92335C26.1207 1.93165 26.0981 1.94091 26.0754 1.95119L25.7549 2.09335L25.7546 2.09346C25.1111 2.37968 24.8207 3.13349 25.1071 3.77732C25.3933 4.4208 26.1477 4.71126 26.7911 4.42481L27.0786 4.29695L27.8169 4.01852L28.1694 3.90881C29.0206 3.6638 29.9054 3.54013 30.8016 3.54013C36.0394 3.54013 40.3014 7.80161 40.3014 13.0399C40.3014 18.2782 36.0394 22.5402 30.8016 22.5402C25.5633 22.5402 21.3013 18.2782 21.3013 13.0399C21.3013 10.8106 22.0887 8.64371 23.519 6.93873L23.519 6.93871C23.9714 6.39925 23.9009 5.59493 23.3612 5.142C22.8215 4.68872 22.0171 4.76014 21.5643 5.29922L21.5642 5.29933C19.749 7.46305 18.75 10.2122 18.75 13.0399C18.75 19.6854 24.156 25.0915 30.8016 25.0915C37.4472 25.0915 42.8532 19.6854 42.8532 13.0399C42.8532 6.39432 37.4472 0.988281 30.8016 0.988281C29.6638 0.988281 28.5372 1.14715 27.4528 1.46015C27.4413 1.46317 27.4309 1.46642 27.4227 1.4691L27.0238 1.59285Z" fill="#1EAB5F" stroke="#1EAB5F" stroke-width="0.5"/>
</g>
<defs>
<clipPath id="clip0_11_679">
<rect width="48" height="48" fill="white"/>
</clipPath>
</defs>
</svg>
