<svg width="22" height="18" viewBox="0 0 22 18" fill="none" xmlns="http://www.w3.org/2000/svg">
<path d="M8.3581 16.9808L8.32092 16.4822L8.3581 16.9808ZM8.32092 16.4822C8.16294 16.494 8.00327 16.5 7.84211 16.5V17.5C8.02811 17.5 8.21258 17.4931 8.39528 17.4795L8.32092 16.4822ZM7.84211 16.5C4.33946 16.5 1.5 13.6605 1.5 10.1579H0.5C0.5 14.2128 3.78717 17.5 7.84211 17.5V16.5ZM1.5 10.1579C1.5 6.65525 4.33946 3.8158 7.84211 3.8158V2.8158C3.78717 2.8158 0.5 6.10297 0.5 10.1579H1.5ZM7.84211 3.8158C10.3683 3.8158 12.5504 5.29271 13.5705 7.43238L14.4731 7.00206C13.2935 4.52753 10.7682 2.8158 7.84211 2.8158V3.8158ZM15.9474 9.07895C17.8804 9.07895 19.4474 10.646 19.4474 12.579H20.4474C20.4474 10.0937 18.4326 8.07895 15.9474 8.07895V9.07895ZM19.4474 12.579V13H20.4474V12.579H19.4474ZM19.4474 13C19.4474 14.933 17.8804 16.5 15.9474 16.5V17.5C18.4326 17.5 20.4474 15.4853 20.4474 13H19.4474ZM15.9474 16.5H8.37801V17.5H15.9474V16.5ZM8.37801 16.5C8.64884 16.5 8.86842 16.7196 8.86842 16.9904H7.86842C7.86842 17.2719 8.09659 17.5 8.37801 17.5V16.5ZM13.5705 7.43238C13.991 8.31458 14.8512 9.07895 15.9474 9.07895V8.07895C15.3485 8.07895 14.782 7.64996 14.4731 7.00206L13.5705 7.43238ZM8.39528 17.4795C8.1113 17.5006 7.86842 17.2761 7.86842 16.9904H8.86842C8.86842 16.6936 8.61604 16.4602 8.32092 16.4822L8.39528 17.4795Z" fill="white"/>
<path d="M19.4585 10.1953C19.9882 9.66553 20.3988 9.02878 20.6627 8.32762C20.9266 7.62645 21.0377 6.87702 20.9887 6.12944C20.9397 5.38186 20.7317 4.65335 20.3785 3.99263C20.0254 3.33191 19.5352 2.7542 18.9408 2.29812C18.3465 1.84205 17.6616 1.51812 16.932 1.348C16.2024 1.17788 15.4448 1.16548 14.7101 1.31164C13.9753 1.4578 13.2801 1.75914 12.6712 2.19553C12.0622 2.63191 11.5534 3.19328 11.1788 3.84209" stroke="white"/>
</svg>
