<svg width="35" height="35" viewBox="0 0 35 35" fill="none" xmlns="http://www.w3.org/2000/svg">
<g clip-path="url(#clip0_60_1836)">
<path d="M13.1738 16.8442H22.2533L17.7265 13.1367L13.1738 16.8442Z" fill="white"/>
<path d="M1.75176 19.7156L3.1141 21.375C3.35718 21.6711 3.794 21.7148 4.09102 21.4729L17.7289 10.367L30.9474 21.1931C31.2499 21.4409 31.6973 21.3906 31.9373 21.0819L33.2742 19.3626C33.5059 19.0645 33.4577 18.6361 33.1654 18.3971L18.2191 6.17183C17.9637 5.96293 17.5966 5.96218 17.3404 6.17006L1.85122 18.7339C1.55154 18.977 1.50697 19.4174 1.75176 19.7156Z" fill="white"/>
<path d="M13.0206 22.9912H7.48667C6.98143 22.9912 6.57031 23.4079 6.57031 23.9201C6.57031 24.4324 6.98143 24.8492 7.48667 24.8492H13.0206V22.9912Z" fill="white"/>
<path d="M24.8715 18.9883H10.5392L8.25781 20.8462H27.14L24.8715 18.9883Z" fill="white"/>
<path d="M6.57031 27.9231C6.57031 28.4353 6.98143 28.852 7.48667 28.852H13.0206V26.9941H7.48667C6.98143 26.9941 6.57031 27.4109 6.57031 27.9231Z" fill="white"/>
<path d="M28.0655 22.9912H21.9141V24.8492H28.0655C28.5708 24.8492 28.9819 24.4324 28.9819 23.9202C28.9819 23.408 28.5708 22.9912 28.0655 22.9912Z" fill="white"/>
<path d="M10.4168 7.88728C10.4168 7.45524 10.0666 7.10497 9.63453 7.10497L7.17879 7.08398C6.74669 7.08398 6.39648 7.43426 6.39648 7.86629V12.3288L10.4169 9.02546V7.88728H10.4168Z" fill="white"/>
<path d="M33.9275 32.8549H28.0646C28.5698 32.8549 28.981 32.4381 28.981 31.9259C28.981 31.4137 28.5699 30.997 28.0646 30.997H21.9131V32.8549H19.7682V22.9912H15.1647V32.8549H13.0197V30.997H7.48583C6.98059 30.997 6.56947 31.4137 6.56947 31.9259C6.56947 32.4381 6.98059 32.8549 7.48583 32.8549H1.07249C0.480225 32.8549 0 33.3351 0 33.9273C0 34.5197 0.480225 34.9998 1.07249 34.9998H33.9275C34.5198 34.9998 35 34.5197 35 33.9273C35 33.3351 34.5198 32.8549 33.9275 32.8549Z" fill="white"/>
<path d="M28.9819 27.9231C28.9819 27.4109 28.5708 26.9941 28.0655 26.9941H21.9141V28.852H28.0655C28.5708 28.852 28.9819 28.4353 28.9819 27.9231Z" fill="white"/>
</g>
<defs>
<clipPath id="clip0_60_1836">
<rect width="35" height="35" fill="white"/>
</clipPath>
</defs>
</svg>
