<svg width="27" height="36" viewBox="0 0 27 36" fill="none" xmlns="http://www.w3.org/2000/svg">
<path d="M3.59215 0.5H23.4078C25.0412 0.5 26.371 1.82977 26.371 3.46324V32.5368C26.371 34.1702 25.0412 35.5 23.4078 35.5H3.59215C1.95867 35.5 0.628906 34.1702 0.628906 32.5368V3.46324C0.628906 1.82977 1.95867 0.5 3.59215 0.5ZM5.93032 4.42863C5.07171 4.42863 4.37563 5.1247 4.37563 5.98331V8.06583C4.37563 8.92444 5.07171 9.62052 5.93032 9.62052H21.0695C21.9281 9.62052 22.6242 8.92444 22.6242 8.06583V5.98331C22.6242 5.1247 21.9281 4.42863 21.0695 4.42863H5.93032ZM7.3718 31.2207C8.23041 31.2207 8.92648 30.5246 8.92648 29.666V28.6667C8.92648 27.8081 8.23041 27.112 7.3718 27.112H5.93039C5.07178 27.112 4.3757 27.8081 4.3757 28.6667V29.666C4.3757 30.5246 5.07178 31.2207 5.93039 31.2207H7.3718ZM7.3718 24.979C8.23041 24.979 8.92648 24.2829 8.92648 23.4243V22.425C8.92648 21.5664 8.23041 20.8704 7.3718 20.8704H5.93039C5.07178 20.8704 4.3757 21.5664 4.3757 22.425V23.4243C4.3757 24.2829 5.07178 24.979 5.93039 24.979H7.3718ZM14.3071 31.2207C15.1657 31.2207 15.8618 30.5246 15.8618 29.666V28.6667C15.8618 27.8081 15.1657 27.112 14.3071 27.112H12.8657C12.007 27.112 11.311 27.8081 11.311 28.6667V29.666C11.311 30.5246 12.007 31.2207 12.8657 31.2207H14.3071ZM14.3071 24.979C15.1657 24.979 15.8618 24.2829 15.8618 23.4243V22.425C15.8618 21.5664 15.1657 20.8704 14.3071 20.8704H12.8657C12.007 20.8704 11.311 21.5665 11.311 22.425V23.4243C11.311 24.2829 12.007 24.979 12.8657 24.979H14.3071ZM14.3071 18.7373C15.1657 18.7373 15.8618 18.0413 15.8618 17.1826V16.1833C15.8618 15.3247 15.1657 14.6286 14.3071 14.6286H5.93032C5.07171 14.6286 4.37563 15.3247 4.37563 16.1833V17.1826C4.37563 18.0412 5.07171 18.7373 5.93032 18.7373H14.3071ZM21.2423 31.2207C22.101 31.2207 22.797 30.5246 22.797 29.666V28.6667C22.797 27.8081 22.101 27.112 21.2423 27.112H19.8009C18.9423 27.112 18.2463 27.8081 18.2463 28.6667V29.666C18.2463 30.5246 18.9423 31.2207 19.8009 31.2207H21.2423ZM21.2423 24.979C22.101 24.979 22.797 24.2829 22.797 23.4243V22.425C22.797 21.5664 22.101 20.8704 21.2423 20.8704H19.8009C18.9423 20.8704 18.2463 21.5664 18.2463 22.425V23.4243C18.2463 24.2829 18.9423 24.979 19.8009 24.979H21.2423ZM21.2423 18.7373C22.1009 18.7373 22.797 18.0413 22.797 17.1826V16.1833C22.797 15.3247 22.101 14.6286 21.2423 14.6286H19.8009C18.9423 14.6286 18.2463 15.3247 18.2463 16.1833V17.1826C18.2463 18.0412 18.9423 18.7373 19.8009 18.7373H21.2423Z" stroke="white"/>
</svg>
