<svg width="52" height="50" viewBox="0 0 52 50" fill="none" xmlns="http://www.w3.org/2000/svg">
<path d="M2.72754 21.4873C2.72754 19.6017 2.72754 18.6589 3.31333 18.0731C3.89911 17.4873 4.84192 17.4873 6.72754 17.4873H45.273C47.1586 17.4873 48.1014 17.4873 48.6872 18.0731C49.273 18.6589 49.273 19.6017 49.273 21.4873V41.5395C49.273 44.3679 49.273 45.7821 48.3943 46.6608C47.5156 47.5395 46.1014 47.5395 43.273 47.5395H8.72754C5.89911 47.5395 4.4849 47.5395 3.60622 46.6608C2.72754 45.7821 2.72754 44.3679 2.72754 41.5395V21.4873Z" stroke="#1EAB5F" stroke-width="4"/>
<path d="M37.637 14.9827V12.4609C37.637 7.74689 37.637 5.38987 36.1725 3.9254C34.7081 2.46094 32.351 2.46094 27.637 2.46094H24.3643C19.6502 2.46094 17.2932 2.46094 15.8287 3.9254C14.3643 5.38987 14.3643 7.74689 14.3643 12.4609V14.9827" stroke="#1EAB5F" stroke-width="4" stroke-linecap="round"/>
<ellipse cx="25.9998" cy="32.5136" rx="5.81818" ry="5.0087" fill="#1EAB5F"/>
</svg>
