<svg width="22" height="21" viewBox="0 0 22 21" fill="none" xmlns="http://www.w3.org/2000/svg">
<path d="M6.55556 10L6.55555 5.55556C6.55555 3.10096 8.5454 1.11111 11 1.11111V1.11111C13.4546 1.11111 15.4444 3.10096 15.4444 5.55556L15.4444 10" stroke="white" stroke-linecap="round"/>
<path d="M1.80546 10.3345C1.95053 8.59358 2.02307 7.72313 2.59716 7.19489C3.17124 6.66666 4.04471 6.66666 5.79164 6.66666H16.2084C17.9553 6.66666 18.8288 6.66666 19.4028 7.19489C19.9769 7.72313 20.0495 8.59358 20.1945 10.3345L20.8195 17.8339C20.904 18.8474 20.9462 19.3542 20.6491 19.6771C20.352 20 19.8435 20 18.8264 20H3.1736C2.15655 20 1.64802 20 1.35092 19.6771C1.05382 19.3542 1.09605 18.8474 1.18051 17.8339L1.80546 10.3345Z" stroke="white"/>
</svg>
