<svg width="50" height="50" viewBox="0 0 50 50" fill="none" xmlns="http://www.w3.org/2000/svg">
<path d="M25.6919 2.49702L46.7306 7.48398C47.1816 7.59086 47.5 7.99358 47.5 8.45701V30.9142C47.5 33.0335 46.382 34.9955 44.5588 36.0759L25.5098 47.3642C25.1955 47.5505 24.8045 47.5505 24.4902 47.3642L5.44119 36.0759C3.618 34.9955 2.5 33.0335 2.5 30.9142V8.45701C2.5 7.99358 2.81841 7.59086 3.26935 7.48398L24.3081 2.49702C24.7631 2.38917 25.2369 2.38917 25.6919 2.49702Z" stroke="#1EAB5F" stroke-width="4" stroke-linecap="round"/>
<path d="M17.5 23.667L23.3339 28.8527C23.4286 28.9369 23.5714 28.9369 23.6661 28.8527L34 19.667" stroke="#1EAB5F" stroke-width="4" stroke-linecap="round"/>
</svg>
