<svg width="48" height="48" viewBox="0 0 48 48" fill="none" xmlns="http://www.w3.org/2000/svg">
<path d="M24 0C10.7455 0 0 10.7455 0 24C0 37.2545 10.7455 48 24 48C37.2545 48 48 37.2545 48 24C48 10.7455 37.2545 0 24 0ZM24 3.69231C35.2154 3.69231 44.3077 12.7846 44.3077 24C44.3077 35.2154 35.2154 44.3077 24 44.3077C12.7846 44.3077 3.69231 35.2154 3.69231 24C3.69231 12.7846 12.7846 3.69231 24 3.69231ZM22.6154 7.38462L23.0769 11.0769H24.9231L25.3846 7.38462H22.6154ZM35.0968 11.598L25.1538 20.4952C24.7816 20.3718 24.3921 20.3085 24 20.3077C23.0207 20.3077 22.0816 20.6967 21.3891 21.3891C20.6967 22.0816 20.3077 23.0207 20.3077 24C20.3077 24.9793 20.6967 25.9184 21.3891 26.6109C22.0816 27.3033 23.0207 27.6923 24 27.6923C24.2238 27.6915 24.4471 27.6704 24.6671 27.6292L32.1382 33.8203L33.8221 32.1382L27.6292 24.6653C27.7405 24.058 27.6977 23.4326 27.5048 22.8462L36.402 12.9032L35.0968 11.598ZM7.38462 22.6154V25.3846L11.0769 24.9231V23.0769L7.38462 22.6154ZM40.6154 22.6154L36.9231 23.0769V24.9231L40.6154 25.3846V22.6154ZM23.0769 36.9231L22.6154 40.6154H25.3846L24.9231 36.9231H23.0769Z" fill="#1EAB5F"/>
</svg>
