<svg width="29" height="33" viewBox="0 0 29 33" fill="none" xmlns="http://www.w3.org/2000/svg">
<path d="M1.31055 16.2926C1.31055 13.7435 1.31055 12.469 1.8242 11.3486C2.33785 10.2283 3.30249 9.3988 5.23177 7.73985L7.10326 6.13061C10.5904 3.13208 12.334 1.63281 14.4109 1.63281C16.4878 1.63281 18.2314 3.13208 21.7186 6.13061L23.5901 7.73985C25.5194 9.3988 26.484 10.2283 26.9977 11.3486C27.5113 12.469 27.5113 13.7435 27.5113 16.2927V24.2538C27.5113 27.7939 27.5113 29.564 26.415 30.6638C25.3187 31.7636 23.5543 31.7636 20.0254 31.7636H8.79648C5.26758 31.7636 3.50313 31.7636 2.40684 30.6638C1.31055 29.564 1.31055 27.7939 1.31055 24.2538V16.2926Z" stroke="black" stroke-width="1.31004"/>
<path d="M19.0898 31.7608V21.8061C19.0898 21.0826 18.5033 20.4961 17.7798 20.4961H11.0425C10.3189 20.4961 9.73242 21.0826 9.73242 21.8061V31.7608" stroke="black" stroke-width="1.31004" stroke-linecap="round" stroke-linejoin="round"/>
</svg>
