<svg width="26" height="26" viewBox="0 0 26 26" fill="none" xmlns="http://www.w3.org/2000/svg">
<circle cx="12.8333" cy="13" r="12.5" fill="#FD2424"/>
<path fill-rule="evenodd" clip-rule="evenodd" d="M5.62615 7.79289C5.33325 8.08579 5.33325 8.55719 5.33325 9.5V17.1667C5.33325 18.1095 5.33325 18.5809 5.62615 18.8738C5.91904 19.1667 6.39044 19.1667 7.33325 19.1667H18.3333C19.2761 19.1667 19.7475 19.1667 20.0404 18.8738C20.3333 18.5809 20.3333 18.1095 20.3333 17.1667V9.5C20.3333 8.55719 20.3333 8.08579 20.0404 7.79289C19.7475 7.5 19.2761 7.5 18.3333 7.5H7.33325C6.39044 7.5 5.91904 7.5 5.62615 7.79289ZM8.1106 10.4173C7.88084 10.2641 7.5704 10.3262 7.41723 10.556C7.26405 10.7857 7.32614 11.0962 7.5559 11.2494L12.0012 14.2129C12.5051 14.5488 13.1615 14.5488 13.6653 14.2129L18.1106 11.2494C18.3404 11.0962 18.4025 10.7857 18.2493 10.556C18.0961 10.3262 17.7857 10.2641 17.5559 10.4173L13.1106 13.3808C12.9427 13.4928 12.7239 13.4928 12.5559 13.3808L8.1106 10.4173Z" fill="white"/>
</svg>
