<svg width="203" height="73" viewBox="0 0 203 73" fill="none" xmlns="http://www.w3.org/2000/svg">
<path d="M12 23V70H202" stroke="url(#paint0_linear_60_1690)" stroke-width="5"/>
<path d="M66 22.75L40.3448 4L4 29" stroke="#E7B97E" stroke-width="5" stroke-linecap="square"/>
<path d="M35.5938 43.2207V45.8271H22.5117V43.2207H35.5938ZM23.0098 32.8281V57H19.8057V32.8281H23.0098ZM38.3828 32.8281V57H35.1953V32.8281H38.3828ZM42.7988 48.2178V47.8359C42.7988 46.541 42.987 45.3402 43.3633 44.2334C43.7396 43.1156 44.2819 42.1471 44.9902 41.3281C45.6986 40.498 46.5563 39.8561 47.5635 39.4023C48.5706 38.9375 49.6995 38.7051 50.9502 38.7051C52.2119 38.7051 53.3464 38.9375 54.3535 39.4023C55.3717 39.8561 56.235 40.498 56.9434 41.3281C57.6628 42.1471 58.2106 43.1156 58.5869 44.2334C58.9632 45.3402 59.1514 46.541 59.1514 47.8359V48.2178C59.1514 49.5127 58.9632 50.7135 58.5869 51.8203C58.2106 52.9271 57.6628 53.8955 56.9434 54.7256C56.235 55.5446 55.3773 56.1865 54.3701 56.6514C53.374 57.1051 52.2451 57.332 50.9834 57.332C49.7217 57.332 48.5872 57.1051 47.5801 56.6514C46.5729 56.1865 45.7096 55.5446 44.9902 54.7256C44.2819 53.8955 43.7396 52.9271 43.3633 51.8203C42.987 50.7135 42.7988 49.5127 42.7988 48.2178ZM45.8701 47.8359V48.2178C45.8701 49.1143 45.9753 49.9609 46.1855 50.7578C46.3958 51.5436 46.7113 52.2409 47.1318 52.8496C47.5635 53.4583 48.1003 53.9398 48.7422 54.2939C49.3841 54.637 50.1312 54.8086 50.9834 54.8086C51.8245 54.8086 52.5605 54.637 53.1914 54.2939C53.8333 53.9398 54.3646 53.4583 54.7852 52.8496C55.2057 52.2409 55.5212 51.5436 55.7314 50.7578C55.9528 49.9609 56.0635 49.1143 56.0635 48.2178V47.8359C56.0635 46.9505 55.9528 46.1149 55.7314 45.3291C55.5212 44.5322 55.2002 43.8294 54.7686 43.2207C54.348 42.6009 53.8167 42.1139 53.1748 41.7598C52.5439 41.4056 51.8024 41.2285 50.9502 41.2285C50.109 41.2285 49.3675 41.4056 48.7256 41.7598C48.0947 42.1139 47.5635 42.6009 47.1318 43.2207C46.7113 43.8294 46.3958 44.5322 46.1855 45.3291C45.9753 46.1149 45.8701 46.9505 45.8701 47.8359ZM73.9932 52.8496V39.0371H77.0811V57H74.1426L73.9932 52.8496ZM74.5742 49.0645L75.8525 49.0312C75.8525 50.2266 75.7253 51.3333 75.4707 52.3516C75.2272 53.3587 74.8288 54.2331 74.2754 54.9746C73.722 55.7161 72.9971 56.2972 72.1006 56.7178C71.2041 57.1273 70.1139 57.332 68.8301 57.332C67.9557 57.332 67.1533 57.2048 66.4229 56.9502C65.7035 56.6956 65.0837 56.3027 64.5635 55.7715C64.0433 55.2402 63.6393 54.5485 63.3516 53.6963C63.0749 52.8441 62.9365 51.8203 62.9365 50.625V39.0371H66.0078V50.6582C66.0078 51.4661 66.0964 52.1357 66.2734 52.667C66.4616 53.1872 66.7106 53.6022 67.0205 53.9121C67.3415 54.2109 67.6956 54.4212 68.083 54.543C68.4814 54.6647 68.891 54.7256 69.3115 54.7256C70.6175 54.7256 71.6523 54.4766 72.416 53.9785C73.1797 53.4694 73.7275 52.7887 74.0596 51.9365C74.4027 51.0732 74.5742 50.1159 74.5742 49.0645ZM92.2217 52.2354C92.2217 51.7926 92.1221 51.3831 91.9229 51.0068C91.7347 50.6195 91.3418 50.2708 90.7441 49.9609C90.1576 49.64 89.2721 49.3633 88.0879 49.1309C87.0918 48.9206 86.1898 48.6715 85.3818 48.3838C84.585 48.096 83.9043 47.7474 83.3398 47.3379C82.7865 46.9284 82.3604 46.4469 82.0615 45.8936C81.7627 45.3402 81.6133 44.6927 81.6133 43.9512C81.6133 43.2428 81.7682 42.5732 82.0781 41.9424C82.3991 41.3115 82.8473 40.7526 83.4229 40.2656C84.0094 39.7786 84.7122 39.3968 85.5312 39.1201C86.3503 38.8434 87.2633 38.7051 88.2705 38.7051C89.7093 38.7051 90.9378 38.9596 91.9561 39.4688C92.9743 39.9779 93.7546 40.6585 94.2969 41.5107C94.8392 42.3519 95.1104 43.2871 95.1104 44.3164H92.0391C92.0391 43.8184 91.8896 43.3369 91.5908 42.8721C91.3031 42.3962 90.877 42.0033 90.3125 41.6934C89.7591 41.3835 89.0785 41.2285 88.2705 41.2285C87.4183 41.2285 86.7266 41.3613 86.1953 41.627C85.6751 41.8815 85.2933 42.208 85.0498 42.6064C84.8174 43.0049 84.7012 43.4255 84.7012 43.8682C84.7012 44.2002 84.7565 44.499 84.8672 44.7646C84.9889 45.0192 85.1992 45.2572 85.498 45.4785C85.7969 45.6888 86.2174 45.888 86.7598 46.0762C87.3021 46.2643 87.9938 46.4525 88.835 46.6406C90.307 46.9727 91.5189 47.3711 92.4707 47.8359C93.4225 48.3008 94.1309 48.8708 94.5957 49.5459C95.0605 50.221 95.293 51.04 95.293 52.0029C95.293 52.7887 95.127 53.5081 94.7949 54.1611C94.474 54.8141 94.0036 55.3786 93.3838 55.8545C92.7751 56.3193 92.0446 56.6846 91.1924 56.9502C90.3512 57.2048 89.4049 57.332 88.3535 57.332C86.7708 57.332 85.4316 57.0498 84.3359 56.4854C83.2402 55.9209 82.4102 55.1904 81.8457 54.2939C81.2812 53.3975 80.999 52.4512 80.999 51.4551H84.0869C84.1312 52.2962 84.3747 52.9658 84.8174 53.4639C85.2601 53.9508 85.8024 54.2995 86.4443 54.5098C87.0863 54.709 87.7227 54.8086 88.3535 54.8086C89.1947 54.8086 89.8975 54.6979 90.4619 54.4766C91.0374 54.2552 91.4746 53.9508 91.7734 53.5635C92.0723 53.1761 92.2217 52.7334 92.2217 52.2354ZM106.781 57.332C105.531 57.332 104.396 57.1217 103.378 56.7012C102.371 56.2695 101.502 55.6663 100.771 54.8916C100.052 54.1169 99.4987 53.1982 99.1113 52.1357C98.724 51.0732 98.5303 49.9111 98.5303 48.6494V47.9521C98.5303 46.4912 98.7461 45.1908 99.1777 44.0508C99.6094 42.8997 100.196 41.9258 100.938 41.1289C101.679 40.332 102.52 39.7288 103.461 39.3193C104.402 38.9098 105.376 38.7051 106.383 38.7051C107.667 38.7051 108.773 38.9264 109.703 39.3691C110.644 39.8118 111.413 40.4316 112.011 41.2285C112.608 42.0143 113.051 42.944 113.339 44.0176C113.627 45.0801 113.771 46.2422 113.771 47.5039V48.8818H100.356V46.375H110.699V46.1426C110.655 45.3457 110.489 44.571 110.201 43.8184C109.924 43.0658 109.482 42.446 108.873 41.959C108.264 41.472 107.434 41.2285 106.383 41.2285C105.686 41.2285 105.044 41.3779 104.457 41.6768C103.87 41.9645 103.367 42.3962 102.946 42.9717C102.526 43.5472 102.199 44.25 101.967 45.0801C101.734 45.9102 101.618 46.8675 101.618 47.9521V48.6494C101.618 49.5016 101.734 50.304 101.967 51.0566C102.21 51.7982 102.559 52.4512 103.013 53.0156C103.478 53.5801 104.036 54.0228 104.689 54.3438C105.354 54.6647 106.106 54.8252 106.947 54.8252C108.032 54.8252 108.951 54.6038 109.703 54.1611C110.456 53.7184 111.114 53.1263 111.679 52.3848L113.538 53.8623C113.151 54.4489 112.658 55.0078 112.061 55.5391C111.463 56.0703 110.727 56.502 109.853 56.834C108.989 57.166 107.965 57.332 106.781 57.332ZM123.748 45.4619V47.9854H115.646V45.4619H123.748ZM140.101 50.8906C140.101 50.3262 140.012 49.8281 139.835 49.3965C139.669 48.9538 139.37 48.5553 138.938 48.2012C138.518 47.847 137.931 47.5094 137.179 47.1885C136.437 46.8675 135.496 46.541 134.356 46.209C133.161 45.8548 132.082 45.4619 131.119 45.0303C130.156 44.5876 129.332 44.084 128.646 43.5195C127.959 42.9551 127.434 42.3076 127.068 41.5771C126.703 40.8467 126.521 40.0111 126.521 39.0703C126.521 38.1296 126.714 37.2607 127.102 36.4639C127.489 35.667 128.042 34.9753 128.762 34.3887C129.492 33.791 130.361 33.3262 131.368 32.9941C132.375 32.6621 133.499 32.4961 134.738 32.4961C136.553 32.4961 138.092 32.8447 139.354 33.542C140.626 34.2282 141.595 35.1302 142.259 36.248C142.923 37.3548 143.255 38.5391 143.255 39.8008H140.067C140.067 38.8932 139.874 38.0908 139.486 37.3936C139.099 36.6852 138.512 36.1318 137.727 35.7334C136.941 35.3239 135.945 35.1191 134.738 35.1191C133.598 35.1191 132.658 35.2907 131.916 35.6338C131.174 35.9769 130.621 36.4417 130.256 37.0283C129.902 37.6149 129.725 38.2845 129.725 39.0371C129.725 39.5462 129.83 40.0111 130.04 40.4316C130.261 40.8411 130.599 41.223 131.053 41.5771C131.518 41.9313 132.104 42.2578 132.812 42.5566C133.532 42.8555 134.39 43.1432 135.386 43.4199C136.758 43.8073 137.942 44.2389 138.938 44.7148C139.935 45.1908 140.754 45.7275 141.396 46.3252C142.049 46.9118 142.53 47.5814 142.84 48.334C143.161 49.0755 143.321 49.9167 143.321 50.8574C143.321 51.8424 143.122 52.7334 142.724 53.5303C142.325 54.3271 141.755 55.0078 141.014 55.5723C140.272 56.1367 139.381 56.5739 138.341 56.8838C137.312 57.1826 136.16 57.332 134.888 57.332C133.77 57.332 132.669 57.1771 131.584 56.8672C130.51 56.5573 129.531 56.0924 128.646 55.4727C127.771 54.8529 127.068 54.0892 126.537 53.1816C126.017 52.263 125.757 51.2005 125.757 49.9941H128.944C128.944 50.8242 129.105 51.5381 129.426 52.1357C129.747 52.7223 130.184 53.2093 130.737 53.5967C131.302 53.984 131.938 54.2718 132.646 54.46C133.366 54.637 134.113 54.7256 134.888 54.7256C136.006 54.7256 136.952 54.5706 137.727 54.2607C138.501 53.9508 139.088 53.5081 139.486 52.9326C139.896 52.3571 140.101 51.6764 140.101 50.8906ZM154.461 39.0371V41.3945H144.749V39.0371H154.461ZM148.036 34.6709H151.107V52.5508C151.107 53.1595 151.201 53.6188 151.39 53.9287C151.578 54.2386 151.821 54.4434 152.12 54.543C152.419 54.6426 152.74 54.6924 153.083 54.6924C153.338 54.6924 153.603 54.6702 153.88 54.626C154.168 54.5706 154.383 54.5264 154.527 54.4932L154.544 57C154.3 57.0775 153.979 57.1494 153.581 57.2158C153.194 57.2933 152.723 57.332 152.17 57.332C151.417 57.332 150.726 57.1826 150.095 56.8838C149.464 56.585 148.96 56.0869 148.584 55.3896C148.219 54.6813 148.036 53.7295 148.036 52.5342V34.6709ZM156.918 48.2178V47.8359C156.918 46.541 157.106 45.3402 157.482 44.2334C157.859 43.1156 158.401 42.1471 159.109 41.3281C159.818 40.498 160.675 39.8561 161.683 39.4023C162.69 38.9375 163.819 38.7051 165.069 38.7051C166.331 38.7051 167.465 38.9375 168.473 39.4023C169.491 39.8561 170.354 40.498 171.062 41.3281C171.782 42.1471 172.33 43.1156 172.706 44.2334C173.082 45.3402 173.271 46.541 173.271 47.8359V48.2178C173.271 49.5127 173.082 50.7135 172.706 51.8203C172.33 52.9271 171.782 53.8955 171.062 54.7256C170.354 55.5446 169.496 56.1865 168.489 56.6514C167.493 57.1051 166.364 57.332 165.103 57.332C163.841 57.332 162.706 57.1051 161.699 56.6514C160.692 56.1865 159.829 55.5446 159.109 54.7256C158.401 53.8955 157.859 52.9271 157.482 51.8203C157.106 50.7135 156.918 49.5127 156.918 48.2178ZM159.989 47.8359V48.2178C159.989 49.1143 160.094 49.9609 160.305 50.7578C160.515 51.5436 160.83 52.2409 161.251 52.8496C161.683 53.4583 162.219 53.9398 162.861 54.2939C163.503 54.637 164.25 54.8086 165.103 54.8086C165.944 54.8086 166.68 54.637 167.311 54.2939C167.952 53.9398 168.484 53.4583 168.904 52.8496C169.325 52.2409 169.64 51.5436 169.851 50.7578C170.072 49.9609 170.183 49.1143 170.183 48.2178V47.8359C170.183 46.9505 170.072 46.1149 169.851 45.3291C169.64 44.5322 169.319 43.8294 168.888 43.2207C168.467 42.6009 167.936 42.1139 167.294 41.7598C166.663 41.4056 165.922 41.2285 165.069 41.2285C164.228 41.2285 163.487 41.4056 162.845 41.7598C162.214 42.1139 161.683 42.6009 161.251 43.2207C160.83 43.8294 160.515 44.5322 160.305 45.3291C160.094 46.1149 159.989 46.9505 159.989 47.8359ZM180.193 41.8594V57H177.122V39.0371H180.11L180.193 41.8594ZM185.805 38.9375L185.788 41.793C185.534 41.7376 185.29 41.7044 185.058 41.6934C184.836 41.6712 184.582 41.6602 184.294 41.6602C183.586 41.6602 182.96 41.7708 182.418 41.9922C181.876 42.2135 181.416 42.5234 181.04 42.9219C180.664 43.3203 180.365 43.7962 180.144 44.3496C179.933 44.8919 179.795 45.4896 179.729 46.1426L178.865 46.6406C178.865 45.556 178.97 44.5378 179.181 43.5859C179.402 42.6341 179.74 41.793 180.193 41.0625C180.647 40.321 181.223 39.7454 181.92 39.3359C182.628 38.9154 183.469 38.7051 184.443 38.7051C184.665 38.7051 184.919 38.7327 185.207 38.7881C185.495 38.8324 185.694 38.8822 185.805 38.9375ZM193.989 55.1406L198.986 39.0371H202.273L195.068 59.7725C194.902 60.2152 194.681 60.6911 194.404 61.2002C194.139 61.7204 193.796 62.2129 193.375 62.6777C192.954 63.1426 192.445 63.5189 191.848 63.8066C191.261 64.1055 190.558 64.2549 189.739 64.2549C189.496 64.2549 189.186 64.2217 188.81 64.1553C188.433 64.0889 188.168 64.0335 188.013 63.9893L187.996 61.499C188.085 61.5101 188.223 61.5212 188.411 61.5322C188.61 61.5544 188.749 61.5654 188.826 61.5654C189.523 61.5654 190.116 61.4714 190.603 61.2832C191.09 61.1061 191.499 60.8018 191.831 60.3701C192.174 59.9495 192.467 59.3685 192.711 58.627L193.989 55.1406ZM190.32 39.0371L194.985 52.9824L195.782 56.2197L193.574 57.3486L186.967 39.0371H190.32Z" fill="url(#paint1_linear_60_1690)"/>
<defs>
<linearGradient id="paint0_linear_60_1690" x1="12" y1="31" x2="211.463" y2="48.4992" gradientUnits="userSpaceOnUse">
<stop offset="0.0796187" stop-color="#E7B97E"/>
<stop offset="0.993526" stop-color="#1EAB5F"/>
</linearGradient>
<linearGradient id="paint1_linear_60_1690" x1="17" y1="31.8085" x2="211.783" y2="51.4649" gradientUnits="userSpaceOnUse">
<stop stop-color="#E7B97E"/>
<stop offset="1" stop-color="#1EAB5F"/>
</linearGradient>
</defs>
</svg>
