<svg width="70" height="56" viewBox="0 0 70 56" fill="none" xmlns="http://www.w3.org/2000/svg">
<path d="M67.2656 47.378V21.739L67.6763 22.1411C68.2161 22.6695 69.0818 22.6601 69.6098 22.1207C70.1379 21.5811 70.1289 20.7155 69.5894 20.1872C69.5723 20.1706 50.8997 1.8858 50.0387 1.04662C49.507 0.526128 48.6571 0.526128 48.1257 1.04662L40.1458 8.85941H30.4883V6.12503H31.8555C32.6104 6.12503 33.2227 5.51281 33.2227 4.75785C33.2227 4.00289 32.6104 3.39066 31.8555 3.39066H18.1836C17.4286 3.39066 16.8164 4.00289 16.8164 4.75785C16.8164 5.51281 17.4286 6.12503 18.1836 6.12503H19.5508V8.85941H6.83594C6.31805 8.85941 5.84473 9.15199 5.61312 9.61519L0.144375 20.5527C-0.0675391 20.9765 -0.0448438 21.4798 0.204258 21.8828C0.453223 22.2859 0.89332 22.5313 1.36719 22.5313H5.46875V43.0407C4.07682 44.0881 3.13373 45.6331 2.83555 47.3405C1.19164 47.8753 0 49.4222 0 51.2422C0 53.5038 1.83996 55.3438 4.10156 55.3438H28.8477C29.6026 55.3438 30.2148 54.7316 30.2148 53.9766C30.2148 53.2216 29.6026 52.6094 28.8477 52.6094H21.6398C21.7916 52.1815 21.875 51.7216 21.875 51.2422C21.875 50.7628 21.7908 50.3031 21.6389 49.8737H48.361C48.2092 50.3031 48.125 50.7629 48.125 51.2422C48.125 51.7216 48.2084 52.1815 48.3602 52.6094H41.1523C40.3974 52.6094 39.7852 53.2216 39.7852 53.9766C39.7852 54.7316 40.3974 55.3438 41.1523 55.3438H65.8984C68.16 55.3438 70 53.5038 70 51.2422C70 49.4601 68.8565 47.9425 67.2656 47.378ZM49.082 3.93685L64.5312 19.0619V43.0443C63.3877 42.1838 61.9678 41.6719 60.4297 41.6719C58.2783 41.6719 56.2725 42.6991 54.9907 44.4064C54.9809 44.4063 54.9709 44.4063 54.9609 44.4063C53.1791 44.4063 51.6618 45.5499 51.0971 47.1407H33.6328V19.062L49.082 3.93685ZM22.2852 6.12503H27.7539V8.85941H22.2852V6.12503ZM7.681 11.5924H37.3528C36.6516 12.2804 29.2774 19.4993 28.9734 19.7969H3.57943L7.681 11.5924ZM29.5312 22.5313C29.8888 22.5313 30.2322 22.3913 30.4877 22.1411L30.8984 21.739V47.1407H18.9029C18.3382 45.5499 16.8209 44.4063 15.0391 44.4063C15.0291 44.4063 15.0191 44.4063 15.0093 44.4064C13.7275 42.6991 11.7217 41.6719 9.57031 41.6719C9.10957 41.6719 8.65156 41.7195 8.20312 41.811V22.5313H29.5312ZM19.1406 51.2422C19.1406 51.9961 18.5273 52.6094 17.7734 52.6094H4.10156C3.3477 52.6094 2.73438 51.9961 2.73438 51.2422C2.73438 50.4884 3.3477 49.875 4.10156 49.875C4.85652 49.875 5.46875 49.2628 5.46875 48.5079C5.46875 46.2811 7.27125 44.4063 9.57031 44.4063C11.0566 44.4063 12.4299 45.2334 13.1545 46.5649C13.7415 47.6437 14.9306 47.1606 15.0518 47.1407C15.7999 47.1476 16.4062 47.7582 16.4062 48.5079C16.4062 49.2628 17.0185 49.875 17.7734 49.875C18.5273 49.875 19.1406 50.4885 19.1406 51.2422ZM65.8984 52.6094H52.2266C51.4727 52.6094 50.8594 51.9961 50.8594 51.2422C50.8594 50.4884 51.4727 49.875 52.2266 49.875C52.9815 49.875 53.5938 49.2628 53.5938 48.5079C53.5938 47.7582 54.2002 47.1476 54.9482 47.1407C55.0558 47.1584 56.255 47.6497 56.8455 46.5649C57.5701 45.2334 58.9434 44.4063 60.4297 44.4063C62.6913 44.4063 64.5312 46.2463 64.5312 48.5079C64.5312 49.2628 65.1435 49.875 65.8984 49.875C66.6523 49.875 67.2656 50.4884 67.2656 51.2422C67.2656 51.9961 66.6523 52.6094 65.8984 52.6094Z" fill="#1EAB5F"/>
<path d="M12.3047 41.6719H26.7969C27.5518 41.6719 28.1641 41.0596 28.1641 40.3047V29.3672C28.1641 28.6122 27.5518 28 26.7969 28H12.3047C11.5497 28 10.9375 28.6122 10.9375 29.3672V40.3047C10.9375 41.0598 11.5497 41.6719 12.3047 41.6719ZM13.6719 36.2031H18.1836V38.9375H13.6719V36.2031ZM20.918 38.9375V36.2031H25.4297V38.9375H20.918ZM25.4297 33.4688H20.918V30.7344H25.4297V33.4688ZM18.1836 30.7344V33.4688H13.6719V30.7344H18.1836Z" fill="#1EAB5F"/>
<path d="M49.082 17.0625C51.3436 17.0625 53.1836 15.2225 53.1836 12.9609C53.1836 10.6993 51.3436 8.85938 49.082 8.85938C46.8204 8.85938 44.9805 10.6993 44.9805 12.9609C44.9805 15.2225 46.8204 17.0625 49.082 17.0625ZM49.082 11.5938C49.8359 11.5938 50.4492 12.2071 50.4492 12.9609C50.4492 13.7148 49.8359 14.3281 49.082 14.3281C48.3282 14.3281 47.7148 13.7148 47.7148 12.9609C47.7148 12.2071 48.3282 11.5938 49.082 11.5938Z" fill="#1EAB5F"/>
<path d="M37.7344 38.9375H43.2031C43.9581 38.9375 44.5703 38.3253 44.5703 37.5703V33.4688H53.5938V37.5703C53.5938 38.3253 54.206 38.9375 54.9609 38.9375H60.4297C61.1846 38.9375 61.7969 38.3253 61.7969 37.5703V26.6328C61.7969 25.8779 61.1846 25.2656 60.4297 25.2656H54.9609C54.206 25.2656 53.5938 25.8779 53.5938 26.6328V30.7344H44.5703V26.6328C44.5703 25.8779 43.9581 25.2656 43.2031 25.2656H37.7344C36.9794 25.2656 36.3672 25.8779 36.3672 26.6328V37.5703C36.3672 38.3254 36.9794 38.9375 37.7344 38.9375ZM56.3281 28H59.0625V36.2031H56.3281V28ZM39.1016 28H41.8359V36.2031H39.1016V28Z" fill="#1EAB5F"/>
<path d="M35 55.3438C35.7551 55.3438 36.3672 54.7316 36.3672 53.9766C36.3672 53.2215 35.7551 52.6094 35 52.6094C34.2449 52.6094 33.6328 53.2215 33.6328 53.9766C33.6328 54.7316 34.2449 55.3438 35 55.3438Z" fill="#1EAB5F"/>
</svg>
