<svg width="109" height="210" viewBox="0 0 109 210" fill="none" xmlns="http://www.w3.org/2000/svg">
<path fill-rule="evenodd" clip-rule="evenodd" d="M101.018 188.501L99.1384 188.174L98.0759 188.174L96.9317 188.338L93.9894 188.583L93.1721 188.665L92.2731 188.665L90.3933 188.828L88.35 188.91L87.2058 188.992L86.6337 188.992L86.0616 188.992L83.6914 188.992L83.1193 188.992L82.4655 188.992L81.2395 188.91L79.8501 188.91L78.5425 188.828L77.153 188.665L75.7636 188.583L72.8214 188.256L69.7974 187.766L63.4224 186.376C59.0907 185.231 54.5956 183.678 50.1004 181.553L48.3841 180.736L46.6678 179.836L45.0332 178.937L43.3169 177.875L41.6823 176.894L40.0477 175.749L36.7785 173.379L35.1439 172.152L33.591 170.763L30.4853 168.065L29.0141 166.512L27.543 165.041L26.0718 163.406L25.418 162.588L24.7642 161.771L23.293 160.054L21.8219 158.174L21.0863 157.112L20.3507 156.049L19.6152 154.905L19.2065 154.332L18.8796 153.76L17.3267 151.308L15.8556 148.692L15.5287 147.956L15.2018 147.302L14.4662 145.831L13.8124 144.441L13.1585 142.888L12.8316 142.152L12.5047 141.335L11.9326 139.7L11.6056 138.883L11.2787 138.065L10.7883 136.349L8.90856 129.155C7.9278 124.169 7.27396 118.856 7.1105 113.215L7.02877 112.234L7.02877 111.172L7.02877 109.046L7.02877 106.839L7.19223 104.714L7.27396 102.507L7.27396 102.016L7.35569 101.444L7.43742 100.3L7.68261 98.0926L7.76434 97.0299L7.9278 95.8855L8.25472 93.6784L8.41818 92.6157L8.49991 92.0435L8.58164 91.4713L9.39894 87.0572L10.4614 82.643L10.5432 82.0708L10.7066 81.4986L11.0335 80.4359L11.6874 78.2288C13.4854 72.3433 15.6921 66.5395 18.471 60.9809C21.168 55.4223 24.3555 50.109 27.8699 45.2043L30.6487 41.5259L33.5093 38.0926L34.9804 36.376L36.5333 34.7411L39.5573 31.5531L41.1102 30L42.7448 28.6103L46.0139 25.7493L47.5668 24.3597L48.3841 23.7057L48.7928 23.3787L49.2014 23.0518L52.5523 20.5994C56.9658 17.4114 61.4609 14.6321 65.7926 12.3433L66.6099 11.9346L67.4272 11.5259L69.0618 10.7084L70.6964 9.891L72.2493 9.15531L75.355 7.84741L78.379 6.62125L79.8501 6.04905L80.2588 5.88556L80.5857 5.80381L81.3213 5.55858L84.1001 4.57766L84.8357 4.33243L85.1626 4.25068L85.4895 4.16894L86.7972 3.76022L89.3308 3.02453L97.9125 1.14442L103.47 0.245236L105.432 4.60856e-06L103.47 0.163492L97.9125 0.735699L89.1674 2.28883L86.552 2.86104L85.2443 3.18801L84.8357 3.3515L84.5087 3.43324L83.8549 3.59673L80.9944 4.41417L80.1771 4.6594L79.8501 4.74114L79.4415 4.90463L77.9704 5.3951L74.7829 6.45776L71.6771 7.68392L69.9608 8.33787L68.3262 9.07357L66.6916 9.80926L65.7926 10.218L64.9753 10.545C60.3984 12.752 55.7398 15.3678 50.9995 18.3924L47.5668 20.7629L47.0764 21.0899L46.6678 21.4169L45.7688 22.0708L44.0524 23.3787L40.6198 26.158L38.9034 27.5477L37.1871 29.1008L33.9179 32.2071L32.2833 33.8419L30.6487 35.5586L27.543 38.9918L24.6007 42.6703C20.6777 47.6566 17.0816 53.0517 14.0575 58.6921C10.9518 64.4141 8.33645 70.3814 6.21147 76.4305L5.4759 78.7193L5.06725 79.8637L4.90379 80.4359L4.74033 81.0899L3.43265 85.6675L2.37016 90.3269L2.28843 90.8991L2.12497 91.4713L1.96151 92.6975L1.55286 94.9863L1.30767 96.1307L1.14421 97.3569L0.899025 99.6457L0.735565 100.79L0.653835 101.362L0.572105 101.935L0.408645 104.305L0.163455 106.594L0.0817252 108.883L-4.85589e-06 111.09L-4.90592e-06 112.234L-4.95594e-06 113.379C-5.21678e-06 119.346 0.490374 125.15 1.47113 130.627L3.26919 138.556L3.75957 140.436L4.08649 141.417L4.41341 142.316L4.98552 144.114L5.31244 145.014L5.72109 145.913L6.37493 147.548L7.1105 149.264L7.84607 150.899L8.25472 151.717L8.58164 152.452L10.1345 155.395L11.7691 158.174L12.1778 158.828L12.5864 159.482L13.4037 160.708L14.221 161.935L15.0383 163.079L16.6729 165.286L18.2258 167.166L18.9613 168.147L19.7786 168.964L21.4132 170.763L23.0478 172.479L24.7642 174.114L28.1968 177.221L29.9949 178.61L31.8747 180L35.4708 182.534L37.3506 183.76L39.2304 184.905L41.1919 185.885L43.0717 186.866L45.0332 187.766L46.913 188.665C52.062 190.79 57.1292 192.261 61.9513 193.161L68.8983 194.142L72.2492 194.387L75.4367 194.469L76.9079 194.469L78.4607 194.469L79.9319 194.387L81.3213 194.223L82.7107 194.142L83.3645 194.06L84.0184 193.978L86.552 193.651L87.1241 193.569L87.6962 193.488L88.8404 193.242L90.9654 192.834L92.9269 192.261L93.8259 192.098L94.6432 191.771L97.5855 190.79L98.648 190.218L99.547 189.809L101.018 188.501Z" fill="#898989"/>
<path fill-rule="evenodd" clip-rule="evenodd" d="M108.864 186.949L97.7492 198.475L86.5522 210L93.4993 189.973L79.5234 174.033L94.2348 180.491L108.864 186.949Z" fill="#898989"/>
</svg>
