<svg width="35" height="29" viewBox="0 0 35 29" fill="none" xmlns="http://www.w3.org/2000/svg">
<path d="M13.1738 10.8442H22.2533L17.7265 7.13672L13.1738 10.8442Z" fill="white"/>
<path d="M1.75176 13.7156L3.1141 15.375C3.35718 15.6711 3.794 15.7148 4.09102 15.4729L17.7289 4.36698L30.9474 15.1931C31.2499 15.4409 31.6973 15.3906 31.9373 15.0819L33.2742 13.3626C33.5059 13.0645 33.4577 12.6361 33.1654 12.3971L18.2191 0.171834C17.9637 -0.0370725 17.5966 -0.0378245 17.3404 0.170056L1.85122 12.7339C1.55154 12.977 1.50697 13.4174 1.75176 13.7156V13.7156Z" fill="white"/>
<path d="M13.0206 16.9912H7.48667C6.98143 16.9912 6.57031 17.4079 6.57031 17.9201C6.57031 18.4324 6.98143 18.8492 7.48667 18.8492H13.0206V16.9912Z" fill="white"/>
<path d="M24.8715 12.9883H10.5392L8.25781 14.8462H27.14L24.8715 12.9883Z" fill="white"/>
<path d="M6.57031 21.9231C6.57031 22.4353 6.98143 22.852 7.48667 22.852H13.0206V20.9941H7.48667C6.98143 20.9941 6.57031 21.4109 6.57031 21.9231V21.9231Z" fill="white"/>
<path d="M28.0655 16.9912H21.9141V18.8492H28.0655C28.5708 18.8492 28.9819 18.4324 28.9819 17.9202C28.9819 17.408 28.5708 16.9912 28.0655 16.9912V16.9912Z" fill="white"/>
<path d="M10.4168 1.88728C10.4168 1.45524 10.0666 1.10497 9.63453 1.10497L7.17879 1.08398C6.74669 1.08398 6.39648 1.43426 6.39648 1.86629V6.32879L10.4169 3.02546V1.88728H10.4168Z" fill="white"/>
<path d="M33.9275 26.8549H28.0646C28.5698 26.8549 28.981 26.4381 28.981 25.9259C28.981 25.4137 28.5699 24.997 28.0646 24.997H21.9131V26.8549H19.7682V16.9912H15.1647V26.8549H13.0197V24.997H7.48583C6.98059 24.997 6.56947 25.4137 6.56947 25.9259C6.56947 26.4381 6.98059 26.8549 7.48583 26.8549H1.07249C0.480225 26.8549 0 27.3351 0 27.9273C0 28.5197 0.480225 28.9998 1.07249 28.9998H33.9275C34.5198 28.9998 35 28.5197 35 27.9273C35 27.3351 34.5198 26.8549 33.9275 26.8549Z" fill="white"/>
<path d="M28.9819 21.9231C28.9819 21.4109 28.5708 20.9941 28.0655 20.9941H21.9141V22.852H28.0655C28.5708 22.852 28.9819 22.4353 28.9819 21.9231V21.9231Z" fill="white"/>
</svg>
