<svg width="22" height="25" viewBox="0 0 22 25" fill="none" xmlns="http://www.w3.org/2000/svg">
<path d="M1 12.1904C1 10.2446 1 9.27163 1.39209 8.41643C1.78418 7.56123 2.52052 6.92806 3.99322 5.66173L5.42179 4.43333C8.08367 2.14444 9.41461 1 11 1C12.5854 1 13.9163 2.14444 16.5782 4.43333L18.0068 5.66173C19.4795 6.92806 20.2158 7.56123 20.6079 8.41643C21 9.27163 21 10.2446 21 12.1904V18.2674C21 20.9697 21 22.3209 20.1632 23.1604C19.3263 23.9999 17.9795 23.9999 15.2857 23.9999H6.71429C4.02055 23.9999 2.67368 23.9999 1.83684 23.1604C1 22.3209 1 20.9697 1 18.2674V12.1904Z" stroke="white"/>
<path d="M14.5714 24V16.4012C14.5714 15.849 14.1237 15.4012 13.5714 15.4012H8.42857C7.87629 15.4012 7.42857 15.849 7.42857 16.4012V24" stroke="white" stroke-linecap="round" stroke-linejoin="round"/>
</svg>
