<svg width="70" height="70" viewBox="0 0 70 70" fill="none" xmlns="http://www.w3.org/2000/svg">
<g clip-path="url(#clip0_87_3524)">
<path d="M51.279 19.4045C51.0248 19.1502 50.6721 19.0039 50.3125 19.0039C49.9529 19.0039 49.6002 19.1502 49.3459 19.4045C49.0916 19.6588 48.9453 20.0102 48.9453 20.3711C48.9453 20.7307 49.0915 21.0834 49.3459 21.3377C49.6003 21.592 49.9529 21.7383 50.3125 21.7383C50.6721 21.7383 51.0248 21.592 51.279 21.3377C51.5333 21.0834 51.6797 20.7307 51.6797 20.3711C51.6797 20.0115 51.5334 19.6588 51.279 19.4045Z" fill="#1EAB5F"/>
<path d="M20.5078 38.5547H9.57031C8.81535 38.5547 8.20312 39.1668 8.20312 39.9219V50.8594C8.20312 51.6145 8.81535 52.2265 9.57031 52.2265H20.5078C21.2627 52.2265 21.875 51.6145 21.875 50.8594V39.9219C21.875 39.1668 21.2629 38.5547 20.5078 38.5547ZM19.1406 49.4922H10.9375V41.2891H19.1406V49.4922Z" fill="#1EAB5F"/>
<path d="M69.1559 28.6784C68.645 28.4666 68.0568 28.5839 67.666 28.9746L53.7346 42.906C53.7345 42.9063 53.7342 42.9064 53.7339 42.9067C53.7337 42.9069 53.7335 42.9071 53.7334 42.9074L37.4934 59.1473C37.4932 59.1476 37.493 59.1478 37.4928 59.148C37.4925 59.1483 37.4923 59.1484 37.4921 59.1487L28.9746 67.6661C28.5838 68.0572 28.4667 68.6453 28.6782 69.1561C28.8899 69.667 29.3884 70.0001 29.9414 70.0001H68.6327C69.3877 70.0001 69.9999 69.388 69.9999 68.6329V29.9415C69.9999 29.3886 69.6668 28.89 69.1559 28.6784ZM67.2655 67.2657H33.2422L38.4595 62.0484L39.7646 63.3535C40.0316 63.6205 40.3815 63.7539 40.7313 63.7539C41.0812 63.7539 41.4311 63.6205 41.6981 63.3535C42.232 62.8196 42.232 61.9539 41.6981 61.4199L40.393 60.1148L43.8733 56.6345L45.1782 57.9394C45.4453 58.2064 45.7951 58.3399 46.145 58.3399C46.4948 58.3399 46.8447 58.2063 47.1117 57.9394C47.6456 57.4056 47.6456 56.5399 47.1117 56.006L45.8066 54.7008L49.2869 51.2205L50.592 52.5257C50.859 52.7927 51.2089 52.9261 51.5588 52.9261C51.9086 52.9261 52.2585 52.7927 52.5255 52.5257C53.0594 51.9918 53.0594 51.1261 52.5255 50.592L51.2204 49.2869L54.7005 45.8068L56.0057 47.1119C56.2727 47.3789 56.6225 47.5123 56.9724 47.5123C57.3223 47.5123 57.6721 47.3789 57.9391 47.1119C58.473 46.578 58.473 45.7123 57.9391 45.1783L56.634 43.8731L60.1143 40.3928L61.4193 41.6978C61.6863 41.9648 62.0362 42.0983 62.386 42.0983C62.7359 42.0983 63.0858 41.9647 63.3528 41.6978C63.8867 41.1639 63.8867 40.2982 63.3528 39.7643L62.0477 38.4592L67.2655 33.2422V67.2657Z" fill="#1EAB5F"/>
<path d="M62.3206 45.1823C61.8096 44.9705 61.2215 45.0877 60.8306 45.4786L45.4786 60.8307C45.0877 61.2217 44.9706 61.8097 45.1822 62.3206C45.3938 62.8316 45.8923 63.1646 46.4454 63.1646H61.7973C62.5523 63.1646 63.1645 62.5525 63.1645 61.7974V46.4454C63.1645 45.8926 62.8315 45.3939 62.3206 45.1823ZM60.4302 60.4302H49.7461L60.4302 49.7461V60.4302Z" fill="#1EAB5F"/>
<path d="M63.3088 20.4067C62.9325 20.0305 62.3722 19.9066 61.8719 20.0897L52.5367 23.5083C52.35 23.5767 52.1806 23.6848 52.04 23.8253L49.4151 26.4502L32.2752 9.31022C32.0188 9.05387 31.6711 8.90977 31.3085 8.90977C30.9459 8.90977 30.5981 9.05387 30.3418 9.31022L9.71055 29.9415H4.66796L31.3085 3.30076L45.9277 17.9199C46.4617 18.4538 47.3271 18.4538 47.8613 17.9199C48.3952 17.386 48.3952 16.5203 47.8613 15.9863L32.2754 0.400414C31.7414 -0.133471 30.8759 -0.133471 30.3418 0.400414L0.400428 30.3418C0.00955001 30.7328 -0.107481 31.3208 0.104022 31.8317C0.315663 32.3428 0.814138 32.6758 1.36716 32.6758H2.73435V68.6328C2.73435 69.3879 3.34657 70 4.10153 70H25.8379C26.5928 70 27.205 69.3879 27.205 68.6328C27.205 67.8777 26.5928 67.2656 25.8379 67.2656H5.46872V32.6758H10.2768C10.6394 32.6758 10.9871 32.5317 11.2436 32.2754L31.3085 12.2104L47.4815 28.3835L27.207 48.6582V36.3672H36.7773C37.5322 36.3672 38.1444 35.7551 38.1444 35C38.1444 34.2449 37.5322 33.6329 36.7773 33.6329H25.8398C25.0848 33.6329 24.4726 34.2449 24.4726 35V50.8594C24.4726 51.0189 24.5013 51.1712 24.5515 51.3136L23.3266 52.5384C21.1624 54.7027 21.1624 58.2243 23.3266 60.3885C24.4089 61.4708 25.8301 62.0119 27.2517 62.0118C28.673 62.0118 30.0947 61.4706 31.1767 60.3887L42.7065 48.8589C43.2403 48.325 43.2403 47.4593 42.7065 46.9254C42.1726 46.3916 41.3071 46.3916 40.7729 46.9254L32.0376 55.6607L28.0546 51.6776L53.034 26.6982L57.0171 30.6812L47.4721 40.2264C46.9382 40.7603 46.9382 41.626 47.4721 42.1598C48.0061 42.6937 48.8715 42.6937 49.4057 42.1598L59.8901 31.6755C60.0305 31.5349 60.1387 31.3654 60.207 31.1789L63.6258 21.8436C63.8088 21.3438 63.6852 20.7831 63.3088 20.4067ZM30.1043 57.594L29.2432 58.455C28.7113 58.987 28.0042 59.28 27.2518 59.28C26.4994 59.28 25.7922 58.987 25.2604 58.455C24.7283 57.9231 24.4354 57.2158 24.4354 56.4636C24.4354 55.7114 24.7281 55.004 25.2602 54.472L26.1213 53.611L30.1043 57.594ZM58.3905 28.1874L55.5279 25.3247L60.0448 23.6706L58.3905 28.1874Z" fill="#1EAB5F"/>
<path d="M46.0329 43.5998C45.7787 43.3455 45.426 43.1992 45.0664 43.1992C44.7068 43.1992 44.3541 43.3455 44.0998 43.5998C43.8455 43.8555 43.6992 44.2068 43.6992 44.5664C43.6992 44.9273 43.8454 45.2787 44.0998 45.5344C44.3541 45.7887 44.7055 45.9336 45.0664 45.9336C45.426 45.9336 45.7787 45.7887 46.0329 45.5344C46.2872 45.2787 46.4336 44.926 46.4336 44.5664C46.4336 44.2068 46.2873 43.8555 46.0329 43.5998Z" fill="#1EAB5F"/>
<path d="M31.3086 20.6445C28.4439 20.6445 26.1133 22.9752 26.1133 25.8398C26.1133 28.7045 28.4439 31.0351 31.3086 31.0351C34.1732 31.0351 36.5039 28.7045 36.5039 25.8398C36.5039 22.9752 34.1732 20.6445 31.3086 20.6445ZM31.3086 28.3008C29.9517 28.3008 28.8477 27.1969 28.8477 25.8398C28.8477 24.4829 29.9517 23.3789 31.3086 23.3789C32.6655 23.3789 33.7695 24.4829 33.7695 25.8398C33.7695 27.1968 32.6655 28.3008 31.3086 28.3008Z" fill="#1EAB5F"/>
</g>
<defs>
<clipPath id="clip0_87_3524">
<rect width="70" height="70" fill="white"/>
</clipPath>
</defs>
</svg>
