<svg width="69" height="82" viewBox="0 0 69 82" fill="none" xmlns="http://www.w3.org/2000/svg">
<g filter="url(#filter0_f_1_198)">
<path d="M46.4381 48.9103C46.1906 47.1873 45.8094 45.4764 45.2981 43.793C44.7778 42.1131 44.1383 40.4573 43.3615 38.8514C42.572 37.2525 41.6651 35.6966 40.6227 34.2165C40.3662 33.8444 40.0934 33.4808 39.8224 33.1172C39.5424 32.7589 39.2606 32.4022 38.9661 32.0559C38.379 31.3581 37.7702 30.6757 37.1234 30.0245C36.4821 29.3697 35.8137 28.7356 35.1181 28.1309C34.7749 27.8242 34.4154 27.533 34.0595 27.2366C33.6964 26.9506 33.3332 26.6629 32.9593 26.3889C31.4707 25.2879 29.899 24.2799 28.255 23.3995C26.6146 22.5104 24.9128 21.7316 23.1695 21.0545L20.4524 20L20.3783 22.8947L20.2772 26.7387L20.2591 27.4692C20.2465 27.9138 20.2392 28.3583 20.2284 28.8028C20.2049 29.8832 20.185 30.9635 20.1652 32.0438L20.0839 36.6201L20.0351 41.1947C20.0188 42.7196 20.0026 44.2444 20.0062 45.7693C20.0062 47.2941 19.9936 48.819 20.0044 50.3439C20.0206 53.3936 20.0423 56.4433 20.1254 59.4947L20.1941 62L22.7142 61.6864H22.716L22.8588 61.6657L22.9726 61.6468L23.1876 61.6089L23.5977 61.5279C23.8668 61.471 24.1288 61.4107 24.3907 61.347C24.911 61.2178 25.4205 61.0747 25.9245 60.9197C26.9326 60.6078 27.9135 60.2425 28.8728 59.8307C30.7896 59.0054 32.6124 57.9871 34.2907 56.7845C35.9708 55.5818 37.5046 54.1931 38.8397 52.6527C40.1747 51.1123 41.3074 49.4255 42.227 47.6542L42.7455 46.6515C42.5323 46.0984 42.3046 45.5505 42.0644 45.0112C41.7392 44.2737 41.3887 43.5501 41.0166 42.8471L39.2624 46.169C38.3645 47.6835 37.2968 49.093 36.0738 50.3559C34.8489 51.6189 33.4705 52.7354 31.9765 53.6865C30.4843 54.6393 28.8746 55.4285 27.1999 56.0453C26.4159 56.333 25.6174 56.5846 24.8117 56.7931C24.8478 54.6445 24.8641 52.4959 24.8749 50.3473C24.8857 48.8224 24.8731 47.2976 24.8731 45.7727C24.8749 44.2479 24.8604 42.723 24.8442 41.1981L24.7954 36.6236L24.7141 32.0438C24.7051 31.5528 24.6942 31.06 24.6852 30.5689C24.6726 29.8797 24.6599 29.1905 24.6437 28.4996C24.6364 28.155 24.6292 27.8121 24.6202 27.4675L24.5768 25.7996C25.2109 26.0598 25.8414 26.3303 26.4611 26.6198C28.0021 27.3383 29.4889 28.1584 30.9142 29.0682C32.3324 29.9865 33.7 30.9859 34.97 32.0955C36.2472 33.1982 37.4233 34.4112 38.5235 35.6897C39.6255 36.9682 40.6173 38.3414 41.5098 39.7767C42.4112 41.2085 43.2061 42.7109 43.8908 44.2651C44.5827 45.8175 45.1699 47.4199 45.6432 49.0619C45.8835 49.8821 46.0948 50.7109 46.2719 51.55C46.4543 52.3873 46.6043 53.2333 46.7 54.0897C46.8084 52.3684 46.6729 50.6333 46.4381 48.9103ZM22.165 57.3031C22.1614 57.3048 22.1632 57.3048 22.165 57.3031V57.3031Z" fill="#4A90AE"/>
<path d="M48.6134 24.4402C48.7634 23.0687 48.8952 21.5921 49 20L43.6291 27.0006L45.4844 26.0633C44.9443 30.9549 44.2433 33.1414 43.6291 35.2434C44.1711 36.1429 44.6841 37.0784 45.1611 38.0451C45.2713 38.2725 45.3778 38.4999 45.4826 38.7308C45.8945 37.7073 47.6379 33.3499 48.6098 24.4815H48.6116L48.6134 24.4402Z" fill="#4A90AE"/>
</g>
<path d="M46.4381 48.9103C46.1906 47.1873 45.8094 45.4764 45.2981 43.793C44.7778 42.1131 44.1383 40.4573 43.3615 38.8514C42.572 37.2525 41.6651 35.6966 40.6227 34.2165C40.3662 33.8444 40.0934 33.4808 39.8224 33.1172C39.5424 32.7589 39.2606 32.4022 38.9661 32.0559C38.379 31.3581 37.7702 30.6757 37.1234 30.0245C36.4821 29.3697 35.8136 28.7356 35.1181 28.1309C34.7749 27.8242 34.4154 27.533 34.0595 27.2366C33.6964 26.9506 33.3332 26.6629 32.9593 26.3889C31.4707 25.2879 29.899 24.2799 28.255 23.3995C26.6146 22.5104 24.9128 21.7316 23.1695 21.0545L20.4524 20L20.3783 22.8947L20.2772 26.7387L20.2591 27.4692C20.2465 27.9138 20.2392 28.3583 20.2284 28.8028C20.2049 29.8832 20.185 30.9635 20.1652 32.0438L20.0839 36.6201L20.0351 41.1947C20.0188 42.7196 20.0026 44.2444 20.0062 45.7693C20.0062 47.2941 19.9936 48.819 20.0044 50.3439C20.0206 53.3936 20.0423 56.4433 20.1254 59.4947L20.1941 62L22.7142 61.6864H22.716L22.8588 61.6657L22.9726 61.6468L23.1876 61.6089L23.5976 61.5279C23.8668 61.471 24.1288 61.4107 24.3907 61.347C24.911 61.2178 25.4205 61.0747 25.9245 60.9197C26.9326 60.6078 27.9135 60.2425 28.8728 59.8307C30.7896 59.0054 32.6124 57.9871 34.2907 56.7845C35.9708 55.5818 37.5046 54.1931 38.8396 52.6527C40.1747 51.1123 41.3074 49.4255 42.227 47.6542L42.7454 46.6515C42.5323 46.0984 42.3046 45.5505 42.0644 45.0112C41.7392 44.2737 41.3887 43.5501 41.0166 42.8471L39.2624 46.169C38.3645 47.6835 37.2968 49.093 36.0738 50.3559C34.8489 51.6189 33.4705 52.7354 31.9765 53.6865C30.4843 54.6393 28.8746 55.4285 27.1999 56.0453C26.4159 56.333 25.6174 56.5846 24.8117 56.7931C24.8478 54.6445 24.8641 52.4959 24.8749 50.3473C24.8857 48.8224 24.8731 47.2976 24.8731 45.7727C24.8749 44.2479 24.8604 42.723 24.8442 41.1981L24.7954 36.6236L24.7141 32.0438C24.7051 31.5528 24.6942 31.06 24.6852 30.5689C24.6726 29.8797 24.6599 29.1905 24.6437 28.4996C24.6364 28.155 24.6292 27.8121 24.6202 27.4675L24.5768 25.7996C25.2109 26.0598 25.8414 26.3303 26.4611 26.6198C28.0021 27.3383 29.4889 28.1584 30.9142 29.0682C32.3324 29.9865 33.7 30.9859 34.97 32.0955C36.2472 33.1982 37.4233 34.4112 38.5235 35.6897C39.6255 36.9682 40.6173 38.3414 41.5098 39.7767C42.4112 41.2085 43.2061 42.7109 43.8908 44.2651C44.5827 45.8175 45.1699 47.4199 45.6432 49.0619C45.8834 49.8821 46.0948 50.7109 46.2719 51.55C46.4543 52.3873 46.6043 53.2333 46.7 54.0897C46.8084 52.3684 46.6729 50.6333 46.4381 48.9103ZM22.165 57.3031C22.1614 57.3048 22.1632 57.3048 22.165 57.3031V57.3031Z" fill="white"/>
<path d="M48.6134 24.4402C48.7633 23.0687 48.8952 21.5921 49 20L43.6291 27.0006L45.4844 26.0633C44.9443 30.9549 44.2433 33.1414 43.6291 35.2434C44.1711 36.1429 44.6841 37.0784 45.1611 38.0451C45.2713 38.2725 45.3778 38.4999 45.4826 38.7308C45.8945 37.7073 47.6379 33.3499 48.6098 24.4815H48.6116L48.6134 24.4402Z" fill="white"/>
<defs>
<filter id="filter0_f_1_198" x="0" y="0" width="69" height="82" filterUnits="userSpaceOnUse" color-interpolation-filters="sRGB">
<feFlood flood-opacity="0" result="BackgroundImageFix"/>
<feBlend mode="normal" in="SourceGraphic" in2="BackgroundImageFix" result="shape"/>
<feGaussianBlur stdDeviation="10" result="effect1_foregroundBlur_1_198"/>
</filter>
</defs>
</svg>
