<svg width="203" height="94" viewBox="0 0 203 94" fill="none" xmlns="http://www.w3.org/2000/svg">
<path d="M12 23V70H202" stroke="url(#paint0_linear_11_395)" stroke-width="5"/>
<path d="M66 22.75L40.3448 4L4 29" stroke="#E7B97E" stroke-width="5" stroke-linecap="square"/>
<path d="M35.5938 43.2207V45.8271H22.5117V43.2207H35.5938ZM23.0098 32.8281V57H19.8057V32.8281H23.0098ZM38.3828 32.8281V57H35.1953V32.8281H38.3828ZM42.7988 48.2178V47.8359C42.7988 46.541 42.987 45.3402 43.3633 44.2334C43.7396 43.1156 44.2819 42.1471 44.9902 41.3281C45.6986 40.498 46.5563 39.8561 47.5635 39.4023C48.5706 38.9375 49.6995 38.7051 50.9502 38.7051C52.2119 38.7051 53.3464 38.9375 54.3535 39.4023C55.3717 39.8561 56.235 40.498 56.9434 41.3281C57.6628 42.1471 58.2106 43.1156 58.5869 44.2334C58.9632 45.3402 59.1514 46.541 59.1514 47.8359V48.2178C59.1514 49.5127 58.9632 50.7135 58.5869 51.8203C58.2106 52.9271 57.6628 53.8955 56.9434 54.7256C56.235 55.5446 55.3773 56.1865 54.3701 56.6514C53.374 57.1051 52.2451 57.332 50.9834 57.332C49.7217 57.332 48.5872 57.1051 47.5801 56.6514C46.5729 56.1865 45.7096 55.5446 44.9902 54.7256C44.2819 53.8955 43.7396 52.9271 43.3633 51.8203C42.987 50.7135 42.7988 49.5127 42.7988 48.2178ZM45.8701 47.8359V48.2178C45.8701 49.1143 45.9753 49.9609 46.1855 50.7578C46.3958 51.5436 46.7113 52.2409 47.1318 52.8496C47.5635 53.4583 48.1003 53.9398 48.7422 54.2939C49.3841 54.637 50.1312 54.8086 50.9834 54.8086C51.8245 54.8086 52.5605 54.637 53.1914 54.2939C53.8333 53.9398 54.3646 53.4583 54.7852 52.8496C55.2057 52.2409 55.5212 51.5436 55.7314 50.7578C55.9528 49.9609 56.0635 49.1143 56.0635 48.2178V47.8359C56.0635 46.9505 55.9528 46.1149 55.7314 45.3291C55.5212 44.5322 55.2002 43.8294 54.7686 43.2207C54.348 42.6009 53.8167 42.1139 53.1748 41.7598C52.5439 41.4056 51.8024 41.2285 50.9502 41.2285C50.109 41.2285 49.3675 41.4056 48.7256 41.7598C48.0947 42.1139 47.5635 42.6009 47.1318 43.2207C46.7113 43.8294 46.3958 44.5322 46.1855 45.3291C45.9753 46.1149 45.8701 46.9505 45.8701 47.8359ZM73.9932 52.8496V39.0371H77.0811V57H74.1426L73.9932 52.8496ZM74.5742 49.0645L75.8525 49.0312C75.8525 50.2266 75.7253 51.3333 75.4707 52.3516C75.2272 53.3587 74.8288 54.2331 74.2754 54.9746C73.722 55.7161 72.9971 56.2972 72.1006 56.7178C71.2041 57.1273 70.1139 57.332 68.8301 57.332C67.9557 57.332 67.1533 57.2048 66.4229 56.9502C65.7035 56.6956 65.0837 56.3027 64.5635 55.7715C64.0433 55.2402 63.6393 54.5485 63.3516 53.6963C63.0749 52.8441 62.9365 51.8203 62.9365 50.625V39.0371H66.0078V50.6582C66.0078 51.4661 66.0964 52.1357 66.2734 52.667C66.4616 53.1872 66.7106 53.6022 67.0205 53.9121C67.3415 54.2109 67.6956 54.4212 68.083 54.543C68.4814 54.6647 68.891 54.7256 69.3115 54.7256C70.6175 54.7256 71.6523 54.4766 72.416 53.9785C73.1797 53.4694 73.7275 52.7887 74.0596 51.9365C74.4027 51.0732 74.5742 50.1159 74.5742 49.0645ZM92.2217 52.2354C92.2217 51.7926 92.1221 51.3831 91.9229 51.0068C91.7347 50.6195 91.3418 50.2708 90.7441 49.9609C90.1576 49.64 89.2721 49.3633 88.0879 49.1309C87.0918 48.9206 86.1898 48.6715 85.3818 48.3838C84.585 48.096 83.9043 47.7474 83.3398 47.3379C82.7865 46.9284 82.3604 46.4469 82.0615 45.8936C81.7627 45.3402 81.6133 44.6927 81.6133 43.9512C81.6133 43.2428 81.7682 42.5732 82.0781 41.9424C82.3991 41.3115 82.8473 40.7526 83.4229 40.2656C84.0094 39.7786 84.7122 39.3968 85.5312 39.1201C86.3503 38.8434 87.2633 38.7051 88.2705 38.7051C89.7093 38.7051 90.9378 38.9596 91.9561 39.4688C92.9743 39.9779 93.7546 40.6585 94.2969 41.5107C94.8392 42.3519 95.1104 43.2871 95.1104 44.3164H92.0391C92.0391 43.8184 91.8896 43.3369 91.5908 42.8721C91.3031 42.3962 90.877 42.0033 90.3125 41.6934C89.7591 41.3835 89.0785 41.2285 88.2705 41.2285C87.4183 41.2285 86.7266 41.3613 86.1953 41.627C85.6751 41.8815 85.2933 42.208 85.0498 42.6064C84.8174 43.0049 84.7012 43.4255 84.7012 43.8682C84.7012 44.2002 84.7565 44.499 84.8672 44.7646C84.9889 45.0192 85.1992 45.2572 85.498 45.4785C85.7969 45.6888 86.2174 45.888 86.7598 46.0762C87.3021 46.2643 87.9938 46.4525 88.835 46.6406C90.307 46.9727 91.5189 47.3711 92.4707 47.8359C93.4225 48.3008 94.1309 48.8708 94.5957 49.5459C95.0605 50.221 95.293 51.04 95.293 52.0029C95.293 52.7887 95.127 53.5081 94.7949 54.1611C94.474 54.8141 94.0036 55.3786 93.3838 55.8545C92.7751 56.3193 92.0446 56.6846 91.1924 56.9502C90.3512 57.2048 89.4049 57.332 88.3535 57.332C86.7708 57.332 85.4316 57.0498 84.3359 56.4854C83.2402 55.9209 82.4102 55.1904 81.8457 54.2939C81.2812 53.3975 80.999 52.4512 80.999 51.4551H84.0869C84.1312 52.2962 84.3747 52.9658 84.8174 53.4639C85.2601 53.9508 85.8024 54.2995 86.4443 54.5098C87.0863 54.709 87.7227 54.8086 88.3535 54.8086C89.1947 54.8086 89.8975 54.6979 90.4619 54.4766C91.0374 54.2552 91.4746 53.9508 91.7734 53.5635C92.0723 53.1761 92.2217 52.7334 92.2217 52.2354ZM106.781 57.332C105.531 57.332 104.396 57.1217 103.378 56.7012C102.371 56.2695 101.502 55.6663 100.771 54.8916C100.052 54.1169 99.4987 53.1982 99.1113 52.1357C98.724 51.0732 98.5303 49.9111 98.5303 48.6494V47.9521C98.5303 46.4912 98.7461 45.1908 99.1777 44.0508C99.6094 42.8997 100.196 41.9258 100.938 41.1289C101.679 40.332 102.52 39.7288 103.461 39.3193C104.402 38.9098 105.376 38.7051 106.383 38.7051C107.667 38.7051 108.773 38.9264 109.703 39.3691C110.644 39.8118 111.413 40.4316 112.011 41.2285C112.608 42.0143 113.051 42.944 113.339 44.0176C113.627 45.0801 113.771 46.2422 113.771 47.5039V48.8818H100.356V46.375H110.699V46.1426C110.655 45.3457 110.489 44.571 110.201 43.8184C109.924 43.0658 109.482 42.446 108.873 41.959C108.264 41.472 107.434 41.2285 106.383 41.2285C105.686 41.2285 105.044 41.3779 104.457 41.6768C103.87 41.9645 103.367 42.3962 102.946 42.9717C102.526 43.5472 102.199 44.25 101.967 45.0801C101.734 45.9102 101.618 46.8675 101.618 47.9521V48.6494C101.618 49.5016 101.734 50.304 101.967 51.0566C102.21 51.7982 102.559 52.4512 103.013 53.0156C103.478 53.5801 104.036 54.0228 104.689 54.3438C105.354 54.6647 106.106 54.8252 106.947 54.8252C108.032 54.8252 108.951 54.6038 109.703 54.1611C110.456 53.7184 111.114 53.1263 111.679 52.3848L113.538 53.8623C113.151 54.4489 112.658 55.0078 112.061 55.5391C111.463 56.0703 110.727 56.502 109.853 56.834C108.989 57.166 107.965 57.332 106.781 57.332ZM123.748 45.4619V47.9854H115.646V45.4619H123.748ZM140.101 50.8906C140.101 50.3262 140.012 49.8281 139.835 49.3965C139.669 48.9538 139.37 48.5553 138.938 48.2012C138.518 47.847 137.931 47.5094 137.179 47.1885C136.437 46.8675 135.496 46.541 134.356 46.209C133.161 45.8548 132.082 45.4619 131.119 45.0303C130.156 44.5876 129.332 44.084 128.646 43.5195C127.959 42.9551 127.434 42.3076 127.068 41.5771C126.703 40.8467 126.521 40.0111 126.521 39.0703C126.521 38.1296 126.714 37.2607 127.102 36.4639C127.489 35.667 128.042 34.9753 128.762 34.3887C129.492 33.791 130.361 33.3262 131.368 32.9941C132.375 32.6621 133.499 32.4961 134.738 32.4961C136.553 32.4961 138.092 32.8447 139.354 33.542C140.626 34.2282 141.595 35.1302 142.259 36.248C142.923 37.3548 143.255 38.5391 143.255 39.8008H140.067C140.067 38.8932 139.874 38.0908 139.486 37.3936C139.099 36.6852 138.512 36.1318 137.727 35.7334C136.941 35.3239 135.945 35.1191 134.738 35.1191C133.598 35.1191 132.658 35.2907 131.916 35.6338C131.174 35.9769 130.621 36.4417 130.256 37.0283C129.902 37.6149 129.725 38.2845 129.725 39.0371C129.725 39.5462 129.83 40.0111 130.04 40.4316C130.261 40.8411 130.599 41.223 131.053 41.5771C131.518 41.9313 132.104 42.2578 132.812 42.5566C133.532 42.8555 134.39 43.1432 135.386 43.4199C136.758 43.8073 137.942 44.2389 138.938 44.7148C139.935 45.1908 140.754 45.7275 141.396 46.3252C142.049 46.9118 142.53 47.5814 142.84 48.334C143.161 49.0755 143.321 49.9167 143.321 50.8574C143.321 51.8424 143.122 52.7334 142.724 53.5303C142.325 54.3271 141.755 55.0078 141.014 55.5723C140.272 56.1367 139.381 56.5739 138.341 56.8838C137.312 57.1826 136.16 57.332 134.888 57.332C133.77 57.332 132.669 57.1771 131.584 56.8672C130.51 56.5573 129.531 56.0924 128.646 55.4727C127.771 54.8529 127.068 54.0892 126.537 53.1816C126.017 52.263 125.757 51.2005 125.757 49.9941H128.944C128.944 50.8242 129.105 51.5381 129.426 52.1357C129.747 52.7223 130.184 53.2093 130.737 53.5967C131.302 53.984 131.938 54.2718 132.646 54.46C133.366 54.637 134.113 54.7256 134.888 54.7256C136.006 54.7256 136.952 54.5706 137.727 54.2607C138.501 53.9508 139.088 53.5081 139.486 52.9326C139.896 52.3571 140.101 51.6764 140.101 50.8906ZM154.461 39.0371V41.3945H144.749V39.0371H154.461ZM148.036 34.6709H151.107V52.5508C151.107 53.1595 151.201 53.6188 151.39 53.9287C151.578 54.2386 151.821 54.4434 152.12 54.543C152.419 54.6426 152.74 54.6924 153.083 54.6924C153.338 54.6924 153.603 54.6702 153.88 54.626C154.168 54.5706 154.383 54.5264 154.527 54.4932L154.544 57C154.3 57.0775 153.979 57.1494 153.581 57.2158C153.194 57.2933 152.723 57.332 152.17 57.332C151.417 57.332 150.726 57.1826 150.095 56.8838C149.464 56.585 148.96 56.0869 148.584 55.3896C148.219 54.6813 148.036 53.7295 148.036 52.5342V34.6709ZM156.918 48.2178V47.8359C156.918 46.541 157.106 45.3402 157.482 44.2334C157.859 43.1156 158.401 42.1471 159.109 41.3281C159.818 40.498 160.675 39.8561 161.683 39.4023C162.69 38.9375 163.819 38.7051 165.069 38.7051C166.331 38.7051 167.465 38.9375 168.473 39.4023C169.491 39.8561 170.354 40.498 171.062 41.3281C171.782 42.1471 172.33 43.1156 172.706 44.2334C173.082 45.3402 173.271 46.541 173.271 47.8359V48.2178C173.271 49.5127 173.082 50.7135 172.706 51.8203C172.33 52.9271 171.782 53.8955 171.062 54.7256C170.354 55.5446 169.496 56.1865 168.489 56.6514C167.493 57.1051 166.364 57.332 165.103 57.332C163.841 57.332 162.706 57.1051 161.699 56.6514C160.692 56.1865 159.829 55.5446 159.109 54.7256C158.401 53.8955 157.859 52.9271 157.482 51.8203C157.106 50.7135 156.918 49.5127 156.918 48.2178ZM159.989 47.8359V48.2178C159.989 49.1143 160.094 49.9609 160.305 50.7578C160.515 51.5436 160.83 52.2409 161.251 52.8496C161.683 53.4583 162.219 53.9398 162.861 54.2939C163.503 54.637 164.25 54.8086 165.103 54.8086C165.944 54.8086 166.68 54.637 167.311 54.2939C167.952 53.9398 168.484 53.4583 168.904 52.8496C169.325 52.2409 169.64 51.5436 169.851 50.7578C170.072 49.9609 170.183 49.1143 170.183 48.2178V47.8359C170.183 46.9505 170.072 46.1149 169.851 45.3291C169.64 44.5322 169.319 43.8294 168.888 43.2207C168.467 42.6009 167.936 42.1139 167.294 41.7598C166.663 41.4056 165.922 41.2285 165.069 41.2285C164.228 41.2285 163.487 41.4056 162.845 41.7598C162.214 42.1139 161.683 42.6009 161.251 43.2207C160.83 43.8294 160.515 44.5322 160.305 45.3291C160.094 46.1149 159.989 46.9505 159.989 47.8359ZM180.193 41.8594V57H177.122V39.0371H180.11L180.193 41.8594ZM185.805 38.9375L185.788 41.793C185.534 41.7376 185.29 41.7044 185.058 41.6934C184.836 41.6712 184.582 41.6602 184.294 41.6602C183.586 41.6602 182.96 41.7708 182.418 41.9922C181.876 42.2135 181.416 42.5234 181.04 42.9219C180.664 43.3203 180.365 43.7962 180.144 44.3496C179.933 44.8919 179.795 45.4896 179.729 46.1426L178.865 46.6406C178.865 45.556 178.97 44.5378 179.181 43.5859C179.402 42.6341 179.74 41.793 180.193 41.0625C180.647 40.321 181.223 39.7454 181.92 39.3359C182.628 38.9154 183.469 38.7051 184.443 38.7051C184.665 38.7051 184.919 38.7327 185.207 38.7881C185.495 38.8324 185.694 38.8822 185.805 38.9375ZM193.989 55.1406L198.986 39.0371H202.273L195.068 59.7725C194.902 60.2152 194.681 60.6911 194.404 61.2002C194.139 61.7204 193.796 62.2129 193.375 62.6777C192.954 63.1426 192.445 63.5189 191.848 63.8066C191.261 64.1055 190.558 64.2549 189.739 64.2549C189.496 64.2549 189.186 64.2217 188.81 64.1553C188.433 64.0889 188.168 64.0335 188.013 63.9893L187.996 61.499C188.085 61.5101 188.223 61.5212 188.411 61.5322C188.61 61.5544 188.749 61.5654 188.826 61.5654C189.523 61.5654 190.116 61.4714 190.603 61.2832C191.09 61.1061 191.499 60.8018 191.831 60.3701C192.174 59.9495 192.467 59.3685 192.711 58.627L193.989 55.1406ZM190.32 39.0371L194.985 52.9824L195.782 56.2197L193.574 57.3486L186.967 39.0371H190.32Z" fill="url(#paint1_linear_11_395)"/>
<path d="M15.8184 85.709V86.3379C15.8184 87.0853 15.7249 87.7552 15.5381 88.3477C15.3512 88.9401 15.0824 89.4437 14.7314 89.8584C14.3805 90.2731 13.959 90.5898 13.4668 90.8086C12.9792 91.0273 12.4323 91.1367 11.8262 91.1367C11.2383 91.1367 10.6982 91.0273 10.2061 90.8086C9.71842 90.5898 9.2946 90.2731 8.93457 89.8584C8.5791 89.4437 8.30339 88.9401 8.10742 88.3477C7.91146 87.7552 7.81348 87.0853 7.81348 86.3379V85.709C7.81348 84.9616 7.90918 84.2939 8.10059 83.7061C8.29655 83.1136 8.57227 82.61 8.92773 82.1953C9.2832 81.776 9.70475 81.457 10.1924 81.2383C10.6846 81.0195 11.2246 80.9102 11.8125 80.9102C12.4186 80.9102 12.9655 81.0195 13.4531 81.2383C13.9453 81.457 14.3669 81.776 14.7178 82.1953C15.0732 82.61 15.3444 83.1136 15.5312 83.7061C15.7227 84.2939 15.8184 84.9616 15.8184 85.709ZM14.5127 86.3379V85.6953C14.5127 85.1029 14.4512 84.5788 14.3281 84.123C14.2096 83.6673 14.0342 83.2845 13.8018 82.9746C13.5693 82.6647 13.2845 82.43 12.9473 82.2705C12.6146 82.111 12.2363 82.0312 11.8125 82.0312C11.4023 82.0312 11.0309 82.111 10.6982 82.2705C10.3701 82.43 10.0876 82.6647 9.85059 82.9746C9.61816 83.2845 9.43815 83.6673 9.31055 84.123C9.18294 84.5788 9.11914 85.1029 9.11914 85.6953V86.3379C9.11914 86.9349 9.18294 87.4635 9.31055 87.9238C9.43815 88.3796 9.62044 88.7646 9.85742 89.0791C10.099 89.389 10.3838 89.6237 10.7119 89.7832C11.0446 89.9427 11.416 90.0225 11.8262 90.0225C12.2546 90.0225 12.6351 89.9427 12.9678 89.7832C13.3005 89.6237 13.5807 89.389 13.8086 89.0791C14.041 88.7646 14.2165 88.3796 14.335 87.9238C14.4535 87.4635 14.5127 86.9349 14.5127 86.3379ZM22.3467 80.3838H23.3857C23.3857 80.8304 23.3174 81.1859 23.1807 81.4502C23.0439 81.71 22.8571 81.9105 22.6201 82.0518C22.3877 82.193 22.1234 82.3001 21.8271 82.373C21.5355 82.446 21.2324 82.5166 20.918 82.585C20.526 82.667 20.1615 82.7969 19.8242 82.9746C19.4915 83.1478 19.2044 83.3939 18.9629 83.7129C18.7259 84.0319 18.5505 84.4466 18.4365 84.957C18.3271 85.4674 18.2975 86.0986 18.3477 86.8506V87.4795H17.3086V86.8506C17.3086 86.0075 17.3883 85.2715 17.5479 84.6426C17.7119 84.0137 17.9421 83.4827 18.2383 83.0498C18.5345 82.6169 18.8854 82.2728 19.291 82.0176C19.7012 81.7624 20.1523 81.5869 20.6445 81.4912C21 81.4229 21.3053 81.3499 21.5605 81.2725C21.8158 81.1904 22.0094 81.0811 22.1416 80.9443C22.2783 80.8076 22.3467 80.6208 22.3467 80.3838ZM20.8496 84.0273C21.3327 84.0273 21.7633 84.1117 22.1416 84.2803C22.5199 84.4489 22.8411 84.6836 23.1055 84.9844C23.3698 85.2852 23.5703 85.6406 23.707 86.0508C23.8483 86.4564 23.9189 86.8984 23.9189 87.377V87.5273C23.9189 88.0423 23.8438 88.5208 23.6934 88.9629C23.5475 89.4004 23.3311 89.7832 23.0439 90.1113C22.7614 90.4349 22.415 90.6878 22.0049 90.8701C21.5993 91.0524 21.1367 91.1436 20.6172 91.1436C20.0977 91.1436 19.6328 91.0524 19.2227 90.8701C18.8171 90.6878 18.4707 90.4349 18.1836 90.1113C17.8965 89.7832 17.6777 89.4004 17.5273 88.9629C17.3815 88.5208 17.3086 88.0423 17.3086 87.5273V87.377C17.3086 87.263 17.3291 87.1514 17.3701 87.042C17.4111 86.9326 17.4613 86.821 17.5205 86.707C17.5843 86.5931 17.6413 86.4723 17.6914 86.3447C17.86 85.9346 18.0902 85.554 18.3818 85.2031C18.6781 84.8522 19.0312 84.5697 19.4414 84.3555C19.8561 84.1367 20.3255 84.0273 20.8496 84.0273ZM20.6035 85.0596C20.1387 85.0596 19.7559 85.1667 19.4551 85.3809C19.1589 85.5951 18.9378 85.8799 18.792 86.2354C18.6462 86.5863 18.5732 86.9668 18.5732 87.377V87.5273C18.5732 87.8737 18.6143 88.2018 18.6963 88.5117C18.7783 88.8216 18.9014 89.0973 19.0654 89.3389C19.234 89.5758 19.446 89.7627 19.7012 89.8994C19.9609 90.0361 20.2663 90.1045 20.6172 90.1045C20.9681 90.1045 21.2712 90.0361 21.5264 89.8994C21.7816 89.7627 21.9912 89.5758 22.1553 89.3389C22.3193 89.0973 22.4424 88.8216 22.5244 88.5117C22.6064 88.2018 22.6475 87.8737 22.6475 87.5273V87.377C22.6475 87.0671 22.6064 86.7731 22.5244 86.4951C22.4424 86.2171 22.3171 85.971 22.1484 85.7568C21.9844 85.5426 21.7725 85.374 21.5127 85.251C21.2575 85.1234 20.9544 85.0596 20.6035 85.0596ZM35.5127 89.9609L35.3896 93.1943H34.2617V91H33.2979V89.9609H35.5127ZM25.2656 83.6035H26.5303V89.9609H29.2373V83.6035H30.5088V89.9609H33.209V83.6035H34.4736V91H25.2656V83.6035ZM39.9766 91.1367C39.4616 91.1367 38.9945 91.0501 38.5752 90.877C38.1605 90.6992 37.8027 90.4508 37.502 90.1318C37.2057 89.8128 36.9779 89.4346 36.8184 88.9971C36.6589 88.5596 36.5791 88.0811 36.5791 87.5615V87.2744C36.5791 86.6729 36.668 86.1374 36.8457 85.668C37.0234 85.194 37.265 84.793 37.5703 84.4648C37.8757 84.1367 38.222 83.8883 38.6094 83.7197C38.9967 83.5511 39.3978 83.4668 39.8125 83.4668C40.3411 83.4668 40.7969 83.5579 41.1797 83.7402C41.5671 83.9225 41.8838 84.1777 42.1299 84.5059C42.376 84.8294 42.5583 85.2122 42.6768 85.6543C42.7952 86.0918 42.8545 86.5703 42.8545 87.0898V87.6572H37.3311V86.625H41.5898V86.5293C41.5716 86.2012 41.5033 85.8822 41.3848 85.5723C41.2708 85.2624 41.0885 85.0072 40.8379 84.8066C40.5872 84.6061 40.2454 84.5059 39.8125 84.5059C39.5254 84.5059 39.2611 84.5674 39.0195 84.6904C38.778 84.8089 38.5706 84.9867 38.3975 85.2236C38.2243 85.4606 38.0898 85.75 37.9941 86.0918C37.8984 86.4336 37.8506 86.8278 37.8506 87.2744V87.5615C37.8506 87.9124 37.8984 88.2428 37.9941 88.5527C38.0944 88.8581 38.238 89.127 38.4248 89.3594C38.6162 89.5918 38.8464 89.7741 39.1152 89.9062C39.3887 90.0384 39.6986 90.1045 40.0449 90.1045C40.4915 90.1045 40.8698 90.0133 41.1797 89.8311C41.4896 89.6488 41.7607 89.4049 41.9932 89.0996L42.7588 89.708C42.5993 89.9495 42.3965 90.1797 42.1504 90.3984C41.9043 90.6172 41.6012 90.7949 41.2412 90.9316C40.8857 91.0684 40.4642 91.1367 39.9766 91.1367ZM47.291 90.0977C47.5918 90.0977 47.8698 90.0361 48.125 89.9131C48.3802 89.79 48.5898 89.6214 48.7539 89.4072C48.918 89.1885 49.0114 88.9401 49.0342 88.6621H50.2373C50.2145 89.0996 50.0664 89.5075 49.793 89.8857C49.5241 90.2594 49.1709 90.5625 48.7334 90.7949C48.2959 91.0228 47.8151 91.1367 47.291 91.1367C46.735 91.1367 46.2497 91.0387 45.835 90.8428C45.4248 90.6468 45.083 90.3779 44.8096 90.0361C44.5407 89.6943 44.3379 89.3024 44.2012 88.8604C44.069 88.4137 44.0029 87.9421 44.0029 87.4453V87.1582C44.0029 86.6615 44.069 86.1921 44.2012 85.75C44.3379 85.3034 44.5407 84.9092 44.8096 84.5674C45.083 84.2256 45.4248 83.9567 45.835 83.7607C46.2497 83.5648 46.735 83.4668 47.291 83.4668C47.8698 83.4668 48.3757 83.5853 48.8086 83.8223C49.2415 84.0547 49.5811 84.3737 49.8271 84.7793C50.0778 85.1803 50.2145 85.6361 50.2373 86.1465H49.0342C49.0114 85.8411 48.9248 85.5654 48.7744 85.3193C48.6286 85.0732 48.4281 84.8773 48.1729 84.7314C47.9222 84.5811 47.6283 84.5059 47.291 84.5059C46.9036 84.5059 46.5778 84.5833 46.3135 84.7383C46.0537 84.8887 45.8464 85.0938 45.6914 85.3535C45.541 85.6087 45.4316 85.8936 45.3633 86.208C45.2995 86.5179 45.2676 86.8346 45.2676 87.1582V87.4453C45.2676 87.7689 45.2995 88.0879 45.3633 88.4023C45.4271 88.7168 45.5342 89.0016 45.6846 89.2568C45.8395 89.512 46.0469 89.7171 46.3066 89.8721C46.571 90.0225 46.8991 90.0977 47.291 90.0977ZM54.6738 83.6035V91H53.4023V83.6035H54.6738ZM57.1553 83.6035V84.6289H50.9688V83.6035H57.1553ZM59.6641 85.0254V93.8438H58.3926V83.6035H59.5547L59.6641 85.0254ZM64.6475 87.2402V87.3838C64.6475 87.9215 64.5837 88.4206 64.4561 88.8809C64.3285 89.3366 64.1416 89.7331 63.8955 90.0703C63.654 90.4076 63.3555 90.6696 63 90.8564C62.6445 91.0433 62.2367 91.1367 61.7764 91.1367C61.307 91.1367 60.8923 91.0592 60.5322 90.9043C60.1722 90.7493 59.8669 90.5238 59.6162 90.2275C59.3656 89.9313 59.165 89.5758 59.0146 89.1611C58.8688 88.7464 58.7686 88.2793 58.7139 87.7598V86.9941C58.7686 86.4473 58.8711 85.9574 59.0215 85.5244C59.1719 85.0915 59.3701 84.7223 59.6162 84.417C59.8669 84.1071 60.1699 83.8724 60.5254 83.7129C60.8809 83.5488 61.291 83.4668 61.7559 83.4668C62.2207 83.4668 62.6331 83.5579 62.9932 83.7402C63.3532 83.918 63.6562 84.1732 63.9023 84.5059C64.1484 84.8385 64.333 85.2373 64.4561 85.7021C64.5837 86.1624 64.6475 86.6751 64.6475 87.2402ZM63.376 87.3838V87.2402C63.376 86.8711 63.3372 86.5247 63.2598 86.2012C63.1823 85.873 63.0615 85.5859 62.8975 85.3398C62.738 85.0892 62.5329 84.8932 62.2822 84.752C62.0316 84.6061 61.7331 84.5332 61.3867 84.5332C61.0677 84.5332 60.7897 84.5879 60.5527 84.6973C60.3203 84.8066 60.1221 84.9548 59.958 85.1416C59.7939 85.3239 59.6595 85.5335 59.5547 85.7705C59.4544 86.0029 59.3792 86.2445 59.3291 86.4951V88.2656C59.4202 88.5846 59.5479 88.8854 59.7119 89.168C59.876 89.446 60.0947 89.6715 60.3682 89.8447C60.6416 90.0133 60.9857 90.0977 61.4004 90.0977C61.7422 90.0977 62.0361 90.027 62.2822 89.8857C62.5329 89.7399 62.738 89.5417 62.8975 89.291C63.0615 89.0404 63.1823 88.7533 63.2598 88.4297C63.3372 88.1016 63.376 87.7529 63.376 87.3838ZM65.9258 87.3838V87.2266C65.9258 86.6934 66.0033 86.1989 66.1582 85.7432C66.3132 85.2829 66.5365 84.8841 66.8281 84.5469C67.1198 84.2051 67.473 83.9408 67.8877 83.7539C68.3024 83.5625 68.7673 83.4668 69.2822 83.4668C69.8018 83.4668 70.2689 83.5625 70.6836 83.7539C71.1029 83.9408 71.4583 84.2051 71.75 84.5469C72.0462 84.8841 72.2718 85.2829 72.4268 85.7432C72.5817 86.1989 72.6592 86.6934 72.6592 87.2266V87.3838C72.6592 87.917 72.5817 88.4115 72.4268 88.8672C72.2718 89.3229 72.0462 89.7217 71.75 90.0635C71.4583 90.4007 71.1051 90.665 70.6904 90.8564C70.2803 91.0433 69.8154 91.1367 69.2959 91.1367C68.7764 91.1367 68.3092 91.0433 67.8945 90.8564C67.4798 90.665 67.1243 90.4007 66.8281 90.0635C66.5365 89.7217 66.3132 89.3229 66.1582 88.8672C66.0033 88.4115 65.9258 87.917 65.9258 87.3838ZM67.1904 87.2266V87.3838C67.1904 87.7529 67.2337 88.1016 67.3203 88.4297C67.4069 88.7533 67.5368 89.0404 67.71 89.291C67.8877 89.5417 68.1087 89.7399 68.373 89.8857C68.6374 90.027 68.945 90.0977 69.2959 90.0977C69.6423 90.0977 69.9453 90.027 70.2051 89.8857C70.4694 89.7399 70.6882 89.5417 70.8613 89.291C71.0345 89.0404 71.1644 88.7533 71.251 88.4297C71.3421 88.1016 71.3877 87.7529 71.3877 87.3838V87.2266C71.3877 86.862 71.3421 86.5179 71.251 86.1943C71.1644 85.8662 71.0322 85.5768 70.8545 85.3262C70.6813 85.071 70.4626 84.8704 70.1982 84.7246C69.9385 84.5788 69.6331 84.5059 69.2822 84.5059C68.9359 84.5059 68.6305 84.5788 68.3662 84.7246C68.1064 84.8704 67.8877 85.071 67.71 85.3262C67.5368 85.5768 67.4069 85.8662 67.3203 86.1943C67.2337 86.5179 67.1904 86.862 67.1904 87.2266ZM75.6123 88.9971L79.0234 83.6035H80.2949V91H79.0234V85.6064L75.6123 91H74.3545V83.6035H75.6123V88.9971ZM85.3398 83.6035V91H84.0684V83.6035H85.3398ZM87.8213 83.6035V84.6289H81.6348V83.6035H87.8213ZM91.5879 91.1367C91.0729 91.1367 90.6058 91.0501 90.1865 90.877C89.7718 90.6992 89.4141 90.4508 89.1133 90.1318C88.8171 89.8128 88.5892 89.4346 88.4297 88.9971C88.2702 88.5596 88.1904 88.0811 88.1904 87.5615V87.2744C88.1904 86.6729 88.2793 86.1374 88.457 85.668C88.6348 85.194 88.8763 84.793 89.1816 84.4648C89.487 84.1367 89.8333 83.8883 90.2207 83.7197C90.6081 83.5511 91.0091 83.4668 91.4238 83.4668C91.9525 83.4668 92.4082 83.5579 92.791 83.7402C93.1784 83.9225 93.4951 84.1777 93.7412 84.5059C93.9873 84.8294 94.1696 85.2122 94.2881 85.6543C94.4066 86.0918 94.4658 86.5703 94.4658 87.0898V87.6572H88.9424V86.625H93.2012V86.5293C93.1829 86.2012 93.1146 85.8822 92.9961 85.5723C92.8822 85.2624 92.6999 85.0072 92.4492 84.8066C92.1986 84.6061 91.8568 84.5059 91.4238 84.5059C91.1367 84.5059 90.8724 84.5674 90.6309 84.6904C90.3893 84.8089 90.182 84.9867 90.0088 85.2236C89.8356 85.4606 89.7012 85.75 89.6055 86.0918C89.5098 86.4336 89.4619 86.8278 89.4619 87.2744V87.5615C89.4619 87.9124 89.5098 88.2428 89.6055 88.5527C89.7057 88.8581 89.8493 89.127 90.0361 89.3594C90.2275 89.5918 90.4577 89.7741 90.7266 89.9062C91 90.0384 91.3099 90.1045 91.6562 90.1045C92.1029 90.1045 92.4811 90.0133 92.791 89.8311C93.1009 89.6488 93.3721 89.4049 93.6045 89.0996L94.3701 89.708C94.2106 89.9495 94.0078 90.1797 93.7617 90.3984C93.5156 90.6172 93.2126 90.7949 92.8525 90.9316C92.4971 91.0684 92.0755 91.1367 91.5879 91.1367ZM100.885 83.6035V84.6494H97.3096V83.6035H100.885ZM101.999 83.6035V91H100.734V83.6035H101.999ZM97.002 83.6035H98.2734L98.082 87.1719C98.0501 87.7233 97.9977 88.2109 97.9248 88.6348C97.8564 89.054 97.7607 89.4141 97.6377 89.7148C97.5192 90.0156 97.3688 90.2617 97.1865 90.4531C97.0088 90.64 96.7946 90.779 96.5439 90.8701C96.2933 90.9567 96.0039 91 95.6758 91H95.2793V89.8857L95.5527 89.8652C95.7487 89.8516 95.915 89.806 96.0518 89.7285C96.193 89.651 96.3115 89.5371 96.4072 89.3867C96.5029 89.2318 96.5804 89.0335 96.6396 88.792C96.7035 88.5505 96.7513 88.2633 96.7832 87.9307C96.8197 87.598 96.847 87.2106 96.8652 86.7686L97.002 83.6035ZM105.075 86.1465H107.297C107.894 86.1465 108.397 86.2513 108.808 86.4609C109.218 86.666 109.528 86.9508 109.737 87.3154C109.951 87.6755 110.059 88.0856 110.059 88.5459C110.059 88.8877 109.999 89.209 109.881 89.5098C109.762 89.806 109.585 90.0658 109.348 90.2891C109.115 90.5124 108.826 90.6878 108.479 90.8154C108.138 90.9385 107.743 91 107.297 91H104.152V83.6035H105.417V89.9609H107.297C107.661 89.9609 107.953 89.8949 108.172 89.7627C108.391 89.6305 108.548 89.4596 108.644 89.25C108.739 89.0404 108.787 88.8216 108.787 88.5938C108.787 88.3704 108.739 88.1517 108.644 87.9375C108.548 87.7233 108.391 87.5456 108.172 87.4043C107.953 87.2585 107.661 87.1855 107.297 87.1855H105.075V86.1465ZM116.655 86.8096V87.835H112.745V86.8096H116.655ZM113.012 83.6035V91H111.747V83.6035H113.012ZM117.681 83.6035V91H116.409V83.6035H117.681ZM124.079 89.7354V85.9277C124.079 85.6361 124.02 85.3831 123.901 85.1689C123.787 84.9502 123.614 84.7816 123.382 84.6631C123.149 84.5446 122.862 84.4854 122.521 84.4854C122.201 84.4854 121.921 84.54 121.68 84.6494C121.443 84.7588 121.256 84.9023 121.119 85.0801C120.987 85.2578 120.921 85.4492 120.921 85.6543H119.656C119.656 85.39 119.725 85.1279 119.861 84.8682C119.998 84.6084 120.194 84.3737 120.449 84.1641C120.709 83.9499 121.019 83.7812 121.379 83.6582C121.743 83.5306 122.149 83.4668 122.596 83.4668C123.133 83.4668 123.607 83.5579 124.018 83.7402C124.432 83.9225 124.756 84.1982 124.988 84.5674C125.225 84.932 125.344 85.39 125.344 85.9414V89.3867C125.344 89.6328 125.364 89.8949 125.405 90.1729C125.451 90.4508 125.517 90.6901 125.604 90.8906V91H124.284C124.22 90.8542 124.17 90.6605 124.134 90.4189C124.097 90.1729 124.079 89.945 124.079 89.7354ZM124.298 86.5156L124.312 87.4043H123.033C122.673 87.4043 122.352 87.4339 122.069 87.4932C121.787 87.5479 121.55 87.6322 121.358 87.7461C121.167 87.86 121.021 88.0036 120.921 88.1768C120.821 88.3454 120.771 88.5436 120.771 88.7715C120.771 89.0039 120.823 89.2158 120.928 89.4072C121.033 89.5986 121.19 89.7513 121.399 89.8652C121.614 89.9746 121.876 90.0293 122.186 90.0293C122.573 90.0293 122.915 89.9473 123.211 89.7832C123.507 89.6191 123.742 89.4186 123.915 89.1816C124.093 88.9447 124.188 88.7145 124.202 88.4912L124.742 89.0996C124.71 89.291 124.624 89.5029 124.482 89.7354C124.341 89.9678 124.152 90.1911 123.915 90.4053C123.683 90.6149 123.405 90.7904 123.081 90.9316C122.762 91.0684 122.402 91.1367 122.001 91.1367C121.5 91.1367 121.06 91.0387 120.682 90.8428C120.308 90.6468 120.016 90.3848 119.807 90.0566C119.602 89.724 119.499 89.3525 119.499 88.9424C119.499 88.5459 119.576 88.1973 119.731 87.8965C119.886 87.5911 120.11 87.3382 120.401 87.1377C120.693 86.9326 121.044 86.7777 121.454 86.6729C121.864 86.568 122.322 86.5156 122.828 86.5156H124.298ZM128.83 87.4727H130.197L128.058 91H126.69L128.83 87.4727ZM129.89 83.6035H132.979V91H131.715V84.6289H129.89C129.53 84.6289 129.236 84.6904 129.008 84.8135C128.78 84.932 128.614 85.0869 128.509 85.2783C128.404 85.4697 128.352 85.668 128.352 85.873C128.352 86.0736 128.399 86.2673 128.495 86.4541C128.591 86.6364 128.741 86.7868 128.946 86.9053C129.151 87.0238 129.416 87.083 129.739 87.083H132.057V88.1221H129.739C129.315 88.1221 128.939 88.0651 128.611 87.9512C128.283 87.8372 128.005 87.68 127.777 87.4795C127.549 87.2744 127.376 87.0352 127.258 86.7617C127.139 86.4837 127.08 86.1829 127.08 85.8594C127.08 85.5358 127.142 85.2373 127.265 84.9639C127.392 84.6904 127.575 84.4512 127.812 84.2461C128.053 84.041 128.347 83.8838 128.693 83.7744C129.044 83.6605 129.443 83.6035 129.89 83.6035ZM139.863 83.6035V91H138.599V83.6035H139.863ZM144.717 83.6035L141.21 87.8418H139.439L139.248 86.7344H140.697L143.179 83.6035H144.717ZM143.356 91L140.636 87.6504L141.449 86.7344L144.963 91H143.356ZM145.578 87.3838V87.2266C145.578 86.6934 145.656 86.1989 145.811 85.7432C145.965 85.2829 146.189 84.8841 146.48 84.5469C146.772 84.2051 147.125 83.9408 147.54 83.7539C147.955 83.5625 148.42 83.4668 148.935 83.4668C149.454 83.4668 149.921 83.5625 150.336 83.7539C150.755 83.9408 151.111 84.2051 151.402 84.5469C151.699 84.8841 151.924 85.2829 152.079 85.7432C152.234 86.1989 152.312 86.6934 152.312 87.2266V87.3838C152.312 87.917 152.234 88.4115 152.079 88.8672C151.924 89.3229 151.699 89.7217 151.402 90.0635C151.111 90.4007 150.757 90.665 150.343 90.8564C149.933 91.0433 149.468 91.1367 148.948 91.1367C148.429 91.1367 147.962 91.0433 147.547 90.8564C147.132 90.665 146.777 90.4007 146.48 90.0635C146.189 89.7217 145.965 89.3229 145.811 88.8672C145.656 88.4115 145.578 87.917 145.578 87.3838ZM146.843 87.2266V87.3838C146.843 87.7529 146.886 88.1016 146.973 88.4297C147.059 88.7533 147.189 89.0404 147.362 89.291C147.54 89.5417 147.761 89.7399 148.025 89.8857C148.29 90.027 148.597 90.0977 148.948 90.0977C149.295 90.0977 149.598 90.027 149.857 89.8857C150.122 89.7399 150.34 89.5417 150.514 89.291C150.687 89.0404 150.817 88.7533 150.903 88.4297C150.994 88.1016 151.04 87.7529 151.04 87.3838V87.2266C151.04 86.862 150.994 86.5179 150.903 86.1943C150.817 85.8662 150.685 85.5768 150.507 85.3262C150.334 85.071 150.115 84.8704 149.851 84.7246C149.591 84.5788 149.285 84.5059 148.935 84.5059C148.588 84.5059 148.283 84.5788 148.019 84.7246C147.759 84.8704 147.54 85.071 147.362 85.3262C147.189 85.5768 147.059 85.8662 146.973 86.1943C146.886 86.5179 146.843 86.862 146.843 87.2266ZM158.149 89.3184L160.665 83.6035H161.882L158.587 91H157.712L154.431 83.6035H155.647L158.149 89.3184ZM155.278 83.6035V91H154.014V83.6035H155.278ZM160.979 91V83.6035H162.251V91H160.979ZM169.217 83.6035V84.6494H165.478V83.6035H169.217ZM165.662 83.6035V91H164.397V83.6035H165.662ZM170.338 83.6035V91H169.066V83.6035H170.338ZM176.729 89.7354V85.9277C176.729 85.6361 176.67 85.3831 176.552 85.1689C176.438 84.9502 176.265 84.7816 176.032 84.6631C175.8 84.5446 175.513 84.4854 175.171 84.4854C174.852 84.4854 174.572 84.54 174.33 84.6494C174.093 84.7588 173.906 84.9023 173.77 85.0801C173.637 85.2578 173.571 85.4492 173.571 85.6543H172.307C172.307 85.39 172.375 85.1279 172.512 84.8682C172.648 84.6084 172.844 84.3737 173.1 84.1641C173.359 83.9499 173.669 83.7812 174.029 83.6582C174.394 83.5306 174.799 83.4668 175.246 83.4668C175.784 83.4668 176.258 83.5579 176.668 83.7402C177.083 83.9225 177.406 84.1982 177.639 84.5674C177.876 84.932 177.994 85.39 177.994 85.9414V89.3867C177.994 89.6328 178.015 89.8949 178.056 90.1729C178.101 90.4508 178.167 90.6901 178.254 90.8906V91H176.935C176.871 90.8542 176.821 90.6605 176.784 90.4189C176.748 90.1729 176.729 89.945 176.729 89.7354ZM176.948 86.5156L176.962 87.4043H175.684C175.324 87.4043 175.002 87.4339 174.72 87.4932C174.437 87.5479 174.2 87.6322 174.009 87.7461C173.817 87.86 173.672 88.0036 173.571 88.1768C173.471 88.3454 173.421 88.5436 173.421 88.7715C173.421 89.0039 173.473 89.2158 173.578 89.4072C173.683 89.5986 173.84 89.7513 174.05 89.8652C174.264 89.9746 174.526 90.0293 174.836 90.0293C175.223 90.0293 175.565 89.9473 175.861 89.7832C176.158 89.6191 176.392 89.4186 176.565 89.1816C176.743 88.9447 176.839 88.7145 176.853 88.4912L177.393 89.0996C177.361 89.291 177.274 89.5029 177.133 89.7354C176.992 89.9678 176.802 90.1911 176.565 90.4053C176.333 90.6149 176.055 90.7904 175.731 90.9316C175.412 91.0684 175.052 91.1367 174.651 91.1367C174.15 91.1367 173.71 91.0387 173.332 90.8428C172.958 90.6468 172.667 90.3848 172.457 90.0566C172.252 89.724 172.149 89.3525 172.149 88.9424C172.149 88.5459 172.227 88.1973 172.382 87.8965C172.537 87.5911 172.76 87.3382 173.052 87.1377C173.343 86.9326 173.694 86.7777 174.104 86.6729C174.515 86.568 174.973 86.5156 175.479 86.5156H176.948ZM185.001 86.8096V87.835H181.091V86.8096H185.001ZM181.357 83.6035V91H180.093V83.6035H181.357ZM186.026 83.6035V91H184.755V83.6035H186.026ZM189.431 88.9971L192.842 83.6035H194.113V91H192.842V85.6064L189.431 91H188.173V83.6035H189.431V88.9971ZM197.641 87.4727H199.008L196.868 91H195.501L197.641 87.4727ZM198.7 83.6035H201.79V91H200.525V84.6289H198.7C198.34 84.6289 198.046 84.6904 197.818 84.8135C197.59 84.932 197.424 85.0869 197.319 85.2783C197.215 85.4697 197.162 85.668 197.162 85.873C197.162 86.0736 197.21 86.2673 197.306 86.4541C197.401 86.6364 197.552 86.7868 197.757 86.9053C197.962 87.0238 198.226 87.083 198.55 87.083H200.867V88.1221H198.55C198.126 88.1221 197.75 88.0651 197.422 87.9512C197.094 87.8372 196.816 87.68 196.588 87.4795C196.36 87.2744 196.187 87.0352 196.068 86.7617C195.95 86.4837 195.891 86.1829 195.891 85.8594C195.891 85.5358 195.952 85.2373 196.075 84.9639C196.203 84.6904 196.385 84.4512 196.622 84.2461C196.864 84.041 197.158 83.8838 197.504 83.7744C197.855 83.6605 198.254 83.6035 198.7 83.6035Z" fill="black"/>
<defs>
<linearGradient id="paint0_linear_11_395" x1="12" y1="31" x2="211.463" y2="48.4992" gradientUnits="userSpaceOnUse">
<stop offset="0.0796187" stop-color="#E7B97E"/>
<stop offset="0.993526" stop-color="#1EAB5F"/>
</linearGradient>
<linearGradient id="paint1_linear_11_395" x1="17" y1="31.8085" x2="211.783" y2="51.4649" gradientUnits="userSpaceOnUse">
<stop stop-color="#E7B97E"/>
<stop offset="1" stop-color="#1EAB5F"/>
</linearGradient>
</defs>
</svg>
