<svg width="249" height="57" viewBox="0 0 249 57" fill="none" xmlns="http://www.w3.org/2000/svg">
<g filter="url(#filter0_i_1_29)">
<path d="M0 49.0271C0 32.7525 0 16.6263 0 0.5C2.4666 0.5 4.9332 0.5 7.39979 0.5C7.37176 6.80222 7.39979 13.1786 7.39979 19.592C12.2489 19.6291 17.098 19.6291 21.9471 19.6291C21.9191 13.2157 21.9191 6.83929 21.9191 0.5C24.4137 0.5 26.9083 0.5 29.3749 0.5C29.3749 16.6633 29.3469 32.8638 29.3469 49.1012C26.8803 49.1012 24.3577 49.0642 21.9471 49.0271C21.9191 41.9464 21.8911 34.7915 21.9191 27.7849C17.098 27.8591 12.1648 27.8591 7.39979 27.8591C7.39979 34.7915 7.37176 41.9464 7.39979 49.0642C4.9332 49.0271 2.43857 48.99 0 49.0271Z" fill="#1EAB5F"/>
</g>
<path d="M14.6876 37.3256C17.2767 37.1133 19.8758 36.8765 22.4851 36.6151C22.9705 39.7265 23.9111 42.0295 25.3371 43.5729C26.7934 45.0919 28.7352 45.8758 31.1624 45.9003C33.7413 45.8758 35.6831 45.1409 36.9877 43.8179C38.3227 42.4214 38.9599 40.878 38.9599 39.1631C38.9599 38.0606 38.6868 37.1296 38.1407 36.3456C37.5946 35.5617 36.6237 34.8757 35.2584 34.3122C34.3178 33.9202 32.1636 33.2343 28.8262 32.2543C24.5179 31.0048 21.5142 29.4859 19.7848 27.7219C17.3272 25.2965 16.1136 22.3076 16.1136 18.6572C16.1136 16.2563 16.6901 13.9289 17.8127 11.626C18.9656 9.20054 20.6343 7.19161 22.7885 5.69716C24.9426 4.15371 27.5519 3.32074 30.6163 3.19824C35.6224 3.41873 39.3543 5.32967 41.8725 8.58806C44.3908 11.724 45.7258 15.4478 45.8471 19.7842C43.1772 19.6862 40.5072 19.6127 37.8373 19.5637C37.5035 17.0648 36.745 15.2028 35.6224 14.0269C34.4998 12.8264 32.8008 12.1894 30.5253 12.1649C28.2194 12.2139 26.3686 12.8999 25.064 14.1494C24.2145 15.0069 23.7897 16.0603 23.7897 17.3588C23.7897 18.5102 24.1841 19.4412 24.973 20.2252C26.0046 21.2296 28.4621 22.2341 32.3457 23.3856C36.2596 24.537 39.1419 25.7865 40.9927 27.0115C42.8738 28.2119 44.3604 29.7799 45.392 31.7643C46.4539 33.6997 47 36.0517 47 38.8691C47 41.4415 46.3629 43.9159 45.0886 46.3413C43.8447 48.7912 42.0546 50.7757 39.7184 52.1966C37.4125 53.6176 34.5302 54.426 31.0714 54.4995C26.0652 54.3526 22.1817 52.5886 19.5117 49.4527C16.8114 46.4148 15.2034 42.3969 14.6876 37.3256Z" fill="#1EAB5F"/>
<path d="M71.7094 23.9993C71.7094 24.4345 71.7094 24.6522 71.8514 24.7626C71.9934 24.873 72.2043 24.8194 72.6261 24.7121L145.274 6.23951C145.875 6.08669 146.176 6.01028 146.482 6.01028C146.789 6.01028 147.09 6.08669 147.691 6.23951L220.339 24.7121C220.761 24.8194 220.972 24.873 221.114 24.7626C221.256 24.6522 221.256 24.4345 221.256 23.9993V23.3254C221.256 21.4939 221.256 20.5782 220.739 19.9143C220.223 19.2504 219.336 19.0248 217.561 18.5734L147.691 0.80724C147.09 0.654422 146.789 0.578013 146.482 0.578013C146.176 0.578013 145.875 0.654422 145.274 0.807241L75.4043 18.5734C73.6293 19.0248 72.7418 19.2504 72.2256 19.9143C71.7094 20.5782 71.7094 21.4939 71.7094 23.3254V23.9993Z" fill="#1EAB5F"/>
<rect x="178.528" y="0.5" width="7.12125" height="12.2226" rx="1.22579" fill="#1EAB5F"/>
<path d="M68.7441 31.54C70.1094 31.54 71.3041 31.8067 72.3281 32.34C73.3734 32.852 74.1841 33.6413 74.7601 34.708C75.3574 35.7747 75.6561 37.1187 75.6561 38.74V48.5H73.3841V38.964C73.3841 37.1933 72.9361 35.86 72.0401 34.964C71.1654 34.0467 69.9281 33.588 68.3281 33.588C67.1334 33.588 66.0881 33.8333 65.1921 34.324C64.3174 34.7933 63.6347 35.4867 63.1441 36.404C62.6747 37.3 62.4401 38.388 62.4401 39.668V48.5H60.1681V24.756H62.4401V36.308L61.9921 35.444C62.5254 34.228 63.3787 33.2787 64.5521 32.596C65.7254 31.892 67.1227 31.54 68.7441 31.54ZM88.6411 48.66C87.0197 48.66 85.5584 48.2973 84.2571 47.572C82.9771 46.8253 81.9637 45.812 81.2171 44.532C80.4704 43.2307 80.0971 41.748 80.0971 40.084C80.0971 38.3987 80.4704 36.916 81.2171 35.636C81.9637 34.356 82.9771 33.3533 84.2571 32.628C85.5371 31.9027 86.9984 31.54 88.6411 31.54C90.3051 31.54 91.7771 31.9027 93.0571 32.628C94.3584 33.3533 95.3717 34.356 96.0971 35.636C96.8437 36.916 97.2171 38.3987 97.2171 40.084C97.2171 41.748 96.8437 43.2307 96.0971 44.532C95.3717 45.812 94.3584 46.8253 93.0571 47.572C91.7557 48.2973 90.2837 48.66 88.6411 48.66ZM88.6411 46.644C89.8571 46.644 90.9344 46.3773 91.8731 45.844C92.8117 45.2893 93.5477 44.5213 94.0811 43.54C94.6357 42.5373 94.9131 41.3853 94.9131 40.084C94.9131 38.7613 94.6357 37.6093 94.0811 36.628C93.5477 35.6467 92.8117 34.8893 91.8731 34.356C90.9344 33.8013 89.8677 33.524 88.6731 33.524C87.4784 33.524 86.4117 33.8013 85.4731 34.356C84.5344 34.8893 83.7877 35.6467 83.2331 36.628C82.6784 37.6093 82.4011 38.7613 82.4011 40.084C82.4011 41.3853 82.6784 42.5373 83.2331 43.54C83.7877 44.5213 84.5344 45.2893 85.4731 45.844C86.4117 46.3773 87.4677 46.644 88.6411 46.644ZM108.8 48.66C107.37 48.66 106.122 48.3933 105.056 47.86C103.989 47.3267 103.157 46.5267 102.56 45.46C101.984 44.3933 101.696 43.06 101.696 41.46V31.7H103.968V41.204C103.968 42.996 104.405 44.3507 105.28 45.268C106.176 46.164 107.424 46.612 109.024 46.612C110.197 46.612 111.21 46.3773 112.064 45.908C112.938 45.4173 113.6 44.7133 114.048 43.796C114.517 42.8787 114.752 41.78 114.752 40.5V31.7H117.024V48.5H114.848V43.892L115.2 44.724C114.666 45.9613 113.834 46.932 112.704 47.636C111.594 48.3187 110.293 48.66 108.8 48.66ZM127.868 48.66C126.481 48.66 125.169 48.468 123.932 48.084C122.694 47.6787 121.724 47.1773 121.02 46.58L122.044 44.788C122.726 45.3 123.601 45.748 124.668 46.132C125.734 46.4947 126.854 46.676 128.028 46.676C129.628 46.676 130.78 46.4307 131.484 45.94C132.188 45.428 132.54 44.756 132.54 43.924C132.54 43.3053 132.337 42.8253 131.932 42.484C131.548 42.1213 131.036 41.8547 130.396 41.684C129.756 41.492 129.041 41.332 128.252 41.204C127.462 41.076 126.673 40.9267 125.884 40.756C125.116 40.5853 124.412 40.34 123.772 40.02C123.132 39.6787 122.609 39.22 122.204 38.644C121.82 38.068 121.628 37.3 121.628 36.34C121.628 35.4227 121.884 34.6013 122.396 33.876C122.908 33.1507 123.654 32.5853 124.636 32.18C125.638 31.7533 126.854 31.54 128.284 31.54C129.372 31.54 130.46 31.6893 131.548 31.988C132.636 32.2653 133.532 32.6387 134.236 33.108L133.244 34.932C132.497 34.42 131.697 34.0573 130.844 33.844C129.99 33.6093 129.137 33.492 128.284 33.492C126.769 33.492 125.649 33.7587 124.924 34.292C124.22 34.804 123.868 35.4653 123.868 36.276C123.868 36.916 124.06 37.4173 124.444 37.78C124.849 38.1427 125.372 38.4307 126.012 38.644C126.673 38.836 127.388 38.996 128.156 39.124C128.945 39.252 129.724 39.412 130.492 39.604C131.281 39.7747 131.996 40.02 132.636 40.34C133.297 40.6387 133.82 41.076 134.204 41.652C134.609 42.2067 134.812 42.9427 134.812 43.86C134.812 44.8413 134.534 45.6947 133.98 46.42C133.446 47.124 132.657 47.6787 131.612 48.084C130.588 48.468 129.34 48.66 127.868 48.66ZM146.117 48.66C144.367 48.66 142.831 48.2973 141.509 47.572C140.186 46.8253 139.151 45.812 138.405 44.532C137.658 43.2307 137.285 41.748 137.285 40.084C137.285 38.42 137.637 36.948 138.341 35.668C139.066 34.388 140.047 33.3853 141.285 32.66C142.543 31.9133 143.951 31.54 145.509 31.54C147.087 31.54 148.485 31.9027 149.701 32.628C150.938 33.332 151.909 34.3347 152.613 35.636C153.317 36.916 153.669 38.3987 153.669 40.084C153.669 40.1907 153.658 40.308 153.637 40.436C153.637 40.5427 153.637 40.66 153.637 40.788H139.013V39.092H152.421L151.525 39.764C151.525 38.548 151.258 37.4707 150.725 36.532C150.213 35.572 149.509 34.8253 148.613 34.292C147.717 33.7587 146.682 33.492 145.509 33.492C144.357 33.492 143.322 33.7587 142.405 34.292C141.487 34.8253 140.773 35.572 140.261 36.532C139.749 37.492 139.493 38.5907 139.493 39.828V40.18C139.493 41.46 139.77 42.5907 140.325 43.572C140.901 44.532 141.69 45.2893 142.693 45.844C143.717 46.3773 144.879 46.644 146.181 46.644C147.205 46.644 148.154 46.4627 149.029 46.1C149.925 45.7373 150.693 45.1827 151.333 44.436L152.613 45.908C151.866 46.804 150.927 47.4867 149.797 47.956C148.687 48.4253 147.461 48.66 146.117 48.66ZM157.358 40.82V38.836H165.742V40.82H157.358ZM175.336 48.66C173.95 48.66 172.638 48.468 171.4 48.084C170.163 47.6787 169.192 47.1773 168.488 46.58L169.512 44.788C170.195 45.3 171.07 45.748 172.136 46.132C173.203 46.4947 174.323 46.676 175.496 46.676C177.096 46.676 178.248 46.4307 178.952 45.94C179.656 45.428 180.008 44.756 180.008 43.924C180.008 43.3053 179.806 42.8253 179.4 42.484C179.016 42.1213 178.504 41.8547 177.864 41.684C177.224 41.492 176.51 41.332 175.72 41.204C174.931 41.076 174.142 40.9267 173.352 40.756C172.584 40.5853 171.88 40.34 171.24 40.02C170.6 39.6787 170.078 39.22 169.672 38.644C169.288 38.068 169.096 37.3 169.096 36.34C169.096 35.4227 169.352 34.6013 169.864 33.876C170.376 33.1507 171.123 32.5853 172.104 32.18C173.107 31.7533 174.323 31.54 175.752 31.54C176.84 31.54 177.928 31.6893 179.016 31.988C180.104 32.2653 181 32.6387 181.704 33.108L180.712 34.932C179.966 34.42 179.166 34.0573 178.312 33.844C177.459 33.6093 176.606 33.492 175.752 33.492C174.238 33.492 173.118 33.7587 172.392 34.292C171.688 34.804 171.336 35.4653 171.336 36.276C171.336 36.916 171.528 37.4173 171.912 37.78C172.318 38.1427 172.84 38.4307 173.48 38.644C174.142 38.836 174.856 38.996 175.624 39.124C176.414 39.252 177.192 39.412 177.96 39.604C178.75 39.7747 179.464 40.02 180.104 40.34C180.766 40.6387 181.288 41.076 181.672 41.652C182.078 42.2067 182.28 42.9427 182.28 43.86C182.28 44.8413 182.003 45.6947 181.448 46.42C180.915 47.124 180.126 47.6787 179.08 48.084C178.056 48.468 176.808 48.66 175.336 48.66ZM191.761 48.66C190.183 48.66 188.967 48.2333 188.113 47.38C187.26 46.5267 186.833 45.3213 186.833 43.764V27.988H189.105V43.636C189.105 44.6173 189.351 45.3747 189.841 45.908C190.353 46.4413 191.079 46.708 192.017 46.708C193.02 46.708 193.852 46.42 194.513 45.844L195.313 47.476C194.865 47.8813 194.321 48.18 193.681 48.372C193.063 48.564 192.423 48.66 191.761 48.66ZM183.825 33.588V31.7H194.225V33.588H183.825ZM205.704 48.66C204.082 48.66 202.621 48.2973 201.32 47.572C200.04 46.8253 199.026 45.812 198.28 44.532C197.533 43.2307 197.16 41.748 197.16 40.084C197.16 38.3987 197.533 36.916 198.28 35.636C199.026 34.356 200.04 33.3533 201.32 32.628C202.6 31.9027 204.061 31.54 205.704 31.54C207.368 31.54 208.84 31.9027 210.12 32.628C211.421 33.3533 212.434 34.356 213.16 35.636C213.906 36.916 214.28 38.3987 214.28 40.084C214.28 41.748 213.906 43.2307 213.16 44.532C212.434 45.812 211.421 46.8253 210.12 47.572C208.818 48.2973 207.346 48.66 205.704 48.66ZM205.704 46.644C206.92 46.644 207.997 46.3773 208.936 45.844C209.874 45.2893 210.61 44.5213 211.144 43.54C211.698 42.5373 211.976 41.3853 211.976 40.084C211.976 38.7613 211.698 37.6093 211.144 36.628C210.61 35.6467 209.874 34.8893 208.936 34.356C207.997 33.8013 206.93 33.524 205.736 33.524C204.541 33.524 203.474 33.8013 202.536 34.356C201.597 34.8893 200.85 35.6467 200.296 36.628C199.741 37.6093 199.464 38.7613 199.464 40.084C199.464 41.3853 199.741 42.5373 200.296 43.54C200.85 44.5213 201.597 45.2893 202.536 45.844C203.474 46.3773 204.53 46.644 205.704 46.644ZM218.918 48.5V31.7H221.094V36.276L220.87 35.476C221.339 34.196 222.129 33.2253 223.238 32.564C224.347 31.8813 225.723 31.54 227.366 31.54V33.748C227.281 33.748 227.195 33.748 227.11 33.748C227.025 33.7267 226.939 33.716 226.854 33.716C225.083 33.716 223.697 34.26 222.694 35.348C221.691 36.4147 221.19 37.94 221.19 39.924V48.5H218.918ZM232.359 54.868C231.569 54.868 230.812 54.74 230.087 54.484C229.383 54.228 228.775 53.844 228.263 53.332L229.319 51.636C229.745 52.0413 230.204 52.3507 230.695 52.564C231.207 52.7987 231.772 52.916 232.391 52.916C233.137 52.916 233.777 52.7027 234.311 52.276C234.865 51.8707 235.388 51.1453 235.879 50.1L236.967 47.636L237.223 47.284L244.135 31.7H246.375L237.959 50.516C237.489 51.604 236.967 52.468 236.391 53.108C235.836 53.748 235.228 54.196 234.567 54.452C233.905 54.7293 233.169 54.868 232.359 54.868ZM236.839 48.98L229.095 31.7H231.463L238.311 47.124L236.839 48.98Z" fill="#1EAB5F"/>
<defs>
<filter id="filter0_i_1_29" x="0" y="0.5" width="39.1812" height="48.6013" filterUnits="userSpaceOnUse" color-interpolation-filters="sRGB">
<feFlood flood-opacity="0" result="BackgroundImageFix"/>
<feBlend mode="normal" in="SourceGraphic" in2="BackgroundImageFix" result="shape"/>
<feColorMatrix in="SourceAlpha" type="matrix" values="0 0 0 0 0 0 0 0 0 0 0 0 0 0 0 0 0 0 127 0" result="hardAlpha"/>
<feOffset dx="9.8063"/>
<feGaussianBlur stdDeviation="4.90315"/>
<feComposite in2="hardAlpha" operator="arithmetic" k2="-1" k3="1"/>
<feColorMatrix type="matrix" values="0 0 0 0 0 0 0 0 0 0 0 0 0 0 0 0 0 0 0.5 0"/>
<feBlend mode="normal" in2="shape" result="effect1_innerShadow_1_29"/>
</filter>
</defs>
</svg>
