<svg width="31" height="30" viewBox="0 0 31 30" fill="none" xmlns="http://www.w3.org/2000/svg">
<circle cx="15.6667" cy="15" r="15" fill="white"/>
<circle cx="15.6667" cy="15" r="12.5" fill="#FD2424"/>
<path fill-rule="evenodd" clip-rule="evenodd" d="M8.4596 9.79289C8.1667 10.0858 8.1667 10.5572 8.1667 11.5V19.1667C8.1667 20.1095 8.1667 20.5809 8.4596 20.8738C8.75249 21.1667 9.22389 21.1667 10.1667 21.1667H21.1667C22.1095 21.1667 22.5809 21.1667 22.8738 20.8738C23.1667 20.5809 23.1667 20.1095 23.1667 19.1667V11.5C23.1667 10.5572 23.1667 10.0858 22.8738 9.79289C22.5809 9.5 22.1095 9.5 21.1667 9.5H10.1667C9.22389 9.5 8.75249 9.5 8.4596 9.79289ZM10.9441 12.4173C10.7143 12.2641 10.4039 12.3262 10.2507 12.556C10.0975 12.7857 10.1596 13.0962 10.3894 13.2494L14.8347 16.2129C15.3385 16.5488 15.9949 16.5488 16.4988 16.2129L20.9441 13.2494C21.1738 13.0962 21.2359 12.7857 21.0827 12.556C20.9296 12.3262 20.6191 12.2641 20.3894 12.4173L15.9441 15.3808C15.7761 15.4928 15.5573 15.4928 15.3894 15.3808L10.9441 12.4173Z" fill="white"/>
</svg>
