<svg width="48" height="48" viewBox="0 0 48 48" fill="none" xmlns="http://www.w3.org/2000/svg">
<path d="M24.5796 0C7.18007 0 6.60132 21.0711 0.22168 29.2655C0.22168 32.777 9.50106 43.3118 18.7808 45.6537C20.6075 47.088 22.5499 48 24.5796 48C26.4199 48 28.1879 47.2515 29.8637 46.0442C39.1178 43.6697 47.7802 33.3585 47.7802 31.6067C47.7793 24.5819 43.7273 0 24.5796 0ZM28.0603 11.1227L29.2194 16.3899C31.6509 16.3899 33.4946 14.6895 34.3978 13.6565C35.5697 15.8601 36.174 18.6274 36.174 21.6571V25.8234L36.5984 26.3188C36.5984 26.3188 37.3347 27.1644 37.3347 28.6806C37.3347 30.6412 35.7052 31.9593 35.7052 31.9593L35.2859 32.281L35.112 32.7833C33.9707 36.0915 32.0543 39.1217 30.0154 41.25C27.9765 43.3783 25.7938 44.4771 24.5796 44.4771C23.3655 44.4771 21.1845 43.3783 19.1455 41.25C17.1066 39.1217 15.1898 36.0918 14.049 32.7833L13.8751 32.2792L13.4558 31.9576C13.4558 31.9576 11.8262 30.6395 11.8262 28.6789C11.8262 27.1627 12.5626 26.3188 12.5626 26.3188L12.987 25.8217V21.6571C12.987 21.4559 13.0005 21.2608 13.0058 21.0619C13.0841 21.0355 23.4384 17.5366 28.0603 11.1227Z" fill="#1EAB5F"/>
</svg>
