<svg width="30" height="36" viewBox="0 0 30 36" fill="none" xmlns="http://www.w3.org/2000/svg">
<path d="M7.88559 25.9434L7.89014 25.9497L7.89487 25.9559C8.623 26.9024 9.72833 27.501 10.9269 27.501H11.8269C11.8503 27.501 11.8828 27.5101 11.9194 27.5413C11.9591 27.5754 11.9795 27.6159 11.9847 27.6366L12.0222 27.7867H10.4769C10.1683 27.7867 9.8679 27.6778 9.73759 27.5475L9.70911 27.519L9.67644 27.4954L4.87028 24.0305L6.12551 23.502L7.88559 25.9434Z" stroke="#CBBDAB"/>
<path d="M8.35469 8.85742H19.9261C20.2531 8.85742 20.5505 8.96187 20.7864 9.14314H7.49435C7.73032 8.96187 8.02772 8.85742 8.35469 8.85742Z" stroke="#CBBDAB"/>
<path d="M16.7118 6.28571H17.2118V5.78571V2.47425C18.9965 3.30113 20.3333 4.86045 20.9654 6.72106C20.6271 6.6208 20.2754 6.57143 19.9261 6.57143H8.35469C7.99555 6.57143 7.63378 6.62363 7.28682 6.72968C7.88664 4.83894 9.2584 3.29849 11.069 2.47201V5.78571V6.28571H11.569H12.8547H13.3547V5.78571V0.642857C13.3547 0.563624 13.3789 0.536449 13.385 0.530339C13.3911 0.524229 13.4183 0.5 13.4975 0.5H14.7833C14.8625 0.5 14.8897 0.524229 14.8958 0.530339C14.9019 0.536449 14.9261 0.563624 14.9261 0.642857V5.78571V6.28571H15.4261H16.7118Z" stroke="#CBBDAB"/>
<path d="M18.6669 27.4965L18.6592 27.5022L18.6516 27.5083C18.4335 27.6828 18.0993 27.7844 17.8068 27.7844H16.2113L16.2412 27.6053C16.2514 27.5596 16.2699 27.5392 16.2836 27.5285C16.2996 27.5159 16.3326 27.4987 16.3925 27.4987H17.2925C18.5447 27.4987 19.6633 26.908 20.3375 25.936L22.1671 23.363L22.6425 23.5479V24.5607L18.6669 27.4965Z" stroke="#CBBDAB"/>
<path d="M25.7154 21.457C26.0201 21.457 26.2551 21.5336 26.3995 21.6162C26.4474 21.6435 26.4802 21.6686 26.5011 21.6873V23.7539L24.9297 25.9539V21.6873C24.9506 21.6686 24.9834 21.6435 25.0313 21.6162C25.1757 21.5336 25.4107 21.457 25.7154 21.457ZM26.5298 21.718C26.5297 21.718 26.5289 21.7169 26.5275 21.7146C26.5292 21.7169 26.5299 21.718 26.5298 21.718ZM24.901 21.718C24.9009 21.718 24.9016 21.7169 24.9034 21.7146C24.9019 21.7169 24.9011 21.718 24.901 21.718Z" stroke="#CBBDAB"/>
<path d="M8.2154 15.1725V14.8921L7.97613 14.7459L6.92969 14.1064V13.0368L7.36185 13.469L8.2154 14.3225V13.1154V11.4297H20.0725V13.1154V14.467L20.9522 13.4408L21.294 13.042V14.1064L20.2475 14.7459L20.0083 14.8921V15.1725V15.5583C20.0083 16.9848 19.2063 18.357 17.9565 19.0397L16.0334 20.0653C16.0329 20.0656 16.0323 20.0659 16.0318 20.0662C14.828 20.6961 13.3957 20.6961 12.1918 20.0662C12.1913 20.0659 12.1908 20.0656 12.1903 20.0653L10.2671 19.0396C9.0138 18.3551 8.2154 17.045 8.2154 15.5583V15.1725Z" stroke="#CBBDAB"/>
<path d="M25.9366 32.9296L26.5007 32.0744V32.9296H25.9366Z" stroke="#CBBDAB"/>
<path d="M29.0725 24.1247V35.5002H20.9032L28.4794 24.9287H28.5121L27.8713 25.8864L22.1499 34.4364L21.6292 35.2145H22.5654H28.2868H28.7868V34.7145V26.1645V24.9287V24.5247L29.0725 24.1247Z" stroke="#CBBDAB"/>
<path d="M19.9482 29.345L19.956 29.3398L19.9636 29.3344L22.6423 27.3998V29.1532L18.065 35.5004H15.2852V30.0719H17.8066C18.5805 30.0719 19.3193 29.7643 19.9482 29.345Z" stroke="#CBBDAB"/>
<path d="M6.28516 35.2148H9.78515V35.5006H6.28516V35.2148Z" stroke="#CBBDAB"/>
<path d="M6.28516 32.6426H9.78515V32.9283H6.28516V32.6426Z" stroke="#CBBDAB"/>
<path d="M18.4954 24.5856L18.4853 24.5996L18.4762 24.6141C18.2489 24.9779 17.833 25.2148 17.3574 25.2148H16.4574C15.3885 25.2148 14.4414 25.8778 14.1431 26.9319C13.8448 25.8778 12.8977 25.2148 11.8288 25.2148H10.9288C10.5345 25.2148 10.0965 24.991 9.78888 24.583L8.36151 22.5949L10.3864 21.7665L11.1398 22.1683C13.0245 23.2137 15.2617 23.2137 17.1464 22.1683L17.907 21.7627L19.9755 22.5441L18.4954 24.5856Z" stroke="#CBBDAB"/>
<path d="M10.4786 30.0709H13V35.4352H12.0714V30.7924V30.2924H11.5714H7.26896L6.84935 28.6139L6.7439 28.1921L8.30331 29.3202C8.9246 29.8551 9.68626 30.0709 10.4786 30.0709ZM2.57202 25.1742L6.66904 28.138L6.23704 28.2517L5.01561 28.5731L4.538 28.6988L4.65778 29.1779L4.95247 30.3566H4.5H4V30.8566V35.4995H0.5V29.3781C0.5 27.7326 1.26897 26.1867 2.57202 25.1742Z" stroke="#CBBDAB"/>
</svg>
