<svg width="48" height="48" viewBox="0 0 48 48" fill="none" xmlns="http://www.w3.org/2000/svg">
<path d="M38.4004 2.39963L39.6004 2.39963C42.4288 2.39963 43.843 2.39963 44.7217 3.27831C45.6004 4.15698 45.6004 5.5712 45.6004 8.39963L45.6004 15.7996C45.6004 16.271 45.6004 16.5067 45.4539 16.6532C45.3075 16.7996 45.0718 16.7996 44.6004 16.7996L31.2004 16.7996M38.4004 2.39963L37.2004 2.39963C34.372 2.39963 32.9578 2.39963 32.0791 3.27831C31.2004 4.15699 31.2004 5.5712 31.2004 8.39962L31.2004 16.7996M38.4004 2.39963L6.40039 2.39963C4.51477 2.39963 3.57196 2.39963 2.98618 2.98541C2.40039 3.5712 2.40039 4.51401 2.40039 6.39963L2.40039 45.5996L9.60039 43.1996L16.8004 45.5996L24.0004 43.1996L31.2004 45.5996L31.2004 16.7996" stroke="#1EAB5F" stroke-width="3"/>
<path d="M12 12L21.6 12" stroke="#1EAB5F" stroke-width="3" stroke-linecap="round"/>
<path d="M14.4004 21.5996H12.0004" stroke="#1EAB5F" stroke-width="3" stroke-linecap="round"/>
<path d="M12 31.2002L19.2 31.2002" stroke="#1EAB5F" stroke-width="3" stroke-linecap="round"/>
</svg>
