<svg width="17" height="20" viewBox="0 0 17 20" fill="none" xmlns="http://www.w3.org/2000/svg">
<path d="M12.6651 10.6769C11.585 8.61617 4.41863 4.02502 4.41863 4.02502C4.41863 4.02502 4.1153 12.5247 5.19547 14.5854C6.27564 16.6461 8.69853 16.7821 10.7611 15.7029C12.8237 14.6237 13.7453 12.738 12.6651 10.6769ZM9.19826 12.9633C8.54666 13.3042 7.78147 13.2614 7.44028 12.6104C7.09908 11.9593 7.19478 9.27466 7.19478 9.27466C7.19478 9.27466 9.45831 10.7247 9.79951 11.3757C10.1407 12.0267 9.84986 12.6224 9.19826 12.9633Z" fill="#F0FCF6"/>
<path d="M10.4758 18.9825C10.2785 19.0012 10.0785 19.0092 9.87494 19.007C9.43818 19.0019 9.08874 18.6438 9.0939 18.2078C9.09904 17.7714 9.45797 17.4222 9.8939 17.4274C12.3472 17.4568 13.286 15.3535 13.2952 15.3321C13.4684 14.9317 13.9336 14.7473 14.3343 14.9203C14.735 15.0933 14.9196 15.5581 14.7464 15.9585C14.7113 16.0398 14.3816 16.7729 13.6351 17.5071C12.7635 18.3652 11.6803 18.8688 10.4758 18.9825Z" fill="#F0FCF6"/>
</svg>
