<svg width="26" height="27" viewBox="0 0 26 27" fill="none" xmlns="http://www.w3.org/2000/svg">
<circle cx="13" cy="13" r="12.5" fill="#58DC00"/>
<path d="M19.8809 13.2598C20.0636 11.8717 19.7832 10.462 19.0831 9.24938C18.383 8.0368 17.3024 7.08911 16.0088 6.55329C14.7152 6.01747 13.281 5.92346 11.9285 6.28585" stroke="white" stroke-linecap="round"/>
<path d="M16.9775 12.4681C17.0678 11.7822 16.9292 11.0856 16.5833 10.4865C16.2374 9.88731 15.7034 9.41904 15.0642 9.15428C14.4251 8.88952 13.7164 8.84307 13.0481 9.02213" stroke="white" stroke-linecap="round"/>
<path d="M6.17962 6.55722L6.52974 6.20711C6.92026 5.81658 7.55342 5.81658 7.94395 6.20711L10.3192 8.58237C10.7097 8.97289 10.7097 9.60606 10.3192 9.99658L8.65835 11.6574C8.3752 11.9406 8.305 12.3732 8.48408 12.7313C9.51933 14.8018 11.1982 16.4807 13.2687 17.5159C13.6268 17.695 14.0594 17.6248 14.3426 17.3416L16.0034 15.6808C16.3939 15.2903 17.0271 15.2903 17.4176 15.6808L19.7929 18.0561C20.1834 18.4466 20.1834 19.0797 19.7929 19.4703L19.4428 19.8204C17.3314 21.9317 13.9889 22.1693 11.6001 20.3777L10.8128 19.7872C9.06925 18.4796 7.52043 16.9307 6.21278 15.1872L5.62226 14.3999C3.83072 12.0111 4.06827 8.66857 6.17962 6.55722Z" fill="white"/>
</svg>
