<svg width="22" height="22" viewBox="0 0 22 22" fill="none" xmlns="http://www.w3.org/2000/svg">
<path d="M2.34634 2.87301L4.01224 1.20711C4.40277 0.816582 5.03593 0.816582 5.42646 1.20711L8.85435 4.635C9.24487 5.02552 9.24487 5.65869 8.85435 6.04921L6.53572 8.36784C6.17392 8.72964 6.08422 9.28237 6.31305 9.74003C7.63586 12.3856 9.78107 14.5309 12.4267 15.8537C12.8843 16.0825 13.4371 15.9928 13.7989 15.631L16.1175 13.3124C16.508 12.9218 17.1412 12.9218 17.5317 13.3124L20.9596 16.7403C21.3501 17.1308 21.3501 17.764 20.9596 18.1545L19.2937 19.8204C17.1824 21.9317 13.8398 22.1693 11.4511 20.3777L8.55845 18.2083C6.81492 16.9006 5.26609 15.3518 3.95845 13.6083L1.78898 10.7156C-0.00256073 8.32693 0.23499 4.98436 2.34634 2.87301Z" fill="#1EAB5F"/>
</svg>
