<svg width="48" height="48" viewBox="0 0 48 48" fill="none" xmlns="http://www.w3.org/2000/svg">
<path d="M41 15C40.4696 15 39.9609 15.2107 39.5858 15.5858C39.2107 15.9609 39 16.4696 39 17C39 17.5304 39.2107 18.0391 39.5858 18.4142C39.9609 18.7893 40.4696 19 41 19C41.5304 19 42.0391 18.7893 42.4142 18.4142C42.7893 18.0391 43 17.5304 43 17C43 16.4696 42.7893 15.9609 42.4142 15.5858C42.0391 15.2107 41.5304 15 41 15Z" fill="#1EAB5F"/>
<path d="M18.1992 0C16.6198 0 15.1523 1.06531 14.3408 2.7975L11.5869 8.66625C11.3134 9.24604 10.8272 9.6 10.3008 9.6H3C1.36041 9.6 0 11.3413 0 13.44V44.16C0 46.2587 1.36041 48 3 48H45C46.6396 48 48 46.2587 48 44.16V13.44C48 11.3413 46.6396 9.6 45 9.6H37.6992C37.1696 9.6 36.6846 9.24949 36.4131 8.67V8.66625L33.6592 2.7975C32.8477 1.06531 31.3794 0 29.8008 0H18.1992ZM18.1992 3.84H29.8008C30.3281 3.84 30.8154 4.19051 31.0869 4.77V4.77375L33.8379 10.6425C34.6494 12.3746 36.1198 13.44 37.6992 13.44H45V44.16H3V13.44H10.3008C11.8794 13.44 13.3464 12.3764 14.1592 10.6462L14.1621 10.6425L16.9131 4.77375V4.77C17.1845 4.19069 17.6696 3.84 18.1992 3.84Z" fill="#1EAB5F"/>
<path d="M24 14C16.2917 14 10 20.2917 10 28C10 35.7083 16.2917 42 24 42C31.7083 42 38 35.7083 38 28C38 20.2917 31.7083 14 24 14ZM24 18C29.5465 18 34 22.4535 34 28C34 33.5465 29.5465 38 24 38C18.4535 38 14 33.5465 14 28C14 22.4535 18.4535 18 24 18Z" fill="#1EAB5F"/>
<path d="M4 4C2.896 4 2 4.896 2 6V8H10V6C10 4.896 9.104 4 8 4H4Z" fill="#1EAB5F"/>
</svg>
