<svg width="48" height="48" viewBox="0 0 48 48" fill="none" xmlns="http://www.w3.org/2000/svg">
<g clip-path="url(#clip0_11_689)">
<path d="M23.9193 25.3918L26.5238 22.7872C26.8238 23.1685 26.9772 23.509 27.0796 23.7905C27.1101 23.8744 27.1362 23.9535 27.1611 24.0294C27.1636 24.0372 27.1662 24.0451 27.1687 24.0529C27.1904 24.1194 27.212 24.1855 27.2339 24.2462C27.2806 24.3757 27.3421 24.5216 27.4515 24.6311C27.684 24.8635 27.9986 24.8741 28.2399 24.822C28.4815 24.7698 28.7152 24.6433 28.8554 24.5031L28.8555 24.5031C29.0544 24.3042 29.1042 24.0352 29.0822 23.7743C29.0603 23.5143 28.9658 23.2302 28.8346 22.9493C28.6026 22.4527 28.2342 21.9201 27.8437 21.4673L28.0356 21.2754C28.177 21.134 28.2088 20.9389 28.1905 20.7788C28.1718 20.6153 28.0981 20.4462 27.9716 20.3198C27.7123 20.0605 27.2825 19.9891 27.0159 20.2557L26.7906 20.481C26.1755 20.003 25.4387 19.6159 24.6469 19.5244C23.7632 19.4223 22.8401 19.6923 21.9822 20.5503C21.1085 21.4239 20.8743 22.3222 20.9722 23.2074C21.0609 24.0082 21.4217 24.7888 21.7669 25.5048L18.6756 28.596C18.1607 27.9597 18.0179 27.3868 17.9711 26.9253C17.9535 26.7518 17.9497 26.6069 17.9461 26.4675C17.944 26.3871 17.942 26.3084 17.9373 26.2272C17.9268 26.0418 17.9023 25.8003 17.7374 25.6354C17.5364 25.4343 17.2392 25.4027 17.0007 25.4346C16.7559 25.4673 16.4958 25.5753 16.3206 25.7505C16.1342 25.937 16.0262 26.2146 15.9817 26.5221C15.9365 26.8342 15.9526 27.2011 16.0369 27.5951C16.1937 28.3287 16.5902 29.1744 17.3028 29.9689L17.0508 30.2209C16.7842 30.4875 16.8558 30.9173 17.1149 31.1765L17.1149 31.1765C17.2414 31.303 17.4105 31.3768 17.5739 31.3954C17.734 31.4137 17.9291 31.3819 18.0705 31.2406L18.3801 30.931C19.1221 31.4518 19.9308 31.7397 20.7588 31.7107C21.6562 31.6793 22.543 31.2768 23.3606 30.4593L23.1838 30.2825L23.3606 30.4592C24.2833 29.5365 24.595 28.6066 24.5688 27.7023C24.545 26.8777 24.24 26.095 23.9193 25.3918ZM23.4628 21.8262L23.4628 21.8262C23.8204 21.4685 24.1894 21.3665 24.5574 21.4138C24.8711 21.4541 25.2016 21.6057 25.5332 21.841L23.3028 24.0714C23.1378 23.6839 23.0188 23.3329 22.9942 23.0013C22.9643 22.5996 23.0726 22.2163 23.4628 21.8262ZM21.8797 29.1835C21.4909 29.5722 21.0913 29.7554 20.6986 29.7783C20.3797 29.7969 20.0432 29.7112 19.697 29.5114L22.3438 26.8646C22.4651 27.2203 22.5347 27.5571 22.5177 27.8838C22.4956 28.3059 22.3273 28.7359 21.8797 29.1835Z" fill="#1EAB5F" stroke="#1EAB5F" stroke-width="0.5"/>
<path d="M43.9478 6.87497L36.9824 11.8224C36.7212 11.5368 36.499 11.3119 36.1928 11.0322L41.1769 4.01539C41.8913 3.00961 43.3387 2.88899 44.2097 3.76034C45.1057 4.65605 44.9793 6.14221 43.9478 6.87497Z" fill="#1EAB5F" stroke="#1EAB5F" stroke-width="2"/>
</g>
<defs>
<clipPath id="clip0_11_689">
<rect width="48" height="48" fill="white"/>
</clipPath>
</defs>
</svg>
