<svg width="22" height="22" viewBox="0 0 22 22" fill="none" xmlns="http://www.w3.org/2000/svg">
<path d="M13.7778 21V15.3333C13.7778 14.7811 13.3301 14.3333 12.7778 14.3333H9.22222C8.66994 14.3333 8.22222 14.7811 8.22222 15.3333V21" stroke="white" stroke-linecap="round" stroke-linejoin="round"/>
<path d="M3.22222 9.88889V17C3.22222 18.8856 3.22222 19.8284 3.80801 20.4142C4.39379 21 5.3366 21 7.22222 21H14.7778C16.6634 21 17.6062 21 18.192 20.4142C18.7778 19.8284 18.7778 18.8856 18.7778 17V9.88889" stroke="white"/>
<path d="M2.84349 2.51493C3.02538 1.78737 3.11633 1.42359 3.38759 1.21179C3.65885 1 4.03382 1 4.78378 1H17.2162C17.9662 1 18.3412 1 18.6124 1.21179C18.8837 1.42359 18.9746 1.78737 19.1565 2.51493L20.5359 8.03265C20.6751 8.58927 20.7447 8.86759 20.6986 9.09093C20.6356 9.39632 20.4338 9.65484 20.1528 9.79002C19.9473 9.88889 19.6552 9.88889 19.0712 9.88889V9.88889C18.2999 9.88889 17.9143 9.88889 17.5972 9.77941C17.1249 9.61638 16.7308 9.28248 16.4923 8.84343C16.3322 8.54861 16.2699 8.17484 16.1453 7.4273V7.4273C16.1104 7.21799 16.093 7.11334 16.0675 7.09004C16.0293 7.0551 15.9707 7.0551 15.9325 7.09004C15.907 7.11334 15.8896 7.21799 15.8547 7.4273L15.7641 7.9709C15.7253 8.20374 15.7059 8.32015 15.6783 8.4203C15.4595 9.21419 14.7765 9.79281 13.9574 9.87813C13.8541 9.88889 13.736 9.88889 13.5 9.88889V9.88889C13.264 9.88889 13.1459 9.88889 13.0426 9.87813C12.2236 9.79281 11.5405 9.21419 11.3217 8.4203C11.2941 8.32015 11.2747 8.20374 11.2359 7.9709L11.1453 7.4273C11.1104 7.21799 11.093 7.11334 11.0675 7.09004C11.0293 7.0551 10.9707 7.0551 10.9325 7.09004C10.907 7.11334 10.8896 7.21799 10.8547 7.4273L10.7641 7.9709C10.7253 8.20374 10.7059 8.32015 10.6783 8.4203C10.4595 9.21419 9.77645 9.79281 8.95739 9.87813C8.85407 9.88889 8.73605 9.88889 8.5 9.88889V9.88889C8.26395 9.88889 8.14593 9.88889 8.04261 9.87813C7.22355 9.79281 6.54051 9.21419 6.3217 8.4203C6.2941 8.32015 6.2747 8.20374 6.23589 7.9709L6.14529 7.4273C6.11041 7.21799 6.09296 7.11334 6.06749 7.09004C6.02928 7.0551 5.97072 7.0551 5.93251 7.09004C5.90704 7.11334 5.88959 7.21799 5.85471 7.4273V7.4273C5.73012 8.17484 5.66782 8.54861 5.5077 8.84343C5.26925 9.28248 4.87509 9.61638 4.40281 9.77941C4.08568 9.88889 3.70005 9.88889 2.92879 9.88889V9.88889C2.34475 9.88889 2.05273 9.88889 1.84723 9.79002C1.56625 9.65484 1.3644 9.39632 1.3014 9.09093C1.25533 8.86759 1.3249 8.58927 1.46406 8.03265L2.84349 2.51493Z" stroke="white"/>
</svg>
