<svg width="31" height="30" viewBox="0 0 31 30" fill="none" xmlns="http://www.w3.org/2000/svg">
<circle cx="15.2501" cy="15" r="15" fill="white"/>
<path fill-rule="evenodd" clip-rule="evenodd" d="M27.7501 15C27.7501 21.9031 22.1532 27.5 15.2501 27.5C8.34699 27.5 2.75012 21.9031 2.75012 15C2.75012 8.09688 8.34699 2.5 15.2501 2.5C22.1532 2.5 27.7501 8.09688 27.7501 15ZM15.698 11.7281C14.4824 12.2333 12.0522 13.2802 8.40845 14.8677C7.81679 15.1031 7.50637 15.3333 7.47824 15.5583C7.43033 15.9396 7.90741 16.0896 8.55533 16.2927C8.64387 16.3208 8.73554 16.349 8.82929 16.3802C9.46783 16.5875 10.3262 16.8302 10.772 16.8396C11.1772 16.8479 11.6293 16.6812 12.1282 16.3396C15.5324 14.0406 17.2897 12.8792 17.4001 12.8542C17.4782 12.8365 17.5866 12.8135 17.6595 12.8792C17.7324 12.9437 17.7251 13.0667 17.7178 13.1C17.6699 13.301 15.8012 15.0396 14.8324 15.9396C14.5303 16.2198 14.3168 16.4187 14.273 16.4646C14.1751 16.5656 14.0751 16.6625 13.9793 16.7552C13.3855 17.326 12.9418 17.7552 14.0043 18.4552C14.5147 18.7917 14.923 19.0698 15.3303 19.3469C15.7751 19.65 16.2189 19.9521 16.7939 20.3292C16.9397 20.425 17.0793 20.524 17.2157 20.6208C17.7335 20.9906 18.1991 21.3219 18.7741 21.2698C19.1074 21.2385 19.4532 20.925 19.6282 19.9885C20.0418 17.774 20.8564 12.9781 21.0449 11.001C21.0564 10.8369 21.0494 10.672 21.0241 10.5094C21.0089 10.3781 20.945 10.2572 20.8449 10.1708C20.696 10.049 20.4647 10.0229 20.3605 10.025C19.8907 10.0333 19.1699 10.2844 15.698 11.7281Z" fill="#0088CC"/>
</svg>
