<svg width="36" height="36" viewBox="0 0 36 36" fill="none" xmlns="http://www.w3.org/2000/svg">
<path fill-rule="evenodd" clip-rule="evenodd" d="M31.5 21C31.5 28.4558 25.4558 34.5 18 34.5C10.5442 34.5 4.5 28.4558 4.5 21C4.5 13.5442 10.5442 7.5 18 7.5C25.4558 7.5 31.5 13.5442 31.5 21ZM18 29.5C22.6944 29.5 26.5 25.6944 26.5 21C26.5 16.3056 22.6944 12.5 18 12.5C13.3056 12.5 9.5 16.3056 9.5 21C9.5 25.6944 13.3056 29.5 18 29.5ZM18 31.5C23.799 31.5 28.5 26.799 28.5 21C28.5 15.201 23.799 10.5 18 10.5C12.201 10.5 7.5 15.201 7.5 21C7.5 26.799 12.201 31.5 18 31.5ZM19 16.5C19 15.9477 18.5523 15.5 18 15.5C17.4477 15.5 17 15.9477 17 16.5V21C17 21.5523 17.4477 22 18 22C18.5523 22 19 21.5523 19 21V16.5Z" fill="#1EAB5F"/>
<path d="M26.25 11.25L28.5 9" stroke="#1EAB5F" stroke-width="2" stroke-linecap="round"/>
<path d="M15.1022 3.55589C15.2731 3.39641 15.6498 3.25549 16.1737 3.15499C16.6976 3.05448 17.3396 3 18 3C18.6604 3 19.3024 3.05448 19.8263 3.15498C20.3502 3.25549 20.7269 3.39641 20.8978 3.55589" stroke="#1EAB5F" stroke-width="2" stroke-linecap="round"/>
</svg>
