<svg width="58" height="68" viewBox="0 0 58 68" fill="none" xmlns="http://www.w3.org/2000/svg">
<path d="M54.1563 20.875H51.9688C50.1598 20.875 48.6876 22.3472 48.6876 24.1562V24.3433C47.4145 24.795 46.5001 26.0112 46.5001 27.4375V28.7183C46.5001 29.5944 46.8414 30.4191 47.4615 31.0392L48.6329 32.2106L47.4539 42.2327C44.2557 37.0702 39.0932 33.3383 33.1213 31.9678L32.6324 30.5C34.2282 30.0592 35.5374 28.9316 36.1926 27.4375H36.6563C39.0692 27.4375 41.0313 25.4753 41.0313 23.0625V17.5938C42.2378 17.5938 43.2188 16.6127 43.2188 15.4062V13.2188C43.2188 12.0123 42.2378 11.0312 41.0313 11.0312H40.841C39.7954 4.73125 34.4065 0.09375 27.9063 0.09375C21.4062 0.09375 16.0173 4.73125 14.9717 11.0312H14.7813C13.5749 11.0312 12.5938 12.0123 12.5938 13.2188V15.4062C12.5938 16.6127 13.5749 17.5938 14.7813 17.5938V23.0625C14.7813 25.4753 16.7435 27.4375 19.1563 27.4375H19.6201C20.2763 28.9316 21.5856 30.0603 23.1803 30.5L22.6903 31.9689C20.2173 32.5355 17.8603 33.5833 15.7767 35.0205L13.622 28.33C13.6154 28.2939 13.6165 28.2578 13.6088 28.2217C13.0598 25.9172 9.79932 24.7119 6.16807 25.4819C3.91385 25.9598 2.03041 27.0963 1.12916 28.5192C0.614005 29.333 0.445568 30.1992 0.642443 31.0261C0.755099 31.5008 0.988068 31.9263 1.31072 32.2992L8.8051 43.5244C7.70588 46.0509 7.1251 48.7252 7.1251 51.5C7.1251 56.1637 9.79822 60.2073 13.6876 62.2034V63.5312C13.6876 65.9441 15.6498 67.9062 18.0626 67.9062H21.3438H24.6251H42.1251V53.5858C43.7176 55.6956 46.1917 56.9688 48.9074 56.9688C53.6106 56.9688 57.4376 53.1417 57.4376 48.4397V24.1562C57.4376 22.3472 55.9654 20.875 54.1563 20.875ZM48.6876 27.4375C48.6876 26.8348 49.1776 26.3438 49.7813 26.3438H50.8751V24.1562C50.8751 23.5536 51.3651 23.0625 51.9688 23.0625H54.1563C54.7601 23.0625 55.2501 23.5536 55.2501 24.1562V30.7188H50.2342L49.0081 29.4927C48.8013 29.2859 48.6876 29.0103 48.6876 28.7183V27.4375ZM31.1876 63.5312V65.7188H28.392C28.7682 65.0723 29.0001 64.3319 29.0001 63.5312H31.1876ZM32.2813 61.3438H25.7188V56.3278L26.9449 55.1017C27.1495 54.8983 27.4306 54.7812 27.7182 54.7812H29.0001C29.6038 54.7812 30.0938 55.2723 30.0938 55.875V56.9688H32.2813C32.8851 56.9688 33.3751 57.4598 33.3751 58.0625V60.25C33.3751 60.8527 32.8851 61.3438 32.2813 61.3438ZM30.399 30.7188L31.0553 32.6875L27.9063 36.6239L24.7563 32.6864L25.4126 30.7177H30.399V30.7188ZM24.7673 36.2017C24.7192 36.2006 24.6732 36.1875 24.6251 36.1875H18.0626C18.0517 36.1875 18.0418 36.1908 18.0309 36.1908C19.6081 35.2523 21.3231 34.5513 23.1135 34.1345L24.7673 36.2017ZM18.0626 38.375H20.8374C20.4634 39.0192 20.2501 39.7663 20.2501 40.5625V41.6562H22.4376V40.5625C22.4376 39.3561 23.4187 38.375 24.6251 38.375C25.8315 38.375 26.8126 39.3561 26.8126 40.5625C26.8126 41.7689 25.8315 42.75 24.6251 42.75H18.0626C16.8562 42.75 15.8751 41.7689 15.8751 40.5625C15.8751 39.3561 16.8562 38.375 18.0626 38.375ZM15.8751 44.3294C16.5215 44.7056 17.262 44.9375 18.0626 44.9375H24.6251C25.4257 44.9375 26.1662 44.7056 26.8126 44.3294V52.7359C26.2854 52.888 25.7965 53.1559 25.3984 53.5552L24.1723 54.7812H20.2501C18.7188 54.7812 17.2215 54.4159 15.8751 53.7477V44.3294ZM31.1876 53.4414C30.6057 52.9186 29.8423 52.5938 29.0001 52.5938V40.5625C29.0001 40.0462 28.894 39.5573 28.7288 39.0969L31.1876 36.0245V53.4414ZM36.6563 25.25V20.875C37.8628 20.875 38.8438 21.8561 38.8438 23.0625C38.8438 24.2689 37.8628 25.25 36.6563 25.25ZM38.8438 19.2956C38.1974 18.9194 37.457 18.6875 36.6563 18.6875V17.5938H38.8438V19.2956ZM38.6207 11.0312H31.1876V2.78219C34.9446 3.94594 37.8267 7.06313 38.6207 11.0312ZM29.0001 2.33594V11.0312H26.8126V2.33594C27.1724 2.30094 27.5367 2.28125 27.9063 2.28125C28.276 2.28125 28.6403 2.30094 29.0001 2.33594ZM24.6251 2.78219V11.0312H17.192C17.986 7.06313 20.8681 3.94594 24.6251 2.78219ZM14.7803 13.2188H41.0313V15.4062H14.7813L14.7803 13.2188ZM19.1563 17.5938V18.6875C18.3557 18.6875 17.6153 18.9194 16.9688 19.2956V17.5938H19.1563ZM16.9688 23.0625C16.9688 21.8561 17.9499 20.875 19.1563 20.875V25.25C17.9499 25.25 16.9688 24.2689 16.9688 23.0625ZM21.3438 25.25V17.5938H34.4688V25.25C34.4688 27.0591 32.9967 28.5312 31.1876 28.5312H24.6251C22.816 28.5312 21.3438 27.0591 21.3438 25.25ZM2.97651 29.6906C3.55182 28.7828 4.98244 27.9713 6.62307 27.6223C7.2476 27.49 7.83166 27.432 8.36322 27.432C9.91088 27.432 11.0134 27.922 11.3721 28.482L11.4793 28.8145C11.5056 29.0388 11.4476 29.2859 11.2737 29.5605C10.6984 30.4683 9.26775 31.2798 7.62713 31.6287C5.36963 32.1067 3.66447 31.6091 3.03119 30.9408L2.81682 30.6192C2.80369 30.5864 2.77744 30.5558 2.76869 30.523C2.71182 30.278 2.78182 29.9991 2.97651 29.6906ZM5.92744 33.9989C6.61651 33.9989 7.34166 33.9245 8.08213 33.767C9.83979 33.3941 11.3656 32.6186 12.3828 31.6211L14.4642 38.0841C13.9763 38.7895 13.6876 39.6416 13.6876 40.5625V46.8997L5.0426 33.9519C5.33026 33.9803 5.62447 33.9989 5.92744 33.9989ZM9.3126 51.5C9.3126 49.5105 9.63526 47.5745 10.2707 45.7228L13.6876 50.8405V52.2525C13.2107 51.8259 12.7645 51.3622 12.3751 50.8438L10.6251 52.1562C12.8848 55.1695 16.4832 56.9688 20.2501 56.9688H23.5313V61.3438H19.1563C13.7281 61.3438 9.3126 56.9272 9.3126 51.5ZM21.3438 65.7188H18.0626C16.8562 65.7188 15.8751 64.7377 15.8751 63.5312V63.0653C16.9196 63.3617 18.0178 63.5312 19.1563 63.5312H26.8126C26.8126 64.7377 25.8315 65.7188 24.6251 65.7188H21.3438ZM48.9074 54.7812C46.4903 54.7812 44.317 53.4381 43.2353 51.2758L42.1251 49.0544V44.9375H39.9376V65.7188H33.3751V63.33C34.6449 62.8772 35.5626 61.6741 35.5626 60.25V58.0625C35.5626 56.6384 34.6449 55.4353 33.3751 54.9825V34.2887C39.3065 35.8856 44.2798 40.0725 46.8392 45.702L47.0043 46.0641L46.5089 50.2794L48.681 50.5342L50.7537 32.9062H55.2501V48.4397C55.2501 51.9364 52.4042 54.7812 48.9074 54.7812Z" fill="#1EAB5F"/>
</svg>
