<svg width="15" height="13" viewBox="0 0 15 13" fill="none" xmlns="http://www.w3.org/2000/svg">
<path d="M2.11487 12.1765L2.11491 12.1765C2.24139 12.303 2.41048 12.3768 2.57391 12.3954C2.73404 12.4137 2.92912 12.3819 3.0705 12.2406L3.38011 11.931C4.12211 12.4518 4.9308 12.7397 5.75883 12.7107C6.65618 12.6793 7.54304 12.2768 8.3606 11.4593L8.19364 11.2923L8.3606 11.4592C9.28329 10.5365 9.59496 9.60658 9.56882 8.70227C9.54499 7.8777 9.24003 7.09505 8.91927 6.39179L11.5238 3.78722C11.8238 4.16846 11.9772 4.50897 12.0796 4.79045C12.1101 4.87438 12.1362 4.95351 12.1611 5.02944C12.1636 5.03725 12.1662 5.04506 12.1687 5.05287C12.1904 5.11944 12.212 5.18554 12.2339 5.24616C12.2806 5.3757 12.3421 5.52158 12.4515 5.63105C12.684 5.86349 12.9986 5.87405 13.2399 5.82197C13.4815 5.76981 13.7152 5.64331 13.8554 5.50313L13.8555 5.50311C14.0544 5.30424 14.1042 5.03517 14.0822 4.77425C14.0603 4.51426 13.9658 4.23024 13.8346 3.94933C13.6026 3.45273 13.2342 2.92015 12.8437 2.46726L13.0356 2.27536C13.177 2.13398 13.2088 1.9389 13.1905 1.77877C13.1718 1.61534 13.0981 1.44625 12.9716 1.31977C12.7123 1.06051 12.2825 0.989097 12.0159 1.25564C12.0159 1.25565 12.0159 1.25566 12.0159 1.25566L11.7906 1.48097C11.1755 1.00298 10.4387 0.615867 9.64693 0.524386C8.76324 0.422291 7.84011 0.692301 6.98216 1.55029C6.10848 2.42394 5.87425 3.32215 5.97222 4.20741C6.06085 5.00822 6.4217 5.78879 6.7669 6.50477L3.67564 9.59603C3.16074 8.95973 3.01788 8.38678 2.97107 7.92529C2.95348 7.75184 2.94971 7.60693 2.94609 7.46754C2.944 7.38707 2.94196 7.30844 2.93733 7.22721C2.92676 7.04178 2.90232 6.80026 2.73743 6.63536C2.53636 6.43429 2.23919 6.40275 2.00071 6.43462C1.75592 6.46734 1.49581 6.57531 1.32062 6.75055C1.13415 6.93704 1.02623 7.21456 0.981682 7.52211C0.936476 7.83418 0.952628 8.20108 1.03689 8.59514C1.19373 9.32867 1.59024 10.1744 2.30282 10.9689L2.0508 11.2209C1.78419 11.4875 1.85579 11.9173 2.11487 12.1765ZM9.55744 2.41379C9.87109 2.45413 10.2016 2.60574 10.5332 2.84105L8.30283 5.0714C8.1378 4.68389 8.01882 4.33292 7.99417 4.00133C7.96429 3.59956 8.0726 3.2163 8.46279 2.82618L8.46282 2.82615C8.82042 2.46852 9.18939 2.36646 9.55744 2.41379ZM6.8797 10.1835C6.49093 10.5722 6.09126 10.7554 5.69859 10.7783C5.37969 10.7969 5.04322 10.7112 4.697 10.5114L7.34378 7.86464C7.4651 8.2203 7.53474 8.55711 7.51767 8.88383C7.49562 9.30592 7.32727 9.73589 6.8797 10.1835Z" fill="#1EAB5F" stroke="#1EAB5F" stroke-width="0.5"/>
</svg>
