<svg width="36" height="30" viewBox="0 0 36 30" fill="none" xmlns="http://www.w3.org/2000/svg">
<path d="M35.0041 19.0219L35.0044 19.0227C35.3338 19.8942 35.5 20.8107 35.5 21.7499C35.5 26.0234 32.0218 29.5001 27.7501 29.5001C23.4781 29.5001 19.9999 26.0234 19.9999 21.7499V21.0001V20.5001H19.4999H16.5001H16.0001V21.0001V21.7499C16.0001 26.0234 12.5219 29.5001 8.24991 29.5001C3.97821 29.5001 0.5 26.0234 0.5 21.7499C0.5 20.8203 0.662797 19.9125 0.98467 19.0453C0.990228 19.0328 0.995192 19.0203 0.999594 19.0077L6.79606 3.59756C6.80019 3.58727 6.80362 3.57777 6.80647 3.56928C6.8068 3.56828 6.80713 3.56729 6.80745 3.56631C7.5043 1.7314 9.28961 0.5 11.25 0.5C13.8688 0.5 16.0001 2.63108 16.0001 5.25009V12.0001V12.5001H16.5001H19.4999H19.9999V12.0001V5.25009C19.9999 4.67674 20.1018 4.11392 20.3025 3.57932C20.9959 1.73722 22.785 0.5 24.75 0.5C26.7153 0.5 28.5043 1.73748 29.1959 3.5778L29.2339 3.67902L29.235 3.68008L35.0041 19.0219ZM2.50009 21.7499C2.50009 24.9212 5.07885 27.5 8.24991 27.5C11.4212 27.5 14 24.9212 14 21.7499C14 18.5789 11.4212 16.0001 8.24991 16.0001C5.86684 16.0001 3.70512 17.4967 2.86677 19.7256C2.623 20.3723 2.50009 21.0547 2.50009 21.7499ZM22 21.7499C22 24.9212 24.5788 27.5 27.7501 27.5C30.9211 27.5 33.4999 24.9212 33.4999 21.7499C33.4999 21.0549 33.377 20.3725 33.1334 19.726C32.2951 17.4969 30.1333 16.0001 27.7501 16.0001C24.5788 16.0001 22 18.5789 22 21.7499Z" stroke="white"/>
</svg>
