<svg width="497" height="68" viewBox="0 0 497 68" fill="none" xmlns="http://www.w3.org/2000/svg">
<path d="M496.952 6.93614C497.193 5.85816 496.514 4.78901 495.436 4.54813L477.869 0.622843C476.791 0.381968 475.722 1.06058 475.481 2.13857C475.24 3.21655 475.919 4.2857 476.997 4.52657L492.612 8.01572L489.123 23.6306C488.882 24.7086 489.561 25.7778 490.639 26.0187C491.717 26.2595 492.786 25.5809 493.027 24.5029L496.952 6.93614ZM0.439335 33.7933C1.66454 34.1511 2.90913 34.5099 4.17271 34.8694L5.26721 31.022C4.01243 30.665 2.77679 30.3089 1.56067 29.9537L0.439335 33.7933ZM11.886 37.0078C14.3812 37.6822 16.94 38.3577 19.5598 39.0326L20.5578 35.1591C17.9529 34.488 15.4094 33.8166 12.9297 33.1464L11.886 37.0078ZM27.2346 40.9648C29.7744 41.5897 32.3649 42.213 35.004 42.8336L35.9196 38.9398C33.2937 38.3223 30.7166 37.7022 28.1902 37.0806L27.2346 40.9648ZM42.7334 44.6113C45.2747 45.183 47.8564 45.7513 50.4769 46.3153L51.3185 42.4048C48.71 41.8434 46.1404 41.2778 43.6113 40.7089L42.7334 44.6113ZM58.3149 47.965C60.8572 48.4882 63.4327 49.0067 66.04 49.5199L66.8125 45.5952C64.2164 45.0842 61.6522 44.5679 59.1211 44.0471L58.3149 47.965ZM73.8795 51.0279C76.4466 51.5104 79.0419 51.9872 81.6642 52.4575L82.3703 48.5203C79.759 48.0519 77.1746 47.5772 74.6183 47.0967L73.8795 51.0279ZM89.5025 53.83C92.0892 54.272 94.7 54.7073 97.3338 55.1353L97.9754 51.1871C95.3524 50.7608 92.7523 50.3273 90.1762 49.8871L89.5025 53.83ZM105.178 56.3775C107.779 56.7785 110.4 57.1721 113.041 57.5576L113.619 53.5995C110.989 53.2156 108.378 52.8236 105.788 52.4242L105.178 56.3775ZM120.898 58.6722C123.508 59.0319 126.136 59.3833 128.781 59.7261L129.295 55.7592C126.661 55.4179 124.043 55.0679 121.444 54.7097L120.898 58.6722ZM136.654 60.7139C139.272 61.0316 141.905 61.3405 144.552 61.6399L145.002 57.6653C142.365 57.367 139.743 57.0594 137.136 56.743L136.654 60.7139ZM152.443 62.5C155.066 62.7751 157.702 63.0407 160.351 63.2963L160.735 59.3148C158.098 59.0602 155.472 58.7958 152.86 58.5219L152.443 62.5ZM168.261 64.0265C170.888 64.2579 173.527 64.4793 176.175 64.6902L176.493 60.7028C173.855 60.4928 171.228 60.2724 168.612 60.0419L168.261 64.0265ZM184.103 65.2871C186.734 65.4739 189.374 65.65 192.023 65.8149L192.271 61.8226C189.634 61.6584 187.006 61.4831 184.386 61.2971L184.103 65.2871ZM199.965 66.2744C202.6 66.415 205.241 66.5444 207.89 66.6621L208.067 62.666C205.431 62.5489 202.801 62.4201 200.179 62.28L199.965 66.2744ZM215.844 66.979C218.481 67.0719 221.124 67.153 223.772 67.2216L223.876 63.223C221.24 63.1546 218.61 63.074 215.985 62.9815L215.844 66.979ZM231.732 67.3902C234.372 67.4335 237.016 67.4642 239.665 67.482L239.692 63.482C237.056 63.4644 234.425 63.4338 231.797 63.3908L231.732 67.3902ZM247.619 67.4958C250.264 67.4872 252.911 67.4654 255.561 67.4298L255.508 63.4302C252.871 63.4655 250.237 63.4873 247.606 63.4958L247.619 67.4958ZM263.51 67.282C266.157 67.2189 268.805 67.1418 271.455 67.0503L271.317 63.0527C268.682 63.1437 266.047 63.2203 263.414 63.2831L263.51 67.282ZM279.397 66.7328C282.044 66.6123 284.691 66.4772 287.338 66.3269L287.111 62.3333C284.479 62.4827 281.847 62.6171 279.215 62.7369L279.397 66.7328ZM295.271 65.8305C297.916 65.6497 300.559 65.4533 303.2 65.2411L302.88 61.2539C300.254 61.4649 297.627 61.6601 294.998 61.8399L295.271 65.8305ZM311.124 64.5558C313.763 64.3112 316.399 64.0502 319.033 63.7726L318.614 59.7946C315.997 60.0705 313.377 60.3298 310.754 60.5729L311.124 64.5558ZM326.942 62.887C329.575 62.5747 332.204 62.2453 334.829 61.8982L334.305 57.9328C331.698 58.2774 329.086 58.6046 326.471 58.9148L326.942 62.887ZM342.713 60.8007C345.338 60.4165 347.958 60.0142 350.573 59.5934L349.937 55.6442C347.342 56.062 344.74 56.4614 342.134 56.8428L342.713 60.8007ZM358.421 58.271C361.036 57.8103 363.645 57.3305 366.247 56.8311L365.493 52.9028C362.911 53.3983 360.323 53.8744 357.727 54.3317L358.421 58.271ZM374.048 55.27C376.651 54.7277 379.245 54.1652 381.831 53.5821L380.951 49.6801C378.387 50.2583 375.814 50.8162 373.232 51.3542L374.048 55.27ZM389.574 51.7675C392.16 51.1382 394.736 50.4875 397.302 49.8151L396.288 45.9457C393.745 46.6121 391.191 47.2571 388.628 47.8809L389.574 51.7675ZM404.973 47.7309C407.538 47.0089 410.091 46.2643 412.633 45.4966L411.476 41.6675C408.959 42.4277 406.43 43.1653 403.889 43.8806L404.973 47.7309ZM420.221 43.1244C422.757 42.3041 425.28 41.46 427.79 40.5916L426.482 36.8115C423.999 37.6709 421.501 38.5064 418.99 39.3185L420.221 43.1244ZM435.282 37.9118C437.782 36.9877 440.267 36.0386 442.737 35.0639L441.269 31.3431C438.826 32.307 436.368 33.2458 433.895 34.1599L435.282 37.9118ZM450.111 32.0579C452.567 31.024 455.007 29.9638 457.429 28.8768L455.792 25.2274C453.398 26.3015 450.987 27.3493 448.559 28.3712L450.111 32.0579ZM464.661 25.5266C467.064 24.3773 469.449 23.2002 471.816 21.995L470 18.4307C467.664 19.6205 465.309 20.7828 462.935 21.9179L464.661 25.5266ZM478.875 18.2838C481.217 17.0137 483.538 15.7146 485.838 14.3859L483.838 10.9222C481.569 12.2328 479.279 13.5145 476.968 14.7678L478.875 18.2838ZM492.694 10.2994C493.825 9.60339 494.951 8.89979 496.072 8.18858L493.928 4.81142C492.824 5.51248 491.714 6.20611 490.598 6.89237L492.694 10.2994Z" fill="#FDDF31"/>
</svg>
