<svg width="58" height="70" viewBox="0 0 58 70" fill="none" xmlns="http://www.w3.org/2000/svg">
<path d="M55.2015 51.5717C53.6624 49.1895 51.5475 47.2966 49.07 46.0742C48.8611 45.8802 48.5925 45.7502 48.2938 45.717C46.5018 44.9563 44.6129 44.5703 42.6719 44.5703H38.5703V40.9633C40.9439 38.9267 42.6503 36.2292 43.4777 33.2227H44.0391C47.0545 33.2227 49.5078 30.7694 49.5078 27.7539C49.5078 26.3249 48.9563 25.0228 48.0556 24.0475C48.1416 23.9745 48.2255 23.8984 48.3062 23.8179C49.0811 23.043 49.5078 22.0131 49.5078 20.918C49.5078 19.1183 48.3422 17.5867 46.7265 17.0357C46.2435 10.7488 41.8312 5.37633 35.7561 3.6925C35.3961 1.81234 33.8445 0 31.7344 0H26.2656C24.1555 0 22.6039 1.81234 22.2439 3.6925C16.1694 5.37619 11.7574 10.7477 11.2736 17.0338C10.6854 17.2333 10.1461 17.5659 9.69381 18.018C8.91889 18.7929 8.49219 19.8229 8.49219 20.918C8.49219 22.1707 9.05738 23.2935 9.94551 24.0464C9.04426 25.0217 8.49219 26.3244 8.49219 27.7539C8.49219 30.7694 10.9455 33.2227 13.9609 33.2227H14.5185C15.2092 35.7324 16.5188 38.0365 18.3458 39.9398C18.6891 40.2977 19.053 40.6387 19.4297 40.9622V44.5703H15.3281C13.387 44.5703 11.4981 44.9563 9.70625 45.7168C9.40766 45.7502 9.13887 45.8801 8.9301 46.0741C6.45234 47.2966 4.33758 49.1895 2.79854 51.5715C1.15682 54.1127 0.289062 57.034 0.289062 60.0195V68.6328C0.289062 69.3878 0.901152 70 1.65625 70H56.3438C57.0988 70 57.7109 69.3878 57.7109 68.6328V60.0195C57.7109 57.034 56.8432 54.1127 55.2015 51.5717ZM8.49219 67.2656H3.02344V60.0195C3.02344 55.861 5.15379 51.8751 8.49219 49.5089V67.2656ZM44.0391 30.4883H43.9767C44.0175 30.0334 44.0391 29.5769 44.0391 29.1211V25.0195C45.5468 25.0195 46.7734 26.2462 46.7734 27.7539C46.7734 29.2616 45.5468 30.4883 44.0391 30.4883ZM22.1641 6.5815V12.7148C22.1641 13.4699 22.7762 14.082 23.5312 14.082C24.2863 14.082 24.8984 13.4699 24.8984 12.7148V4.79377C24.8984 4.79022 24.8984 4.78666 24.8984 4.78311V4.51172C24.8984 3.66461 25.614 2.73438 26.2656 2.73438H31.7344C32.386 2.73438 33.1016 3.66461 33.1016 4.51172V4.78311C33.1016 4.78666 33.1016 4.79022 33.1016 4.79377V12.7148C33.1016 13.4699 33.7137 14.082 34.4688 14.082C35.2238 14.082 35.8359 13.4699 35.8359 12.7148V6.5815C40.2506 8.14379 43.4375 12.1387 43.9626 16.8164H14.0374C14.5625 12.1387 17.7494 8.14379 22.1641 6.5815ZM13.9609 30.4883C12.4532 30.4883 11.2266 29.2616 11.2266 27.7539C11.2266 26.2462 12.4532 25.0195 13.9609 25.0195V29.1211C13.9609 29.5769 13.9825 30.0336 14.0233 30.4883H13.9609ZM13.9609 22.2852H12.5938C11.8399 22.2852 11.2266 21.6718 11.2266 20.918C11.2266 20.5532 11.3689 20.2099 11.6273 19.9516C11.8858 19.6931 12.229 19.5508 12.5938 19.5508H45.4062C46.1601 19.5508 46.7734 20.1641 46.7734 20.918C46.7734 21.2827 46.6311 21.626 46.3727 21.8843C46.1143 22.1428 45.771 22.2852 45.4062 22.2852H44.0391H42.6719H15.3281H13.9609ZM16.9437 31.607C16.941 31.5921 16.9384 31.5774 16.9351 31.5628C16.7764 30.7604 16.6953 29.9391 16.6953 29.1211V25.0195H41.3047V29.1211C41.3047 29.9384 41.2236 30.7591 41.0649 31.5622C41.0616 31.577 41.059 31.5919 41.0563 31.6068C40.4453 34.6566 38.7543 37.3866 36.292 39.296C34.1529 40.9577 31.6314 41.8359 29 41.8359C26.3686 41.8359 23.8471 40.9577 21.7059 39.2945C21.2158 38.9152 20.7493 38.4956 20.3189 38.0468C18.5942 36.25 17.4277 34.0241 16.9437 31.607ZM27.6328 67.2656H16.6953V64.1211C16.6953 63.366 16.0832 62.7539 15.3281 62.7539C14.573 62.7539 13.9609 63.366 13.9609 64.1211V67.2656H11.2266V48.0531C12.1139 47.7185 13.028 47.4955 13.9609 47.3856V55.918C13.9609 56.6731 14.573 57.2852 15.3281 57.2852C16.0832 57.2852 16.6953 56.6731 16.6953 55.918V47.3047H20.211L27.6328 55.0977V67.2656ZM22.1641 45.3906V42.8441C24.2738 43.9782 26.5974 44.5703 29 44.5703C31.4027 44.5703 33.7265 43.978 35.8359 42.8442V45.3906L29 52.5684L22.1641 45.3906ZM46.7734 67.2656H44.0391V64.1211C44.0391 63.366 43.427 62.7539 42.6719 62.7539C41.9168 62.7539 41.3047 63.366 41.3047 64.1211V67.2656H30.3672V55.0977L37.789 47.3047H41.3047V55.918C41.3047 56.6731 41.9168 57.2852 42.6719 57.2852C43.427 57.2852 44.0391 56.6731 44.0391 55.918V47.3856C44.972 47.4955 45.886 47.7187 46.7734 48.0532V67.2656ZM54.9766 67.2656H49.5078V49.5087C52.8462 51.8749 54.9766 55.8608 54.9766 60.0195V67.2656Z" fill="#1EAB5F"/>
</svg>
