<svg width="26" height="29" viewBox="0 0 26 29" fill="none" xmlns="http://www.w3.org/2000/svg">
<path d="M24.8684 6.89356C24.3996 5.22012 23.4715 3.89824 22.1121 2.96309C20.3965 1.77949 18.423 1.36231 16.7191 1.10684C14.3613 0.755276 12.2262 0.706058 10.1895 0.954494C8.28164 1.18887 6.84492 1.56153 5.53477 2.16387C2.96602 3.34512 1.42383 5.25527 0.952732 7.84043C0.723046 9.09668 0.568361 10.2311 0.479297 11.3139C0.273047 13.817 0.460546 16.0318 1.05117 18.085C1.62774 20.0865 2.63321 21.5162 4.12617 22.4561C4.50586 22.6951 4.99336 22.8686 5.46446 23.035C5.73164 23.1287 5.9918 23.2201 6.20509 23.3209C6.40196 23.4123 6.40196 23.4287 6.39962 23.5928C6.38321 25.0154 6.39962 27.8045 6.39962 27.8045L6.4043 28.3998H7.47305L7.64649 28.2311C7.76134 28.1232 10.4098 25.5639 11.3543 24.5326L11.4832 24.3897C11.6449 24.2022 11.6449 24.2022 11.8113 24.1998C13.0863 24.174 14.3895 24.1248 15.6832 24.0545C17.2512 23.9701 19.0676 23.8178 20.7785 23.1053C22.3442 22.4514 23.4879 21.4131 24.1746 20.0209C24.8918 18.5678 25.316 16.9951 25.4754 15.2115C25.7567 12.0756 25.5574 9.3545 24.8684 6.89356ZM19.2293 19.0881C18.8355 19.7279 18.2496 20.1732 17.5582 20.4615C17.0519 20.6725 16.5363 20.6279 16.0371 20.417C11.8582 18.6475 8.57928 15.8607 6.41366 11.8529C5.96601 11.0279 5.65663 10.1279 5.30038 9.25606C5.22773 9.07794 5.23241 8.86699 5.1996 8.67012C5.23007 7.26153 6.31053 6.467 7.40273 6.22794C7.81991 6.13419 8.19023 6.28184 8.49961 6.5795C9.35742 7.39513 10.0348 8.34435 10.5457 9.40841C10.7684 9.87481 10.6676 10.2873 10.2879 10.6342C10.2082 10.7068 10.1262 10.7725 10.0395 10.8381C9.17227 11.4897 9.0457 11.9842 9.50742 12.9662C10.2949 14.6373 11.6027 15.76 13.2926 16.4561C13.7379 16.6389 14.1574 16.5475 14.4973 16.1865C14.5441 16.1397 14.5957 16.0928 14.6285 16.0365C15.2941 14.9256 16.2621 15.0358 17.1551 15.6686C17.741 16.0858 18.3105 16.5264 18.8895 16.9506C19.773 17.5998 19.766 18.2092 19.2293 19.0881ZM13.6863 7.99981C13.4895 7.99981 13.2926 8.01621 13.098 8.04903C12.7699 8.10293 12.4629 7.88262 12.4066 7.55449C12.3527 7.22871 12.573 6.91934 12.9012 6.86543C13.159 6.8209 13.4238 6.79981 13.6863 6.79981C16.2855 6.79981 18.3996 8.91387 18.3996 11.5131C18.3996 11.7779 18.3785 12.0428 18.334 12.2982C18.2848 12.5912 18.0316 12.7998 17.7434 12.7998C17.7105 12.7998 17.6777 12.7975 17.6426 12.7904C17.3168 12.7365 17.0965 12.4272 17.1504 12.1014C17.1832 11.9092 17.1996 11.7123 17.1996 11.5131C17.1996 9.57716 15.6223 7.99981 13.6863 7.99981ZM16.5996 11.5998C16.5996 11.9303 16.3301 12.1998 15.9996 12.1998C15.6691 12.1998 15.3996 11.9303 15.3996 11.5998C15.3996 10.6084 14.591 9.79981 13.5996 9.79981C13.2691 9.79981 12.9996 9.53028 12.9996 9.19981C12.9996 8.86934 13.2691 8.59981 13.5996 8.59981C15.2543 8.59981 16.5996 9.94512 16.5996 11.5998ZM20.0262 12.9334C19.9629 13.2123 19.7145 13.3998 19.4402 13.3998C19.3957 13.3998 19.3512 13.3951 19.3066 13.3857C18.9832 13.3107 18.7816 12.9896 18.8543 12.6662C18.941 12.2842 18.9855 11.8881 18.9855 11.4896C18.9855 8.57403 16.6113 6.1998 13.6957 6.1998C13.2973 6.1998 12.9012 6.24434 12.5191 6.33105C12.1957 6.40605 11.8746 6.20215 11.8019 5.87871C11.7269 5.55527 11.9309 5.23417 12.2543 5.16152C12.723 5.05371 13.2082 4.9998 13.6957 4.9998C17.2746 4.9998 20.1855 7.91074 20.1855 11.4896C20.1855 11.9771 20.1316 12.4623 20.0262 12.9334Z" fill="#7E57C2"/>
</svg>
