<svg width="31" height="30" viewBox="0 0 31 30" fill="none" xmlns="http://www.w3.org/2000/svg">
<path d="M8.13377 26.0742L8.62745 26.3203C10.6847 27.5508 12.9886 28.125 15.2927 28.125C22.5338 28.125 28.4584 22.2188 28.4584 15C28.4584 11.5547 27.0595 8.19143 24.591 5.73045C22.1224 3.26948 18.8309 1.875 15.2927 1.875C8.05155 1.875 2.12688 7.78124 2.20922 15.0821C2.20922 17.5429 2.94979 19.9219 4.18403 21.9726L4.51315 22.4649L3.19669 27.3048L8.13377 26.0742Z" fill="#00E676"/>
<path d="M26.0009 4.37837C23.2216 1.54059 19.3797 0 15.456 0C7.11819 0 0.41517 6.72971 0.496848 14.9189C0.496848 17.5135 1.23254 20.0271 2.45877 22.2973L0.333374 30L8.26251 27.973C10.4696 29.1893 12.9218 29.7568 15.3743 29.7568C23.6304 29.7568 30.3334 23.027 30.3334 14.838C30.3334 10.8649 28.7801 7.13514 26.0009 4.37837ZM15.456 27.2434C13.2489 27.2434 11.0418 26.6759 9.16167 25.5407L8.67125 25.2974L3.93015 26.5136L5.15627 21.8921L4.82932 21.4055C1.23254 15.6488 2.94919 8.02701 8.83473 4.45939C14.7203 0.891878 22.3224 2.59462 25.9192 8.43244C29.5159 14.2703 27.7992 21.8108 21.9138 25.3785C20.0336 26.5946 17.7448 27.2434 15.456 27.2434ZM22.6494 18.2434L21.7502 17.838C21.7502 17.838 20.4424 17.2704 19.6249 16.865C19.5432 16.865 19.4615 16.7839 19.3797 16.7839C19.1344 16.7839 18.9709 16.865 18.8075 16.9461C18.8075 16.9461 18.7258 17.0272 17.5813 18.3245C17.4995 18.4866 17.3361 18.5677 17.1726 18.5677H17.0908C17.0091 18.5677 16.8457 18.4866 16.7639 18.4056L16.3551 18.2434C15.4559 17.838 14.6386 17.3514 13.9846 16.7029C13.8211 16.5407 13.5758 16.3786 13.4123 16.2164C12.8401 15.6488 12.2679 15.0001 11.8593 14.2704L11.7775 14.1082C11.6958 14.0271 11.6958 13.9461 11.614 13.7839C11.614 13.6218 11.614 13.4596 11.6958 13.3785C11.6958 13.3785 12.0228 12.9731 12.2679 12.7299C12.4315 12.5676 12.5132 12.3245 12.6767 12.1623C12.8401 11.9191 12.9219 11.5948 12.8401 11.3515C12.7585 10.946 11.7775 8.75686 11.5323 8.27041C11.3687 8.02713 11.2054 7.94611 10.9601 7.86498H10.061C9.89737 7.86498 9.73401 7.94611 9.57042 7.94611L9.48862 8.02713C9.32515 8.10826 9.16167 8.27041 8.9982 8.35143C8.83473 8.51369 8.75293 8.67572 8.58946 8.83799C8.01724 9.56772 7.69029 10.4596 7.69029 11.3515C7.69029 12.0001 7.85376 12.6488 8.09903 13.2164L8.18083 13.4596C8.91652 15.0001 9.89737 16.3786 11.2054 17.5947L11.5323 17.919C11.7775 18.1623 12.0228 18.3245 12.1862 18.5676C13.9029 20.0272 15.8647 21.0812 18.0718 21.6488C18.317 21.7298 18.644 21.7298 18.8893 21.811H19.7066C20.1154 21.811 20.6058 21.6488 20.9329 21.4867C21.178 21.3245 21.3415 21.3245 21.505 21.1624L21.6686 21.0001C21.832 20.8379 21.9955 20.7569 22.159 20.5948C22.3224 20.4326 22.4859 20.2705 22.5677 20.1082C22.7312 19.7839 22.8129 19.3785 22.8947 18.9732V18.4056C22.8947 18.4056 22.8129 18.3245 22.6494 18.2434Z" fill="white"/>
</svg>
