<svg width="36" height="36" viewBox="0 0 36 36" fill="none" xmlns="http://www.w3.org/2000/svg">
<path d="M27.9579 9.22359L29.9463 12.0603C30.0646 12.2291 30.1584 12.4204 30.2171 12.6179C33.2269 22.7544 26.5951 27.3081 24.8325 28.8568C24.6413 29.0248 24.5385 29.2562 24.5104 29.5055L24.5024 29.6504C24.5024 29.6017 24.5051 29.5533 24.5104 29.5055L24.8303 23.725C24.9361 21.8119 24.1218 19.9632 22.6388 18.7498L18.563 15.4151C17.8273 14.8131 17.6169 13.7766 18.0597 12.9355L18.5494 12.0054C18.7633 11.599 19.1106 11.2786 19.5329 11.0981L25.534 8.53253C26.4037 8.16071 27.415 8.44903 27.9579 9.22359Z" fill="#1EAB5F" stroke="#1EAB5F"/>
<path d="M10.4473 14.718C9.25437 14.8742 7.81231 15.0691 6.45721 15.268C5.3164 15.4355 4.57453 16.5435 4.8338 17.6671L5.70239 21.4309C5.74133 21.5997 5.80203 21.7626 5.88295 21.9158L8.29123 26.4723C8.4668 26.8045 8.73237 27.0805 9.05754 27.2687L14.7712 30.5759C15.2206 30.836 15.7962 30.6634 16.0284 30.199C16.0552 30.1455 16.0765 30.0895 16.0922 30.0318L16.6563 27.9507C17.03 26.5721 16.38 25.1213 15.1025 24.4825L14.3413 24.1019C12.7707 23.3166 11.8959 21.5987 12.1846 19.8666L12.6592 17.0189C12.8788 15.7014 11.7717 14.5447 10.4473 14.718Z" fill="#1EAB5F" stroke="#1EAB5F"/>
<circle cx="17.9997" cy="17.8806" r="13.4997" stroke="#1EAB5F"/>
</svg>
